<svg width="40" height="40" fill="none" xmlns="http://www.w3.org/2000/svg"><g clip-path="url(#clip0_0_891)"><path d="M16.313.227a1.14 1.14 0 00-.5.585l-.149.36H9.141c-4.313 0-6.625.031-6.82.086-.368.101-.829.492-.962.828-.086.203-.109 1.5-.109 6.937 0 6.094-.008 6.68-.125 6.68-.258 0-.75.36-.938.672l-.187.32V20c0 3.273 0 3.305.172 3.61.18.312.695.687.945.687.125 0 .133.5.133 6.64 0 5.407.023 6.696.11 6.899.132.336.593.727.96.828.196.055 2.516.086 6.844.086 6.047 0 6.54.008 6.54.133 0 .25.374.765.687.945.304.172.336.172 3.609.172h3.305l.32-.188c.313-.187.672-.68.672-.937 0-.117.57-.125 6.547-.125 4.32 0 6.64-.031 6.836-.086.367-.102.828-.492.96-.828.087-.203.11-1.492.11-6.898 0-6.141.008-6.641.133-6.641.25 0 .765-.375.945-.688C40 23.305 40 23.273 40 20v-3.305l-.188-.32c-.187-.313-.68-.672-.937-.672-.117 0-.125-.586-.125-6.68 0-5.437-.023-6.734-.11-6.937-.132-.336-.593-.727-.96-.828-.196-.055-2.508-.086-6.82-.086h-6.524l-.148-.36a1.14 1.14 0 00-.5-.585L23.328 0h-6.656l-.36.227zm6.734 1.101c.047.07.078 2.156.078 5.242 0 4.711-.008 5.133-.133 5.18-.086.04-.195-.031-.344-.21-.117-.142-.398-.36-.625-.485l-.421-.235h-3.204l-.421.235c-.227.125-.508.343-.625.484-.149.18-.258.25-.344.211-.125-.047-.133-.469-.133-5.18 0-2.82.031-5.164.063-5.21a.425.425 0 01.171-.133c.063-.024 1.414-.04 2.993-.032 2.46.016 2.882.032 2.945.133zM5.469 5.352l-2.93 2.93-.023-2.821c-.016-2.024.007-2.86.07-2.93.07-.086.625-.11 2.953-.11H8.4l-2.93 2.93zm1.758 1.757l-4.688 4.688-.023-.836-.024-.836 3.852-3.852 3.851-3.851h1.72L7.226 7.109zm8.398-4.32v.375L9.398 9.391l-6.234 6.234H2.5v-1.992L8.102 8.03l5.609-5.61h1.914v.368zm13.36 2.328c1.593 1.594 2.765 2.696 2.85 2.703.571.032.782-.18.75-.75-.007-.086-.944-1.086-2.25-2.398l-2.25-2.25h1.72l3.843 3.844 3.852 3.851v1.719l-1.617-1.617c-.899-.883-1.703-1.649-1.797-1.696-.383-.195-.836.125-.836.586 0 .25.156.43 2.125 2.399l2.125 2.125v1.992h-.664l-6.227-6.227-6.234-6.234v-.742h1.914l2.695 2.695zm8.43-2.586c.062.07.085.906.07 2.93l-.024 2.82-2.93-2.93-2.93-2.93h2.86c2.328 0 2.883.024 2.953.11zm-23.76 6.196c-1.086 1.085-2.008 1.976-2.054 1.976-.04 0-.297.102-.563.227a3.683 3.683 0 00-1.82 1.968c-.133.344-.375.625-1.313 1.57l-1.148 1.157H4.96l5.312-5.313L15.586 5l.023.875.024.875-1.977 1.977zm20.469 6.882l-.875.024-1.148-1.149c-.891-.89-1.18-1.234-1.29-1.507-.375-1.032-1.328-1.954-2.296-2.235-.11-.031-1.086-.937-2.164-2.015l-1.977-1.97V4.962l5.313 5.312L35 15.586l-.875.023zm-18.531-4.695c-.016.016-.25-.039-.524-.133a6.587 6.587 0 00-.953-.21l-.46-.048.968-.968.96-.961.024 1.14c.008.633.008 1.164-.015 1.18zm10.289-.351c-.25.039-.672.132-.938.218a6.36 6.36 0 01-.53.156c-.024 0-.04-.539-.04-1.187V8.555l.977.976.976.977-.445.055zm-11.469 1.359c.578.14 1.438.555 1.953.953l.39.297.024.515.024.516-.75-.039c-.703-.047-.758-.039-.938.133a.584.584 0 00-.195.476c0 .407.273.618.812.625.696.008 1.024.094 1.047.274.047.312-1.21.734-2.5.851-.523.047-.633.079-.765.25-.086.11-.157.274-.157.368 0 .218.204.507.422.586.344.132 2.11-.125 2.883-.422.117-.047.133.008.133.539v.593l-.477.352c-.992.727-1.96 1.055-3.125 1.055-1.093 0-1.617-.164-2.195-.688-.68-.617-.922-1.476-.922-3.343 0-1.422.063-1.883.36-2.54.585-1.296 2.085-1.804 3.976-1.351zm12.992-.125c1.328.172 2.078.86 2.399 2.203.164.695.156 2.844-.008 3.64-.164.797-.164.93.047 1.157.351.367.906.156 1.078-.414.047-.164.133-.57.18-.906l.085-.602h3.688c2.18 0 3.727.031 3.797.078.101.063.117.485.117 3.047 0 2.563-.016 2.984-.117 3.047-.07.047-2.602.078-6.461.078h-6.352v-2.023h.883c1.04 0 1.914-.172 2.203-.446.242-.226.25-.562.032-.843-.188-.235-.383-.25-1.008-.086-.563.148-1.766.148-2.36-.008a6.003 6.003 0 01-1.937-.938l-.469-.343v-1.25h.781c.68 0 .805-.024.938-.157.234-.234.234-.648-.008-.898-.125-.133-.289-.164-.953-.195l-.797-.047.742-.36c.735-.36 1.336-.531 1.828-.531.141 0 .368-.04.5-.086.446-.156.516-.805.118-1.062-.36-.243-1.86.007-3.047.492-.078.031-.102-.102-.102-.54v-.593l.336-.266c.695-.57 1.695-1.008 2.594-1.14.633-.094.625-.094 1.273-.008zm-6.054.344c.14.054.328.203.406.328.148.219.156.383.156 3.32 0 3.344 0 3.36-.422 3.64-.172.118-.39.141-1.492.141-1.102 0-1.32-.023-1.492-.14-.422-.282-.422-.297-.422-3.64 0-2.938.008-3.102.156-3.321a.991.991 0 01.39-.328c.329-.149 2.376-.149 2.72 0zM8.828 15.508c0 .062-.055.117-.125.117-.11 0-.11-.023-.031-.117.055-.063.11-.117.125-.117s.031.054.031.117zm22.5 0c.078.094.078.117-.031.117-.07 0-.125-.055-.125-.117 0-.063.015-.117.031-.117s.07.054.125.117zm-22.43 2.008c.243 1.554.961 2.617 2.149 3.18.648.304 1.219.413 2.234.406h.86v2.023h-.75c-.407 0-.813.031-.891.078-.219.117-.336.524-.21.766.148.312.413.406 1.17.406h.68v2.078c0 2.008.008 2.094.172 2.39.204.36.711.688 1.063.688h.25v1.914l-3.516-3.515-3.515-3.516.969-.039c1.046-.04 1.226-.117 1.328-.516.054-.218-.125-.617-.305-.687-.07-.024-2.156-.047-4.633-.047-2.703 0-4.555-.031-4.625-.078-.101-.063-.117-.485-.117-3.047 0-2.563.016-2.984.117-3.047.07-.047 1.617-.078 3.797-.078h3.68l.093.64zm8.454 2.586c.117.14.367.343.57.445l.36.195-.016 2.969-.024 2.969-1.367.797c-.75.445-1.39.804-1.422.804-.031 0-.062-1.695-.062-3.773v-3.774l.414-.172c.226-.093.586-.289.797-.437.218-.148.43-.273.468-.273.047-.008.172.109.282.25zm6.085.046c.266.172.633.368.829.446l.343.133V24.5c0 2.078-.03 3.781-.062 3.781-.031 0-.672-.36-1.422-.804l-1.367-.797-.024-2.97-.015-2.968.36-.195c.202-.102.452-.305.57-.445.109-.141.226-.258.257-.258.032 0 .274.14.532.304zm-2.968 1.844v1.133h-.938v-2.266h.938v1.133zm-11.04 8.57l6.196 6.196v.742h-1.914l-5.602-5.602L2.5 26.29v-1.914h.742l6.188 6.188zm1.766-1.75l4.438 4.438-.024.836-.023.836-5.274-5.274-5.273-5.273h1.719l4.437 4.438zm9.274-3.195c0 .695.039 1.344.086 1.469.14.367.445.625 1.53 1.25l1.04.61v4.804c0 2.89-.031 4.852-.078 4.922-.063.101-.485.117-3.047.117-2.563 0-2.984-.016-3.047-.117-.047-.07-.078-2.031-.078-4.922v-4.805l1.04-.61c1.085-.624 1.39-.882 1.53-1.25.047-.124.086-.773.086-1.468v-1.242h.938v1.242zm10.937-1.219c0 .008-1.578 1.602-3.515 3.532l-3.516 3.515v-1.914h.242c.36 0 .844-.304 1.055-.672.187-.312.187-.343.187-2.398v-2.086h2.774c1.523 0 2.773.008 2.773.023zm-1.718 5.25l-5.274 5.274-.023-.836-.024-.836 4.438-4.438 4.437-4.437h1.719l-5.273 5.273zm7.812-4.32v.961l-5.602 5.602L26.29 37.5h-1.914v-.742l6.188-6.188 6.195-6.195h.742v.953zM11.04 37.484l-.837.024-3.851-3.852L2.5 29.805v-1.72l4.688 4.688 4.687 4.688-.836.023zm22.616-3.836L29.805 37.5h-1.72l4.688-4.688 4.688-4.687.023.836.024.836-3.852 3.851zM5.54 37.484c-2.023.016-2.86-.007-2.93-.07-.086-.07-.109-.625-.109-2.953V31.6l2.93 2.93 2.93 2.93-2.82.023zm31.875-.093c-.07.086-.625.109-2.953.109H31.6l2.93-2.93 2.93-2.93.023 2.82c.016 2.024-.007 2.86-.07 2.93z" fill="#1F1F1F"/></g><defs><clipPath id="clip0_0_891"><path fill="#fff" d="M0 0h40v40H0z"/></clipPath></defs></svg>