<svg width="48" height="48" fill="none" xmlns="http://www.w3.org/2000/svg"><path d="M27.29 5.775c-.14.188-.196.384-.196.75v.506h-.45c-.535 0-.769.188-.769.638 0 .31.272.581.581.581.131 0 .169.075.169.347v.337l-6.066-.065c-3.347-.028-7.922-.085-10.172-.122C6.3 8.69 6.281 8.69 6.281 8.494c0-.385-.422-.928-1.022-1.35-.637-.431-.956-.469-1.2-.14-.272.355-.15.665.432 1.115.309.234.58.515.609.628.028.112.056.572.056 1.022v.825H4.031c-1.106 0-1.125 0-1.425.272l-.31.271-.027 9.629c-.01 6.6.01 9.74.075 9.993.056.216.262.535.46.732.28.28.43.562.665 1.284.169.516.365 1.05.44 1.19.16.32.647.629.994.629h.253v1.819c0 2.025.01 2.062.628 2.006.544-.047.591-.216.591-2.166 0-1.66 0-1.66.216-1.66.3 0 .796-.337.984-.656.131-.224.225-.28.487-.28.226 0 .366.056.45.187.15.243.779.262.966.028.178-.206.178-1.35 0-1.556-.16-.197-.787-.207-.947-.02-.122.15-.375.198-.375.066 0-.13.14-.253.478-.421.188-.104.394-.282.45-.403.066-.16.104-1.238.104-3.3 0-3 .009-3.085.206-3.488.272-.525.703-.816 1.322-.89 1.012-.113 5.578-.235 8.746-.235 3.647 0 3.844.028 4.425.59.591.563.685.882.779 2.541.037.835.075 3.947.084 6.919v5.419H13.36c-12.385 0-11.785-.028-12.029.515-.065.141-.112.675-.112 1.275 0 1.022 0 1.041.272 1.313l.271.272H39.77l.272-.272c.272-.272.272-.281.272-1.416 0-1.134 0-1.143-.272-1.415-.16-.16-.375-.272-.516-.272h-.244V25.565L40.5 27.31c.928 1.332 1.219 1.828 1.219 2.044 0 .422.347.966.75 1.2.722.403 1.584.197 2.1-.487.197-.263.197-.357.225-5.841l.019-5.569h.506c.853 0 1.462-.6 1.462-1.453 0-.844-.61-1.453-1.453-1.453h-.487l-.047-.469a1.56 1.56 0 00-2.325-1.21c-.413.235-.75.779-.75 1.21 0 .244-.216.544-1.285 1.79l-1.275 1.5-.384-.777c-.91-1.857-2.147-3.094-3.834-3.872-1.341-.61-2.41-.74-4.725-.572-.75.047-1.06.037-1.06-.028 0-.066.263-.103.703-.103.628 0 .741-.028.938-.235.131-.121.234-.3.234-.393 0-.263-.272-.591-.478-.591-.169 0-.178-.084-.178-1.866 0-1.8.01-1.875.188-1.93.29-.095.487-.45.412-.742-.075-.3-.29-.43-.731-.43h-.338V6.47c0-.863-.122-.938-1.397-.938-.993 0-1.03.01-1.218.244zm1.398 1.116c0 .075-.085.14-.188.14s-.188-.065-.188-.14c0-.075.085-.141.188-.141s.188.066.188.14zm.468 3.234V12h-1.312V8.25h1.312v1.875zm-8.034-.028l5.503.056v.928c0 .91 0 .919-.225.919-.469 0-.694.581-.394.994.113.15.272.187 1.032.206.693.028.9.066.9.169 0 .075-.075.131-.16.131-.094 0-.778.047-1.528.094-6.45.412-10.19.3-15-.431-1.622-.254-1.819-.432-2.11-1.941-.093-.478-.506-.628-1.753-.628H6.282v-.685l4.669.057c2.56.037 7.134.093 10.172.13zm-13.05 2.11c.225.834.694 1.443 1.397 1.809.562.29 4.622.825 7.575.984 2.447.14 7.697-.047 13.79-.469 1.435-.103 2.241-.019 3.17.328 1.874.704 3.402 2.4 4.04 4.472.365 1.19.422 2.035.244 3.6-.141 1.19-.17 2.494-.197 8.785l-.038 7.387-2.503-.028-2.503-.028-.525-.263c-.713-.346-1.36-.928-1.631-1.48-.422-.817-.263-2.42.29-3.076.497-.59 1.556-.581 1.913.019.225.365.234.553.047.91-.15.29-.572.562-.872.562-.253 0-.469.197-.535.487-.056.197-.009.31.188.506.225.225.3.244.675.188 1.594-.216 2.41-2.053 1.5-3.403-.431-.638-1.013-.91-1.96-.91h-.73l.159-.234c.515-.787 1.068-1.828 1.256-2.353.3-.853.31-2.587.01-3.778-.245-.994-.245-.91-.038-.91.084 0 .422-.121.74-.271 2.147-1.013 3.01-3.535 1.95-5.691-.853-1.744-2.85-2.644-4.762-2.147-.778.197-1.247.469-1.847 1.04-.637.61-.975 1.2-1.181 2.063-.506 2.185.834 4.425 2.981 4.978l.647.17.178.571c.272.9.413 1.978.328 2.7l-.066.637-.215-.45c-.413-.88-1.238-1.378-2.297-1.378-1.275 0-2.156.863-2.156 2.11 0 .534.253 1.2.59 1.556.272.29.844.581 1.144.581.3 0 .61-.31.61-.61 0-.252-.291-.608-.497-.608-.225 0-.553-.441-.6-.816-.038-.3 0-.422.197-.656.637-.75 1.912-.216 2.08.871.095.657-.102 1.557-.571 2.57-.525 1.134-.731 1.977-.731 3.093-.01 1.313.328 2.288 1.078 3.14l.281.329h-4.706v-5.419c-.01-6.431-.085-8.362-.375-9.14-.282-.741-.957-1.463-1.707-1.81l-.59-.272-4.875.01c-2.681.009-5.672.056-6.656.112-1.594.103-1.829.14-2.27.347a2.813 2.813 0 00-1.284 1.35c-.178.384-.196.637-.224 2.278l-.038 1.856H3.469V11.812h4.49l.113.394zm35.419 3.018c.075.084.093 2.034.084 7.134-.028 6.338-.047 7.022-.178 7.107a.402.402 0 01-.31.037c-.14-.056-.15-.675-.15-7.172 0-3.91.029-7.143.066-7.172.103-.112.375-.075.488.066zm1.93 1.781c.263.197.113.431-.28.431-.3 0-.328-.018-.328-.28 0-.235.037-.282.215-.282.122 0 .3.056.394.131zm-3.702 2.4v1.875h-1.022c-1.153 0-1.106.038-1.144-.768-.028-.441-.019-.46 1.05-1.707.581-.703 1.078-1.275 1.097-1.275.01 0 .019.844.019 1.875zm-8.672-.815c1.19.6 1.884 1.94 1.631 3.15-.14.693-.356 1.106-.834 1.575-.553.553-1.135.815-1.922.853-1.247.065-2.231-.516-2.785-1.65-.262-.525-.309-.722-.309-1.285 0-1.322.844-2.428 2.203-2.868.46-.15 1.519-.038 2.016.225zm8.672 6.084c0 1.2-.038 2.137-.075 2.081-.085-.093-1.988-2.812-2.119-3.018-.038-.066-.047-.375-.01-.685l.066-.553h2.138v2.175zm-33.75 5.56v.609H5.953c-2.025 0-2.025 0-2.25-.235-.169-.168-.234-.328-.234-.609v-.375h4.5v.61zM6.937 32.08c0 .019-.103.3-.224.638l-.226.61-.75.027-.75.028-.196-.59a5.18 5.18 0 01-.197-.656c0-.038.525-.075 1.172-.075.646 0 1.171.009 1.171.018zm32.157 8.7v.469H2.438v-.937h36.656v.468z" fill="#1F1F1F"/><path d="M9 16.781c-.178.178-.188.31-.188 1.866 0 1.547.02 1.687.197 1.922l.188.244h15.656l.234-.235.235-.234-.028-1.744c-.028-1.594-.047-1.753-.207-1.875-.159-.113-1.406-.131-8.043-.131-7.735 0-7.857 0-8.044.187zm15.094 1.922v.89H10.032v-1.78h14.061v.89zm6.909.366a2.24 2.24 0 00-1.472 2.11c0 2.08 2.494 3.037 3.882 1.5 1.546-1.726-.225-4.388-2.41-3.61zm1.256 1.247c.347.206.582.703.507 1.059-.113.525-.713.928-1.2.806-.891-.215-1.078-1.378-.31-1.847.357-.215.647-.225 1.003-.018z" fill="#1F1F1F"/></svg>