<svg width="46" height="46" fill="none" xmlns="http://www.w3.org/2000/svg"><path d="M1.752 1.854c-.62.324-.88.755-.88 1.474 0 1.024.574 1.581 1.742 1.68l.62.054v9.946h-.332c-.53 0-.988.161-1.339.467-.449.395-.602.746-.602 1.374 0 .63.153.98.602 1.375.35.305.809.467 1.339.467h.332v8.159l-.62.036c-.494.027-.673.08-.925.27-.844.646-.844 2.012 0 2.659.252.189.431.242.925.27l.62.035v7.26h-.8c-.655 0-.835.027-1.005.17-.207.162-.216.216-.216 1.384 0 1.07.018 1.23.17 1.401l.171.19H23.18c20.834 0 21.634-.01 21.769-.163.126-.134.153-.377.153-1.437 0-1.572.018-1.545-1.276-1.545h-.88V30.1h.52c.98 0 1.636-.638 1.636-1.599 0-.988-.54-1.563-1.546-1.617l-.61-.036v-8.129l.43-.046c.585-.054 1.07-.314 1.402-.727.234-.288.279-.44.306-.953.026-.485 0-.683-.153-.98a1.8 1.8 0 00-1.132-.907c-.252-.072-3.019-.098-8.94-.098h-8.58l-1.518-5.463c-.836-3-1.608-5.66-1.716-5.92-.279-.63-.827-1.196-1.5-1.564l-.567-.305-9.478-.027c-8.472-.018-9.505 0-9.748.125zm19.1 1.177c.225.117.513.324.648.459l.251.26-6.217.054c-10.476.108-13.036.09-13.27-.08-.287-.198-.243-.657.072-.818.18-.09 2.057-.117 9.164-.1l8.94.028.413.197zm2.768 6.82a582.172 582.172 0 001.42 5.03c.035.109-.126.127-.953.127h-.997v-1.375c0-.746-.036-1.617-.081-1.923a3.52 3.52 0 00-1.94-2.686c-.495-.234-.62-.26-1.483-.26-.89 0-.988.017-1.545.296-.746.368-1.42 1.07-1.698 1.797-.19.458-.207.7-.243 2.327l-.036 1.824h-3.567l-.027-1.824c-.027-1.635-.054-1.869-.242-2.327-.279-.728-.953-1.438-1.698-1.797-.557-.279-.656-.297-1.546-.297-.862 0-.988.027-1.482.261a3.742 3.742 0 00-1.626 1.626c-.26.54-.26.548-.288 2.444l-.027 1.914H4.402V5.035l1.555-.027c.844-.009 4.86-.036 8.921-.045l7.367-.018 1.375 4.906zm-13.9.143c.45.135 1.096.701 1.357 1.186.18.333.197.521.224 2.094l.036 1.734h-4.6v-1.69c0-1.572.018-1.707.216-2.129.476-1.033 1.644-1.536 2.767-1.195zm10.808.108c.548.26.872.593 1.141 1.177.18.404.207.629.234 2.084l.036 1.645h-4.708l.036-1.734c.027-1.573.045-1.761.225-2.094.242-.458.907-1.05 1.302-1.177.54-.17 1.25-.134 1.734.1zM43.7 16.364a.606.606 0 010 .97l-.243.19H2.614l-.242-.207c-.324-.279-.324-.656 0-.935l.242-.207h40.843l.243.19zm-16.621 5.858c.539 1.932 1.051 3.773 1.14 4.079l.163.566h-4.475l-.026-1.914c-.027-1.869-.027-1.913-.279-2.453-.323-.691-1.015-1.383-1.725-1.715-.476-.225-.638-.252-1.438-.252-.835 0-.943.018-1.491.287a3.702 3.702 0 00-1.68 1.716c-.234.495-.243.566-.27 2.417l-.036 1.914h-3.575v-1.572c0-1.69-.081-2.282-.414-2.938-1.105-2.201-4.267-2.525-5.786-.593-.646.808-.745 1.222-.79 3.28l-.036 1.823H4.402V18.69H26.1l.979 3.531zm14.698.557v4.088h-2.875v-1.572c0-2.085-.143-2.705-.826-3.576-.827-1.051-2.435-1.492-3.774-1.042-1.042.35-1.752 1.024-2.147 2.04-.18.457-.207.718-.242 2.326l-.036 1.824h-2.273l-1.114-3.98c-.611-2.183-1.133-4.025-1.15-4.088-.037-.08 1.446-.108 7.196-.108h7.241v4.088zm-30.78-.817c.216.125.521.386.683.566.449.548.539 1.024.539 2.785v1.554h-4.69l.036-1.734c.045-1.85.09-2.084.566-2.65a2.8 2.8 0 011.105-.746c.45-.144 1.32-.036 1.76.225zm10.422-.081c.413.197.88.646 1.105 1.06.135.242.17.575.188 2.102l.027 1.824h-4.59v-1.69c0-1.58.017-1.706.215-2.128.422-.899 1.249-1.42 2.165-1.366.297.018.701.108.89.198zm15.094.08c.215.126.52.387.682.567.45.548.54 1.024.54 2.785v1.554h-4.692l.037-1.734c.044-1.85.09-2.084.566-2.65.26-.306.727-.62 1.105-.746.449-.144 1.32-.036 1.76.225zm7.151 6.1c.252.127.35.53.17.747-.161.188-41.327.188-41.49 0-.179-.216-.08-.62.172-.746.332-.17 40.816-.17 41.148 0zm-14.339 2.193c.207.7 1.94 6.972 1.94 7.035 0 .054-.43.09-1.024.09h-1.033l-.027-1.87-.027-1.859-.287-.602c-1.258-2.668-5.05-2.66-6.298 0-.234.494-.243.575-.27 2.417l-.027 1.914h-1.5l-.036-1.87-.027-1.859-.287-.602c-1.258-2.668-5.05-2.66-6.299 0-.233.494-.242.575-.27 2.417l-.026 1.914h-1.5l-.036-1.87c-.027-1.805-.036-1.877-.27-2.38-.314-.674-1.015-1.401-1.662-1.734-.485-.242-.593-.26-1.51-.26-.88 0-1.042.026-1.5.242-.665.306-1.365 1.006-1.67 1.671-.234.494-.243.566-.27 2.417l-.027 1.914h-.98V30.1h12.435c11.77 0 12.443.01 12.488.153zm12.452 3.486v3.639h-1.509l-.036-1.87-.027-1.859-.278-.584c-1.267-2.677-5.059-2.686-6.307-.018-.234.494-.243.566-.27 2.417l-.027 1.914h-.404c-.216 0-.396-.018-.396-.036s-.44-1.626-.988-3.567c-.539-1.95-.988-3.567-.988-3.603 0-.045 2.524-.072 5.615-.072h5.615v3.639zm-23.413-1.23c.234.125.548.377.692.547.45.548.53.953.53 2.722v1.6h-4.582v-1.69c0-1.58.018-1.706.216-2.129.188-.404.422-.683.889-1.033.27-.206.98-.36 1.41-.305.225.027.603.161.845.287zm8.445 0c.234.125.548.377.692.547.45.548.53.953.53 2.722v1.6H23.45v-1.69c0-1.58.018-1.706.216-2.129.189-.404.422-.683.89-1.033.269-.206.979-.36 1.41-.305.224.027.602.161.844.287zm11.051 0c.234.125.548.377.692.547.45.548.53.953.53 2.722v1.6H34.5v-1.654c0-1.733.054-2.048.422-2.542.71-.961 1.896-1.24 2.938-.674zm-28.184-.118c.566.234.899.557 1.186 1.132l.279.557v3.298H6.559v-1.69c0-1.841.08-2.174.61-2.749.576-.61 1.744-.862 2.507-.548zm34.347 6.604v.45H2.336v-.9h41.687v.45z" fill="#1F1F1F"/><path d="M5.21 5.799a.768.768 0 00-.116.404c0 .476.144.548 1.051.521.782-.027.818-.036.953-.278.116-.216.116-.27 0-.495-.135-.233-.171-.242-.953-.27-.656-.017-.844 0-.934.118zm2.48.062c-.188.261-.18.459.019.692.152.189.197.189 2.578.171l2.426-.027.117-.252c.098-.197.098-.287 0-.494l-.117-.242-2.444-.027c-2.435-.018-2.444-.018-2.578.18z" fill="#1F1F1F"/></svg>