<svg width="43" height="43" fill="none" xmlns="http://www.w3.org/2000/svg"><path d="M20.215 3.646c-2.906 1.193-5.333 2.218-5.4 2.268-.1.092-.118 1.058-.118 6.71 0 3.629.034 6.644.068 6.702.083.135-.06.084 5.568 2.2 2.712 1.025 5.03 1.857 5.156 1.857.26 0 10.843-4.157 11.07-4.35.134-.118.142-.538.142-6.568 0-6.03-.008-6.45-.143-6.568-.252-.21-10.556-4.434-10.817-4.434-.143 0-2.628.983-5.526 2.183zm5.014 1.697c.025 1.403.059 3.972.076 5.71l.016 3.175-.378.16c-.436.185-8.684 3.603-8.97 3.712l-.184.076.017-5.761.025-5.762 4.62-1.915c2.544-1.05 4.643-1.915 4.669-1.923.033-.008.084 1.134.109 2.528zm5.72-.622l4.618 1.915.026 5.56c.008 3.057-.009 5.56-.05 5.56-.034 0-2.084-.79-4.553-1.755l-4.493-1.756-.059-.529c-.042-.47-.16-10.91-.117-10.91.008 0 2.09.866 4.627 1.915zm-.614 12.212c2.839 1.108 4.3 1.721 4.2 1.755-.076.034-2.15.857-4.595 1.823l-4.46 1.772-4.3-1.621c-2.36-.89-4.316-1.638-4.341-1.663-.05-.042 8.835-3.746 9.02-3.754.067-.009 2.083.756 4.476 1.688z" fill="#1F1F1F"/><path d="M22.474 6.326c-.596.226-1.108.462-1.15.52-.118.185-.084.555.058.697.202.21.53.16 1.563-.21 1.209-.428 1.326-.503 1.326-.865 0-.319-.218-.554-.512-.554-.109 0-.689.185-1.285.412zm-4.216 1.671c-.563.218-1.083.445-1.159.512-.268.227-.126.79.235.882.236.059 2.251-.63 2.512-.857.21-.184.184-.646-.043-.806-.268-.193-.411-.168-1.545.269zm4.888.303c-.546.21-.663.352-.621.747.016.193.084.294.252.378.193.092.302.075.755-.076.294-.1.597-.235.68-.31.32-.278.051-.95-.377-.933-.11 0-.412.092-.689.193zm-4.333 1.637c-1.453.537-1.739.672-1.848.865-.11.21-.11.26 0 .462.218.395.52.353 2.427-.353.95-.344 1.789-.697 1.873-.773.193-.176.193-.546 0-.722-.26-.235-.655-.151-2.453.52zm3.124.84c-.975.36-1.856.722-1.949.806-.327.302-.109.882.336.882.294 0 3.679-1.226 3.889-1.411.302-.26.058-.95-.336-.94-.084.008-.958.302-1.94.663zm-4.048 1.537c-.605.226-.756.37-.756.705 0 .21.059.32.21.42.201.134.252.134.73-.008.639-.202.907-.403.907-.706 0-.529-.403-.68-1.091-.411zm15.176-4.72l-.227.176v3.444c0 3.325.008 3.443.168 3.602a.62.62 0 00.378.168.62.62 0 00.378-.168c.16-.16.168-.277.168-3.594 0-2.612-.026-3.46-.101-3.57-.185-.226-.512-.26-.764-.058zM29.882 25.7c-.219.068-1.059.48-1.873.925l-1.478.806-2.075-.034c-2.326-.042-2.326-.042-3.922-.772-1.31-.597-1.973-.748-3.36-.748-2.174-.008-3.636.563-5.383 2.1-.89.78-1.26 1.041-1.721 1.234l-.303.126-.319-1.066c-.176-.588-.37-1.134-.445-1.218-.117-.134-.403-.143-3.712-.143-4.014 0-3.914-.017-3.888.563 0 .176.26 2.393.57 4.938.538 4.485.563 4.628.765 4.804.269.244.386.244.672-.008l.235-.194-.53-4.358a304.759 304.759 0 00-.562-4.51c-.042-.135.135-.143 2.814-.143 1.579 0 2.863.017 2.863.042 0 .042 3.897 12.841 4.074 13.37l.117.361H4.216l-.059-.487c-.067-.57-.218-.772-.596-.772-.21 0-.32.058-.42.21-.118.176-.118.294-.034.982.06.462.152.84.236.924.117.143.47.151 5.097.151 4.712 0 4.98-.008 5.107-.151a.522.522 0 00.143-.32c0-.083-.244-.948-.538-1.906l-.537-1.755.68-.437c2.486-1.595 2.889-1.822 3.3-1.864.311-.034 1.327.126 4.107.638 4.023.756 5.006.857 6.274.672.831-.117 2.057-.504 2.587-.806.201-.118 2.99-2.007 6.18-4.2 4.41-3.031 5.83-4.047 5.863-4.199.11-.436-.605-1.276-1.445-1.688-.436-.218-.562-.235-1.402-.235-.781 0-.991.034-1.327.185l-.412.193-.26-.252a3.676 3.676 0 00-.73-.487c-.395-.193-.572-.227-1.185-.227-.58 0-.798.042-1.142.194l-.42.201-.412-.252a4.192 4.192 0 00-.864-.386c-.563-.168-1.596-.168-2.125 0zm2.015 1.135l.277.117-1.058.571-1.058.571-.512-.252c-.286-.142-.563-.26-.63-.26-.218 0-.1-.126.336-.37.823-.461 1.15-.554 1.78-.529.328.017.714.084.865.152zm-12.958.37c.277.075.898.318 1.385.545 1.512.689 1.487.689 5.04.747l3.149.05.529.286c.294.16.663.446.823.639.294.36.672 1.117.588 1.192-.025.025-.958.009-2.083-.033-2.1-.084-4.25-.017-4.745.15-.302.102-.42.345-.328.706.076.303.336.37 1.017.278.755-.101 3.451-.101 5.375.008 1.402.075 1.528.075 1.721-.067a.611.611 0 00.235-.395c.026-.227.227-.353 3.234-1.965 3.191-1.714 3.208-1.722 3.796-1.747.52-.025.647 0 1.05.21.252.134.462.285.462.344 0 .05-2.512 1.823-5.585 3.93-5.291 3.637-5.627 3.855-6.383 4.116-1.831.638-2.52.605-7.39-.302-3.99-.748-4.368-.782-5.158-.437-.218.1-1.066.605-1.872 1.117-.807.512-1.487.907-1.52.882-.026-.026-.53-1.63-1.117-3.553l-1.067-3.51.445-.177c.563-.235 1.008-.537 1.806-1.251 1.125-1.008 2.15-1.562 3.401-1.84.747-.168 2.46-.125 3.192.076zm16.679.016c.226.117.403.227.395.244a481.09 481.09 0 01-4.317 2.326l-.26.134-.27-.512c-.15-.277-.26-.512-.243-.52.025-.018 2.41-1.294 3.217-1.723.462-.243.974-.226 1.478.05z" fill="#1F1F1F"/><path d="M3.712 28.892c-.143.101-.185.21-.185.52.009.438.118 1.009.227 1.118.185.176.512.168.74-.034l.234-.193-.092-.63c-.126-.84-.454-1.117-.924-.78zm.378 3.125c-.193.218-.185.319.227 3.157.26 1.747.411 2.545.504 2.637.15.16.58.168.756.017.193-.151.176-.445-.219-3.191-.378-2.663-.411-2.772-.89-2.772a.571.571 0 00-.378.152z" fill="#1F1F1F"/></svg>