<svg width="22" height="48" fill="none" xmlns="http://www.w3.org/2000/svg"><path fill-rule="evenodd" clip-rule="evenodd" d="M5.328 21.028c.047.094.362.123.362.437s-.165 1.297.106.937c.272-.36 1.691-2.327 1.798-2.467.105-.14.136-.14.12-.483-.015-.345.016-1.594-.091-1.642 0 0-.136-.249-.317-.092-.182.154-.65.514-.815.889-.167.375-.258.782-.455.782-.194 0-.24.045-.24.25 0 .202-.06.296-.213.326-.15.032-.346.048-.208.218.133.173.24.282.103.392-.135.11-.195.359-.15.453zM8.04.788h.053c.228.014.44.216.578.46.274.474.545-.247.545-.247.22.194.136.44-.016.58-.154.14-.103.23.102.14a.473.473 0 01.39.019c-.56.142-.256.668 0 .598.256-.07.186-.388.186-.388.34.02.393.283.307.615-.084.335.137.494.221.282.086-.21.324-.157.324-.157-.256.456.318.689.234.389-.086-.299.242-.337.242-.337-.069.141.12.35.39.299.272-.053 1.158.35 1.496.58.342.23.238-.44.238-.44-.287-1.072.221-.967.221-.967.137-.492.375-.351.375-.351-.17.37.272.193.272.193 1.02-.376 1.121-.223 1.117-.106-.005.12-.2.352.072.264.272-.086.242.154.206.213-.045.068-.17.087.084.087.255 0 .169.422-.17.44-.34.017-.152.192-.152.192.577-.158.662.018.662.018-.528.036-.645.616-.645.616.355-.281.763-.141.763-.141-.118 0-.357.281-.408.405-.05.122 0 .227.137.193.137-.035.442-.334.442-.334s-.034.457-.289.685c-.254.229-.188.687-.135.774.05.088.185.122.236-.193.053-.318.426-.3.426-.3-.153.054-.119.51-.119.51.17 0 .27.176.27.176-.253-.034-.338.335-.133.37.203.035.168.44.168.44.596-.035.648.792.648.792.153 0 .153.493.153.493.392.016.289.984.289.984.442-.07.289 1.53.289 1.53.525.217 1.542 1.28 1.61 1.564.07.287-.275.357-.689.287-.412-.072-.998-.214-1.964-.607-.963-.391-.584-.034-.963 0-.38.036-.311.108-.173.498.137.394-.206.394-.551.287-.345-.108-.104.141-.034.498.069.357-.103.32-.38.499-.275.179.208.356.516.605.31.25.106.642.484.856.379.214.55.818 1.068 1.318.516.498.033.926-.173 1.14-.206.213-.035.248.483.569.516.32-.035.926-.035.926.137-.464-.171-.464-.55-.534-.38-.071-.207-.035-.346.285-.136.321-.207.749-.241 1.354-.035.606-.104.891.173 1.14.275.25.035.749.171.855.139.107.174.07.277.322.102.247 0 .142.274.213.277.07.312.176.449.533.138.357.448.357.793.464.344.107-.189 1.05.039 1.214.25.179 1.052.265 1.467.353.378.08.509-.035.603.087.09.116.025.189-.33.346-.231.102-.032.14.305.261 1.11.403 1.538.59 1.605.875.068.285-1.15-.128-1.506.014-.357.14-.516-.136-1.417-.171-.9-.037-1.237-.402-1.51-.577-.272-.177-.44.263-.68.456-.238.194-.647-.193-1.14-.369-.491-.176.034.51.493 1.09.46.581.88 1.12 1.237 1.418.331.28.703.763 1.383 1.184.68.423.238.564-.256.88-.492.316-.289.492-.05.669.237.175.068.334-.171.44-.238.104-.39.28-.679.509-.29.227-.238.089-.546-.123-.304-.21-.169.07-.12.387.054.315-.014.263-.237.263-.22 0-.27-.053-.475-.284-.204-.225-.255-.085-.306.161-.051.246-.12.123-.424.088-.307-.035-.018.159.152.616.17.457.8 1.617 1.276 2.426.475.81-.324.792-1.175.915-.85.123-.933-.159-1.513-.369-.578-.212-.44.14-.39.439.05.298-1.089.123-1.428.123-.34 0-.306.123-.34.334-.033.21-.068.58-.051 1.619.018 1.035.221 1.277.358 1.65.146.405.186 1.461.236 2.322.053.863.306 1.494.46 1.74.152.247.205.177.186.442-.016.263.205.438.187.614-.017.176.053.194.188.282.135.088.102.176.153.474.052.297.204.335.407.439.206.106.155.229.085.422-.067.195.103.177.103.564 0 .386-.578.332-1.174.316-.595-.017-.473-.017-.831-.281-.358-.263-.206-.212-.221-.529-.017-.315 0-.28-.188-.51-.187-.227.085-.262.153-.49.07-.23.018-.283-.084-.511-.102-.229-.07-.176-.07-.599 0-.42-.008-.403-.484-1.231-.477-.826-.41-1.046-.688-1.668-.286-.639-.681-1.46-.816-2.094-.136-.634-.459.299-.8 1.108-.339.81-.339 1.408-.339 1.863 0 .458.101.722.357.773.254.053.24.389.51.776.273.385.407.422.68.491.273.07.136.3.324.441.185.14.476.334.78.386.308.053.222.28.239.473.02.196-.101.213-.357.23-.256.018-.733.037-1.207.018-.477-.019-.612-.105-.73-.21a36.21 36.21 0 01-1.04-.968c-.186-.194-.27.105-.459.281-.185.176-.22.158-.508-.017-.29-.176-.443-.369-.461-.58-.015-.213 0-.616.018-.88a1.18 1.18 0 01.29-.686c.153-.176.288-.474.39-.931.103-.458 0-3.428 0-3.956 0-.529.409-1.178.493-1.477.084-.3-.017-.14-.187-.282-.17-.14-.187-.105-.203-.352-.018-.246-.035-.21-.274-.35-.237-.14.477-.177.733-.3.254-.124-.834-.229-1.02-.352-.189-.122-.137-.405-.137-.827 0-.42-.052-.352-.323-.367-.27-.019-.357.402-.493.667-.135.264-.426.176-.715-.106s-.049-.546-.084-.949c-.034-.406-.34-.054-.51.123-.17.174-.155.3-.51.3-.358 0-.103-.249-.12-.652-.016-.404-.356.159-.356.159S.511 42.237.443 42.41c-.067.176-.223.351-.358.3-.136-.052-.068-.439-.068-.439s3.282-8.194 3.333-8.353c.05-.157.05-.228-.034-.439-.085-.211-.119-.211-.34-.229-.222-.018-.187 0-.34-.192-.153-.195-.255-.108-.545-.072-.288.036-.135-.244-.068-.632.068-.387-.322-.019-.68-.019-.357 0-.085-.281-.187-.65-.1-.369.12-.352.342-.386.22-.037.305-.142.356-.37.05-.229-.12-.193-.425-.246-.306-.053-.187-.123-.187-.422 0-.3-.086-.387-.39-.439-.306-.054-.19-.16-.052-.318.136-.156.475-.632.713-.966.24-.334.493-.984.63-1.248.137-.265.46-.211.798-.28.34-.072.29-.548.358-.635.07-.088.084-.246-.085-.44-.17-.193-.085-.246.017-.403.101-.16.068-.23-.085-.352-.154-.122-.136-.053-.17-.283-.035-.227-.05-.104-.271-.192-.222-.089-.103-.352-.103-.791 0-.44-.288-1.002-.68-1.424-.391-.422.545-.826.8-.95.254-.124.085-.317.135-.79.053-.477.053-.51.053-.722 0-.21.1-.245.203-.387.1-.14.152-.193.168-.545.018-.352.41-.616.649-.896.236-.282.424-.475.457-.774.035-.298.238-.282.494-.582.254-.297.39-.596.475-.878.086-.281.103-.368.273-.509.17-.141.29-.228.34-.44.05-.21.1-.334.272-.457.17-.123.527-.845.646-1.197.118-.352.56-.421.85-.439.289-.017.153-.123.221-.44.068-.316.375-.475.595-.684.22-.21.307-.248.614-.248.303 0 .203.036.305-.157.102-.194.102-.23.375-.265.27-.034.135-.264.168-.544.035-.282.102-.21.238-.299.137-.09.12-.106.084-.334-.033-.23.07-.107.24-.212.168-.105.084-.105.069-.387-.018-.282.305-.316.323-.51.016-.194-.409-.527-.647-.827-.237-.298-.595-.896-.833-1.232-.238-.333-.562.072-.595.247-.034.175.152.492.152.492-.289-.034-.475-.561-.629-.739-.153-.174-.289.09-.119.23.169.14.05.597.05.597s-.066-.21-.423-.456c-.358-.248-.426.194-.272.229.151.035.186.387.186.387-.715-.196-.731.387-.544.387.188 0 .323.227.358.368.033.141.237.37.237.37-.204.018-.493-.282-.68-.3-.186-.017-.17.211-.034.23.137.016.408.175.408.37 0 .193.186.475.186.475s-.27-.142-.457-.475c-.189-.335-.408-.036-.273.053a.652.652 0 01.255.526c-.017.195.05.511.05.511s-.254-.14-.287-.528c-.034-.387-.528-.405-.409-.176.12.229-.12.545-.12.545-.015-.703-1.036-1.073-1.292-1.25-.254-.175-.05-.561-.118-.791-.068-.227.085-.528.323-.737.238-.213.254-.3.254-.793 0-.492.41-.703.664-.703.255 0 .273-.088.307-.247.033-.158.119-.28.44-.3.325-.016.392-.033.546-.174.151-.141.305-.124.56-.035.254.087.187.123.477-.053.289-.176.662 0 .917.14.256.141.715.159.544-.281-.169-.44-.373-.035-.373-.035-.29-.265.135-.37-.17-.458-.306-.087-.222.37-.222.37-.644-.335-.067-.563-.357-.668-.287-.106-.305.333-.305.333-.442-.367.187-.527-.034-.755-.223-.23-.46.369-.46.369-.356-.493.308-.526.068-.774-.24-.246-.477.175-.477.175-.185-.262.29-.683.086-.79-.205-.107-.373.474-.373.474-.375-.335.236-.773.016-.861-.221-.087-.426.335-.426.335-.204-.283-.084-.58.17-.721.256-.141.664.016.646-.387-.015-.405-.492-.14-.492-.14C7.63.962 7.84.8 8.04.787zm5.818 3.237c-.975-1.554-.288-1.721-.288-1.721-.342.356.288 1.721.288 1.721zm.074-1.792c-.267.933.625 2.313.625 2.313-1.48-1.589-.756-2.587-.756-2.587-.081.264-.074.561-.015.855.006-.375.146-.58.146-.58zm.287 1.377c-.005-.014-.008-.026-.014-.037l.008.037-.044-.132c0-.006-.003-.009-.004-.013l-.001-.007a1.473 1.473 0 01-.09-.491c-.036-.997 1.035-1.03 1.035-1.03-.201.067-.36.158-.486.261.268-.112.532-.12.532-.12-1.27.369-.936 1.532-.936 1.532zm.592.936c-1.32-1.922.675-2.206.675-2.206-1.606.617-.675 2.206-.675 2.206zm.35.327c-1.288-2.084.545-2.213.545-2.213-1.483.56-.611 2.101-.545 2.213l.005.006-.005-.006zm.452-1.666c-.976.343-.389 1.612-.389 1.612-.816-1.673.389-1.612.389-1.612zm.024 2.206c-.953-1.4.252-1.744.252-1.744-.906.474-.252 1.744-.252 1.744zm.012-1.116c-.137.404.16 1.283.16 1.283-.482-.819-.16-1.283-.16-1.283zm.02.226s.31-.024.518-.357c0 0-.332.749-.517.357zm-1.713.278c-.605-.62-.304-.907-.304-.907-.026.25.14.534.396.812-.278-.407-.083-.598-.083-.598-.023.224.117.475.337.727-.168-.3-.026-.443-.026-.443-.022.212.122.45.34.686-.236-.337-.083-.495-.083-.495-.066.658 1.597 1.626 1.597 1.626l-.051-.027.051.027c-3.648-1.686-2.8-2.434-2.8-2.434-.036.315.237.678.626 1.026zm.788-.196c-.028.324.318.726.67 1.044-.643-.611-.428-.888-.428-.888-.046.586 1.144 1.448 1.144 1.448-1.806-1.11-1.386-1.604-1.386-1.604zm.521.345c-.035.51.865 1.259.865 1.259-1.127-.872-.865-1.259-.865-1.259zm1.13 1.449c-.883-.878.123-.927.123-.927-.663.333-.123.927-.123.927zm-.116-.986c-.218-.261.07-.415.07-.415-.105.095-.07.415-.07.415zm.012.498s.504.06.298.678c0 0 .01-.427-.298-.678zm1.446 2.886s.482-.107.137 1.685c0 0 .128-1.447-.137-1.685zm-.298-1.045s.47.096.207 1.01c0 0 .113-.724-.207-1.01zm-.827.783l.007-.007-.007.007s.5-.71.398-1.08c-.007-.02.154.142-.031.545.123-.228.221-.484.16-.664-.006-.02.17.13.013.495.121-.219.201-.444.137-.614-.012-.031.506.345-.677 1.318zm.625-1.405a.418.418 0 01-.013.086c-.003.01-.003.016-.005.026v-.004.004l-.001-.004v.004s-.04-.366-.596-.487c0 0 .206-.005.378.06a.836.836 0 00-.342-.19s.184-.008.345.072a.722.722 0 00-.312-.226s.587-.033.546.63v.03zm-.672 1.24l.012-.022-.012.022s.266-.622.026-1.033c0 0 .132.096.153.337a.933.933 0 00-.145-.575s.153.092.209.322a.984.984 0 00-.196-.57s.724.38-.047 1.519zm.84-.511s.767 1.069-1.093 2.067l.04-.036c-.014.012-.025.024-.04.036 0 0 .58-.633.42-1.295 0 0 .194.44-.114.94.198-.28.397-.694.274-1.119 0 0 .183.344.005.785.151-.269.244-.588.136-.915 0 0 .19.314.054.734.14-.267.211-.575.095-.887 0 0 .16.233.12.576.079-.228.097-.473.002-.72 0 0 .131.184.141.468a1.06 1.06 0 00-.04-.634zm-1.194 2.197v-.021a1.126 1.126 0 00-.002.021 1.357 1.357 0 01-.035-.327.704.704 0 010-.087c-.027-.949.448-.988.448-.988-.176.11-.278.326-.338.552.138-.228.362-.242.362-.242a.684.684 0 00-.334.37.473.473 0 01.287-.145c-.287.116-.368.419-.387.63-.008.14 0 .237 0 .237zm.276-3.644c-.118.14-.164.332-.172.535a.544.544 0 01.18-.287c-.323.422.035 1.378.035 1.378-.687-1.223-.043-1.626-.043-1.626zm.635 4.321c.001-.002.003-.002.006-.003-.002.002-.005.002-.008.003l.029-.01-.021.005c.06-.019.34-.183.263-1.421 0 0 .115.7-.004 1.12.095-.231.164-.635.111-1.345 0 0 .15.767.01 1.256.113-.267.193-.712.125-1.458 0 0 .422 1.775-.51 1.853zm-.005 0h.005-.005.002-.002zm.011-.005l-.01.005c.004 0 .007-.003.01-.005zm-.038-.09a.863.863 0 01-.167-.34c-.002.326.125.53.125.53-.63-.725.206-1.437.206-1.437-.256.515-.089.902-.089.902a.729.729 0 01-.099-.32c-.028.31.067.51.067.51a.793.793 0 01-.136-.402c-.03.34.093.557.093.557zm-.295-.89c-.39.555.116 1.102.116 1.102-.793-.592-.116-1.102-.116-1.102zm.987.462s.174.961-.767.736c0 0 .78.07.767-.736zm-1.698-2.833a1.099 1.099 0 01-.065-.039l.065.039-.031-.016.03.016c-.001 0-.005-.002-.007-.006.005.005.008.006.008.006-3.256-1.438-2.425-2.474-2.425-2.474-.042.28.059.558.236.822-.177-.405.01-.647.01-.647-.044.304.084.607.3.89-.258-.457-.057-.732-.057-.732-.052.382.176.763.49 1.094-.431-.543-.195-.883-.195-.883-.036.27.074.536.252.783-.189-.368-.04-.59-.04-.59-.043.349.175.698.456.99-.444-.518-.239-.85-.239-.85-.093.805 1.212 1.597 1.212 1.597zm-.046-.175l.002-.006c-.002.002-.002.003-.002.006v-.008c0 .003-.001.005-.003.008 0 0 .002-.004.002-.011a.021.021 0 00-.004.01s.002-.035-.003-.094c-.033-.163-.19-.5-.895-.747 0 0 .294.049.555.176a2 2 0 00-.59-.352s.304.059.575.211a2.086 2.086 0 00-.607-.421s.22.05.46.176a2.34 2.34 0 00-.513-.353s1.077.265 1.071 1.081c.003.017 0 .036 0 .054.003.015 0 .032 0 .047a.43.43 0 01-.048.223zm-4.027-3.116c-.206-.342-.095-.621-.095-.621-.059.874 1.54 1.49 1.54 1.49a4.525 4.525 0 01-.242-.066c-2.616-.744-2.08-1.932-2.08-1.932a.983.983 0 00.186.624c-.07-.265.013-.45.013-.45-.026.338.176.644.464.903-.27-.388-.133-.71-.133-.71-.017.282.13.539.347.762zm.791-.147c.119.185.232.416.33.7 0 0-.222-.459-.61-.877.122.186.24.43.34.756 0 0-.213-.496-.579-.9.109.171.218.41.309.742 0 0-.355-.94-.915-1.194h.01c.112 0 1.11.04 1.702 1.58 0 0-.213-.4-.587-.807zm-1.432.287c.868.647 2.07 1.169 2.07 1.169-1.005-.383-1.652-.72-2.063-1.007-1.452-.939-.856-1.466-.856-1.466-.074.219.012.457.193.695a.385.385 0 01.1-.362c-.108.308.157.652.556.971zm2.205 1.554c-.014.002-.026.002-.038.002h.038l-.042.005a3.49 3.49 0 01-.372.014c-2.049.02-1.943-1.424-1.943-1.424.075.343.243.603.459.799-.213-.326-.188-.658-.188-.658.078.365.272.626.513.811-.23-.302-.208-.636-.208-.636.173.82 1.008 1.024 1.47 1.077.188.015.311.01.311.01zm-.053-.175c-1.068.035-1.422-.667-1.422-.667.457.44 1.422.667 1.422.667zm-3.057-1.202c-.042-.337.05-.605.05-.605a1.54 1.54 0 00.21.994c-.14-.404-.016-.784-.016-.784a1.41 1.41 0 00.405 1.175c-.298-.428-.145-.946-.145-.946-.097 1.035.841 1.403.841 1.403a3.092 3.092 0 01-.34-.106c-.01-.004-.017-.009-.026-.01a2.25 2.25 0 01-.093-.039C9.9 4.864 10.354 3.5 10.354 3.5c-.04.35.01.649.111.904zm-.061.482s-.306-.49-.646-.245c0 0 .322-.51.646.245zM8.67 2.395S8.467.922 7.69 1.132c0 0 .88-.648.98 1.262zm-.796-.491c.443-.018.187-.58.187-.58.68.79-.187.58-.187.58zm.85-.106s.54-.473.524-.579c0 0 .136.23-.525.58zm.491 1.317c-1.019-.912.12-1.317.12-1.317-.782.667-.12 1.317-.12 1.317zm.068-.93c-.221.543.27 1.245.27 1.245-.83-.947-.27-1.244-.27-1.244zm.713-.088s.44.227-.34 1.333c0 0 .459-.912.34-1.333zm-.578.28c.187.246.423.036.423.036-.287.876-.423-.036-.423-.036zm.73 1.684c-.561-.526-.051-1.104-.051-1.104-.07.154-.089.32-.087.475a.87.87 0 01.108-.246c-.138.387.03.875.03.875s0-.003-.003-.005a.022.022 0 01.003.005zM8.69 2.613s-.31-.578-.596-.603c0 0 .459-.103.596.603zm1.043.256c-.187.705-.312-.089-.312-.089.088.295.312.09.312.09zm-1.19 2.425s.332-.63 1.748.422c0 0-1.217-.756-1.748-.422zm2.708.435c-1.038.048-.997-.834-.997-.834a.97.97 0 00.348.543c-.135-.204-.125-.44-.125-.44.126.52.549.656.829.692.154.014.263.002.263.002-.017.003-.033.004-.05.008.03-.001.05-.004.05-.004-.12.024-.224.033-.318.033zm-.674.04s-.397-.385-.621-.385c0 0 .198-.243.621.386zm-2.26-.103s.387-.743 1.825.078c0 0-1.128-.603-1.825-.078zm-.506.812a.68.68 0 00-.013.036s.004-.015.013-.036c.57-1.48 2.145-.734 2.145-.734-1.57-.381-2.06.54-2.145.734zm1.004.766c-.92-1.31.707-1.451.707-1.451-1.353.333-.707 1.45-.707 1.45zm-.074-.469zm.57-.288c-.536-.095-.57.233-.57.288-.02-.604.57-.288.57-.288zm-.994.861s-.124-.476-.855-.489c0 0 .843-.18.855.49zm.832-1.592C7.972 6.14 8.12 6.82 8.12 6.82c-.41-.808 1.03-1.065 1.03-1.065zm-.634.423c-.172.154-.085.487-.085.487-.298-.19.085-.487.085-.487zm-.022-.821s-.622-.282-1.007.014c0 0 .36-.514 1.007-.014zm-1.007.077s-.644 0-.818.448c0 0 .063-.654.818-.448zm.87.026s-1.478.153-1.625.794c0 0-.199-.808 1.625-.794zM7.74 6.716l.008.002-.008-.002c-.753-.26.392-1 .392-1-.868.768-.452.976-.392 1zm-.39-.1c-.384.886.299 1.026.299 1.026-.894-.037-.3-1.027-.3-1.027zm.05.282c-.075.219.136.551.136.551-.408-.244-.136-.55-.136-.55zm.187 1.696s-.225-.373-.957-.17c0 0 .807-.46.957.17zm-.4-.94h.044a.207.207 0 01.044.001H7.27c-.41.078-.313.552-.313.552-.066-.26-.02-.398.057-.471-.314.173-.215.534-.215.534-.087-.253-.044-.403.045-.492-.345.197-.227.544-.227.544-.077-.178-.077-.309-.035-.406-.227.233-.123.522-.123.522-.331-.727.458-.786.73-.785zm-.59-1.639c-.584.156-.102 1.627-.102 1.627-.303-.877-.28-1.287-.176-1.476-.368.43.125 1.554.125 1.554-.377-.824-.393-1.253-.29-1.476a.675.675 0 00-.096.148c-.217.563.316 1.532.316 1.532a4.484 4.484 0 01-.403-.869C6.028 7.7 6.36 8.4 6.36 8.4c-.679-1.366-.58-1.957-.33-2.21a.572.572 0 01.314-.164c.001-.002.004-.002.005-.002a.25.25 0 01.032-.005l.026-.004h.01a.812.812 0 01.107-.008h.04c.034 0 .055.005.055.005h-.004l.004.002-.021.002zm-.015 1.627s.322-.576-.101-1.373c0 0 .61.565.1 1.373zm-1.132.77c-.679-.616.338-1.168.338-1.168-.817.67-.368 1.138-.338 1.167l.004.001H5.45zm.449.334c-.98-.77-.088-1.387-.088-1.387-.657.746.088 1.387.088 1.387zm.508.411c-1.19-.988-.558-1.694-.558-1.694-.272.962.558 1.694.558 1.694zm.485-.038c-1.192-.45-.981-1.554-.981-1.554 0 1.029.98 1.554.98 1.554zm.608.167c-.014-.155-.362-.373-.362-.373.473.103.362.373.362.373zm-.968-.887c-.012.322.52.54.52.54-.693-.039-.52-.54-.52-.54zm-1.014.407c-.102-.152-.047-.33-.047-.33.018.45.614.54.614.54-1.104 0-.868-.694-.868-.694.009.223.141.378.3.484zm.305.288c.908.204.733.769.733.769-.012-.437-.733-.77-.733-.77zm.597.14s.533-.206.695.283c0 0-.273-.322-.695-.283zm.604-.462s-.361-.303.1-.255c0 0-.214.112-.1.255zm.13.856c-.035.15.115.52.115.52-.257-.334-.116-.52-.116-.52zM9.48 4.343c.43-.499.774.135.774.135-.387-.428-.774-.135-.774-.135zm-.162.348s-.648-.436.454-.616c0 0-.784.19-.454.616zm.662-.616s-.354-.391-1.061-.008c0 0 .621-.606 1.06.008zm-.682-.311s-.731.214-.604.606c0 0-.377-.4.604-.606zm-.697-.169s.482-.463 1.051.126c0 0-.483-.367-1.05-.126zm-.38.41s-.3-.447.612-.606c0 0-.628.196-.611.606zm1.103-.613s-.49-.438-1.153-.196c0 0 .68-.518 1.153.196zm-1.515-.02s.008-.748.87-.427c0 0-.681-.028-.87.428zm.043-.738s.447-.562 1 .258c0 0-.45-.606-1-.258zm.155.098s.328-.223.62.107c0 0-.354-.196-.62-.107zm1.093.605s-.473-.117-.715.055c0 0 .112-.34.715-.055zm.387.384s-.395-.163-.714.061c0 0 .233-.375.715-.061zm-1.24-1.338s-.853.198-.749.67c0 0-.345-.518.748-.67zm.148-.036l.008.011-.008-.011c-.047-.059-.308-.347-.922-.106 0 0 .56-.437.922.106zm-1.284.188s-.096-.757.766-.543c0 0-.612-.07-.766.543zm1.13 3.03c-1.58.4-1.448 1.06-1.422 1.153-.335-.917 1.421-1.154 1.421-1.154zM6.82 6.717l.004.012-.004-.012zm1.104-.96c-1.284.616-.944 1.15-.848 1.267-.697-.748.848-1.267.848-1.267zm-.848 1.267l.023.024s-.009-.007-.023-.024zm.527-.966c-.504.468-.468.917-.468.917-.259-.467.468-.917.468-.917zm-.947 1.615s.497-.202.193-.808c0 0 .534.614-.193.808zm-.114-.167s.043-.576-.125-1.089c0 0 .354.458.125 1.089zM7.55 7.26s-.248-.385.205-.228c0 0-.24 0-.205.228zm8.682 27.836s.601-.137.76.681c0 0-.281-.637-.76-.68zm-.04.047s-.48-.444-.9-.227c0 0 .47-.445.9.227zm.633.616s-1.2-.9-1.724-.522c0 0 .37-.74 1.724.522zm-1.267.516l.005.007-.005-.007zm.935-.477c-1.14-.025-.964.417-.935.477-.397-.714.935-.477.935-.477zm-1.624-.154c.34-.916 1.803.114 1.803.114-1.437-.787-1.764-.201-1.803-.114 0 .003-.003.006-.005.009 0 0 .004-.004.005-.01zm-.006.404l.001.034v-.033zm1.448-.364c-1.356-.424-1.445.211-1.448.364-.039-1.037 1.448-.364 1.448-.364zm-.434.006c-.677.002-.939.361-.939.361.109-.526.94-.36.94-.36zm-3.275.011s.597-.136.756.682c0 0-.282-.638-.756-.682zm-.942-.18s.467-.445.899.228c0 0-.48-.443-.899-.228zm-.194.322s.372-.74 1.724.523c0 0-1.2-.901-1.724-.523zm.46 1.037l.002.005s0-.002-.003-.005zm.933-.477c-1.14-.023-.963.417-.934.477-.397-.712.934-.477.934-.477zm-1.621-.154a.015.015 0 00-.005.01s0-.003.005-.01c.336-.915 1.8.117 1.8.117-1.438-.79-1.763-.204-1.8-.117zm-.008.406l.001.031s-.002-.011-.002-.031zm1.446-.365c-1.353-.424-1.444.211-1.447.365-.038-1.036 1.447-.365 1.447-.365zm-.43.006c-.679.002-.941.36-.941.36.108-.524.94-.36.94-.36zm-3.26-1.769s.611.046.54.876c0 0-.094-.694-.54-.876zm-.853-.45s.57-.29.799.484c0 0-.34-.568-.8-.484zm-.274.252s.56-.6 1.51 1.008c0 0-.904-1.216-1.51-1.008zm.157 1.13c-.187-.8 1.024-.182 1.024-.182-1.09-.361-1.037.118-1.024.182l.001.008-.001-.008zm-.488-.808l-.008.008.008-.008zm1.694.641c-1.16-1.179-1.632-.712-1.694-.64.576-.779 1.694.64 1.694.64zm-1.813-.254l-.008.032.008-.032zm1.488.076c-1.182-.805-1.443-.222-1.488-.076.246-1.006 1.488.076 1.488.076zm-1.416-.051c.249-.472 1-.071 1-.071-.65-.198-1 .071-1 .071zM7.377 33.3s.613.045.54.876c0 0-.094-.693-.54-.876zm-.852-.449s.571-.29.801.484c0 0-.338-.568-.8-.484zm-.273.25s.56-.6 1.51 1.01c0 0-.904-1.216-1.51-1.01zm.155 1.132l.001.005-.001-.005c-.185-.802 1.026-.184 1.026-.184-1.09-.36-1.037.12-1.026.184zm-.487-.809c.576-.779 1.697.641 1.697.641-1.163-1.179-1.636-.713-1.697-.641 0 .003-.004.006-.008.009l.008-.009zm1.37.463c-1.183-.806-1.443-.222-1.487-.075.246-1.007 1.487.075 1.487.075zm-1.487-.075l-.009.03s.003-.013.01-.03zm1.07-.048c-.65-.197-1 .072-1 .072.25-.472 1-.072 1-.072zm-2.654-.66s-.095-.694-.54-.877c0 0 .61.044.54.877zM2.825 31.78s.57-.29.8.483c0 0-.34-.567-.8-.483zm-.272.251s.558-.6 1.51 1.01c0 0-.905-1.217-1.51-1.01zm1.181.95c-1.09-.363-1.04.116-1.028.181-.185-.8 1.028-.181 1.028-.181zm-1.028.181l.002.006-.002-.006zm-.486-.81c-.003.004-.006.006-.007.01l.007-.01zm1.696.642c-1.162-1.179-1.634-.714-1.696-.641.577-.777 1.696.64 1.696.64zm-1.815-.253c-.001.01-.006.02-.007.03 0 0 .001-.01.007-.03zm1.489.074c-1.183-.803-1.443-.22-1.489-.074.249-1.006 1.489.074 1.489.074zm-.417-.121c-.65-.198-1 .07-1 .07.249-.471 1-.07 1-.07zm8.219 1.846c.417-.713.935-.378.935-.378-.463-.123-.935.378-.935.378zm1.88-.221c-.324-.348-.92-.095-.92-.095.626-.486.92.095.92.095zm.079.37c-.372-.536-1.796-.106-1.796-.106 1.686-.719 1.796.106 1.796.106zm-.77.819c.048-.047.357-.4-.725-.774 0 0 1.33.241.725.774l-.006.004.006-.004zm.854-.357l.001.013v-.013zm-1.734-.516s1.712-.462 1.734.516c-.009-.093-.125-.76-1.734-.516zm1.608.902c-.006.019-.012.03-.012.03.004-.011.007-.021.012-.03zm-1.242-.847s1.616-.117 1.242.847c.046-.146.168-.775-1.242-.847zm.404.157s.835.133.765.665c0 0-.129-.43-.765-.665zm-7.2-2.35c-.056-.441-.566-.707-.566-.707.643.155.566.706.566.706zm-.035.038c.545.406.221.834.221.834.148-.385-.221-.834-.221-.834zm-.51-.59c1.047 1.262.49 1.6.49 1.6.268-.48-.49-1.6-.49-1.6zm-.014.308s.247 1.232-.326.857c.048.029.401.197.326-.857zm-.326.857l-.005-.002.005.002zm.347-1.023s.875 1.363.177 1.667c.062-.033.508-.327-.177-1.667zm.177 1.667l-.007.002a.012.012 0 00.007-.002zm-.315.001c.12 0 .61-.078.216-1.334 0 0 .594 1.38-.216 1.334zm-.026 0h.026-.026zm.021-.068s.267-.24.237-.865c0 0 .166.768-.237.865zM1.77 28.63c.61.261.445.793.445.793.015-.443-.445-.793-.445-.793zm.488 1.684c.207-.354-.083-.86-.083-.86.472.493.083.86.083.86zm-.265.133c.341-.429-.226-1.66-.226-1.66.83 1.42.226 1.66.226 1.66zm-.747-.567c.04.032.361.26.457-.794 0 0 .049 1.259-.457.794a.042.042 0 01-.006-.005l.006.005zm.412.722c.071-.024.553-.242.094-1.675 0 0 .64 1.49-.094 1.675a.066.066 0 01-.007.002l.007-.002zm.115-1.331s.366 1.46-.425 1.28c.118.018.613.024.425-1.28zm-.425 1.28l-.025-.006c.009 0 .016.002.025.005zm.006-.07s.301-.19.37-.813c0 0 .044.787-.37.813zm.779-.05c.604.213.431.665.431.665.021-.377-.431-.664-.431-.664zm.457 1.422c.213-.306-.068-.73-.068-.73.462.41.068.73.068.73zm-.463-1.287c.803 1.19.196 1.403.196 1.403.35-.37-.196-1.403-.196-1.403zm-.54.936a.136.136 0 00-.005-.004c.002.002.002.003.006.004.04.028.356.217.472-.682 0 0 .022 1.065-.472.682zm.521-.818s.616 1.254-.122 1.422c.068-.02.557-.209.122-1.422zm-.122 1.422l-.007.002.007-.002zm.139-1.13s.337 1.232-.449 1.093c.118.014.613.009.449-1.092zm-.449 1.093c-.014-.003-.024-.003-.024-.003l.024.003zm.008-.058s.304-.166.385-.698c0 0 .027.667-.385.698zm10.132 3.026s-.686-.144-1.062.153c0 0 .326-.468 1.062-.153zm-1.056.206s-.683.092-.822.481c0 0 0-.54.822-.481zm.92-.104s-1.546.336-1.637.88c0 0-.293-.63 1.638-.88zm-.209.241c-.84.748-.377.858-.311.869-.826-.105.311-.869.311-.869zm-.311.869l.006.001-.006-.001zm.41-1.009c-1.632.551-1.423 1.07-1.385 1.14-.449-.695 1.385-1.14 1.385-1.14zm-1.385 1.14a.028.028 0 00.006.01l-.006-.01zm1.069-.937c-1.298.683-.88 1.07-.765 1.152-.814-.51.764-1.152.764-1.152zm-.765 1.152c.008.007.015.01.024.016 0 0-.01-.005-.024-.016zm.457-.861c-.486.452-.401.814-.401.814-.32-.345.401-.814.401-.814zm3.513-1.19s.405-.35.998.122c0 0-.588-.3-.998-.121zm-.007.051s-.64-.085-.855.24c0 0 .125-.499.855-.24zm-.83.538s-.118-.654 1.689-.405c0 0-1.48-.073-1.688.405zm.96.49c-.725-.302.484-.725.484-.725-.935.482-.542.699-.485.724l.006.003-.006-.003zm-.913-.121c-.246-.753 1.519-.708 1.519-.708-1.607.104-1.537.636-1.519.708 0 .005 0 .007.002.01 0 0-.002-.002-.002-.01zm.224.274l.02.022s-.009-.008-.02-.022zm.96-.874c-1.331.31-1.044.77-.96.874-.62-.671.96-.874.96-.874zm-.9.842c-.207-.395.554-.649.554-.649-.545.297-.553.65-.553.65zM4.53 32.827s.061-.67-.23-1.012c0 0 .438.28.23 1.012zm-1.013-1.631s.52-.332.912 1.51c0 0-.43-1.463-.912-1.51zm-.302.166c.565-.488 1.115 1.245 1.115 1.245-.625-1.53-1.057-1.288-1.115-1.245a.034.034 0 00-.008.005l.008-.005zm-.16.308c-.003.008-.008.016-.01.026 0 0 .002-.01.01-.026zm1.071.646c-.71-1.195-1.01-.762-1.07-.646.37-.824 1.07.646 1.07.646zm4.813 4.341s-.453.284-.968-.278c0 0 .538.39.968.278zm.015-.047s.619.185.88-.105c0 0-.197.476-.88.105zm-.83-.268s1.451.307 1.729-.134c0 0 .02.666-1.73.134zm.853-.769l-.005-.005.005.005c.672.411-.583.64-.583.64.992-.328.635-.604.583-.64zm-.72.723c1.603.151 1.612-.385 1.606-.461.13.786-1.606.46-1.606.46zm1.606-.461l-.002-.01.002.01zm-.18-.304c-.007-.009-.013-.016-.017-.024 0 0 .004.008.016.024zm-1.08.71c1.362-.094 1.147-.594 1.08-.71.51.762-1.08.71-1.08.71zm.37-.136c.583-.206.643-.555.643-.555.15.427-.642.556-.642.556zM7.848.944s.459-.439.883.643c0 0-.344-.822-.883-.643zm1.182.868c-.264.153-.287.51-.287.51-.114-.51.287-.51.287-.51zm6.358 4.79c-.018-.006-.036-.013-.055-.017 0 0 .021.004.055.017zm.016.005a.044.044 0 00-.016-.005c.004 0 .01.002.016.005zm.55.597s-.24-.476-.55-.597c.15.052.505.215.55.597zm-6.717-.607c-.402.073-.378.476-.378.476-.173-.594.378-.476.378-.476zm8.834 3.69s1.836 1.302 1.431 1.633c0 0 .171-.22-1.431-1.632zm-.918.882s1.943.861 2.028.463c0 0 .384.73-2.028-.463zm1.712.33s.324.517-1.712-.33c0 0 1.64.611 1.712.33zm-.233-.104s.281.351-1.48-.226c0 0 1.418.416 1.48.226zm-1.027-.299c.349-.125.447-.61.447-.61.469.368-.133.546-.447.61a.517.517 0 01-.174.029s.07-.008.174-.029zM15.98 9.315s.576-1.39-.556-2.076c0 0 1.386.42.556 2.076zm-.85-.578c-.401-.725-1.134-1.782-2.14-2.161 0 0 1.75.318 2.498 2.893 0 0-.015-.04-.048-.113.016.038.033.075.048.113 0 0-1.286-2.38-3.543-3.002 0 0 2.01.267 3.186 2.27zM10.026 6.62s-.023-.971 2.624.332c0 0-2.178-.95-2.624-.332zm5.964 4.737s.805-.332-.22-1.149c.178.147.885.784.175 1.06 0 0 .297-.14.237-.459.004.12-.064.234-.268.312 0 0 .568-.263-.149-.913.131.123.605.61.115.824 0 0 .472-.244-.147-.855 0 0 1.24.84.257 1.18zm-.598-.28s.626-.147.412-.678c0 0 .413.576-.412.678zm-.028-.987c.14 0 .22-.039.266-.092-.158-.232-.48-.109-.48-.109.242-.159.393-.017.453.063-.208-.302-.581-.126-.581-.126.334-.268.528.013.59.13-.235-.493-.676-.22-.676-.22.452-.481.678.206.695.26.086-.1.046-.244.046-.244.213.486-.313.338-.313.338zm.07 1.104c-.412.824.214.944.214.944-.841-.045-.214-.944-.214-.944zm.07 0c-.279.71.144.808.144.808-.567-.036-.144-.808-.144-.808zm.144.706c-.349-.033-.089-.706-.089-.706-.171.619.089.706.089.706zm.085.251s.248-.196-.17-.646c0 0 .541.47.17.646zm0-.646c-.327-.237.1-.457.1-.457l.046-.016c-.336.207-.146.473-.146.473zm-.74 1.539c-.009.004-.015.004-.015.004.006 0 .01-.003.016-.004.061-.024.298-.157.099-.775 0 0 .403.649-.1.775zm-.584.02s.657.03.613-.662c0 0 .271.736-.613.661zm.498-.882s.159.866-.469.72c0 0 .47 0 .47-.72zm.228-.089c-.298-.207-.511.089-.511.089.312-.488.511-.089.511-.089zm-.341.089s.1.44-.285.543c0 0 .27-.264.285-.543zm.398-2.725c-.244-.326-.754-.088-.754-.088.417-.24.637-.064.716.034-.311-.426-.887-.084-.887-.084.504-.368.772-.107.876.047-.372-.623-1.048-.115-1.048-.115.8-.737 1.097.206 1.097.206zm-5.5-3.503c-.335.69 1.413 2.68 1.413 2.68-2.238-2.436-1.414-2.68-1.414-2.68zm5.028 2.932c-.693-.798-1.256.12-1.256.12.563-1.108 1.256-.12 1.256-.12zm-1.096.12c.492-.883 1.096-.094 1.096-.094-.604-.637-1.096.094-1.096.094zm.187 0c.408-.632.909-.068.909-.068-.501-.455-.91.068-.91.068zm.137 0c.346-.43.772-.047.772-.047-.426-.309-.772.047-.772.047zm.149.071s-.553.5-.945-.201c0 0 .346.535.945.201zm.034.251c.149.382.795.227.795.227-.807.261-.795-.227-.795-.227zm-.08-.132s-.38.87-1.105 0c0 0 .7.692 1.106 0zm-1.001-.465c.16.703.7.632.7.632-.643.204-.7-.632-.7-.632zm.953-.346c-.282-.296-.78-.086-.78-.086.327-.155.536-.102.655-.029-.353-.247-.84-.008-.84-.008.54-.3.821-.065.922.06-.398-.556-1.038-.125-1.038-.125.783-.598 1.081.188 1.081.188zm-.16-.01s-.553.618-.91.01c0 0 .392.443.91-.01zm-1.243-.46c.377-.159.576-.086.66-.028-.32-.248-.857.016-.857.016.277-.146.478-.17.62-.146-.378-.102-.825.134-.825.134.522-.297.826-.21.98-.1-.453-.374-1.142.084-1.142.084.967-.693 1.278.058 1.278.058-.001 0-.003 0-.003-.002a.031.031 0 00.003.004c-.245-.205-.714-.02-.714-.02zm.057.518c.005.016.006.03.01.05l-.01-.05zm.098.098c-.047-.244-.023-.395.03-.487-.156.122-.145.302-.128.39-.128-.467.184-.53.379-.527.038 0 .072.003.098.008l.04.006c-.001 0-.002.002-.006.002l.007.001c-.455.046-.443.455-.42.607.003.02.004.036.008.056 0 0-.005-.021-.008-.056zm-1.392-.235s-.009-.054-.004-.133c0 .043 0 .087.004.133zm.188-.164c0 .04 0 .082.005.13 0 0-.01-.054-.005-.13zm.762-.556c-.012 0-.027-.003-.04-.005-.019-.003-.037-.002-.056-.003l-.067.001c-.366.027-.421.348-.42.531-.008-.238.041-.383.118-.467-.243.112-.292.35-.296.499-.004-.24.061-.39.157-.48a.584.584 0 00-.35.511c.01-.53.383-.637.687-.635h.025a.665.665 0 01.245.024c.07.013.117.027.117.027l-.038-.003a.29.29 0 00.04.013c-.008 0-.015 0-.021-.003l.022.01a.914.914 0 00-.123-.02zm-.583.524c.002.04.005.083.01.128 0 0-.01-.053-.01-.128zm-.318-.44c-.54.215-.367.81-.367.81-.3-.692.367-.81.367-.81zm.639.856c.014.016.025.032.042.05l-.042-.05zm.089-.869c-.438.348-.197.735-.09.869-.541-.607.09-.869.09-.869zm-.566 1.324c-.852-.56-.298-1.109-.298-1.109-.392.548.298 1.109.298 1.109zm.488-.06h-.002c-.818.088-.612-.87-.612-.87-.023.86.542.872.613.87zm.365-.214c-.876.309-.784-.548-.784-.548.035.762.784.548.784.548zm-.012-.11c-.633-.263-.265-.689-.265-.689-.23.405.265.69.265.69zm-.069-.666c-.287.358.346.68.346.68-.795-.285-.346-.68-.346-.68zm.23.49c-.426-.323-.033-.453-.033-.453-.242.178.033.452.033.452zm-.666.619s.725.12.977-.5c0 0-.138.69-.977.5zm-.208-.037c.85.549 1.244-.296 1.244-.296-.403.988-1.244.296-1.244.296zm1.014.252s-.531.488-1.085-.168c0 0 .543.5 1.085.168zm-.021.63s.689.428.95-.225c0 0-.228.797-.95.225zm.789-.141c-.504.474-.86-.213-.86-.213.402.544.86.213.86.213zm-.067-.084c-.715.325-.553-.558-.553-.558-.02.774.553.558.553.558zm-.92.822s.473.343.713-.312c0 0-.195.81-.712.312zm-.124-.418c.39.535.7.214.7.214-.368.5-.7-.214-.7-.214zm.138-.416c-.013.594.48.572.48.572-.571.179-.48-.572-.48-.572zm-.138.665s-.357-.143.01-.831c0 0-.216.512-.01.831zM11.11 8.961s-.437.226-.3.749c0 0-.334-.476.3-.749zm.1 1.023c-.608-.25-.24-.797-.24-.797-.183.546.24.797.24.797zm.232-.999a.59.59 0 00-.384.684c-.18-.648.384-.684.384-.684zm-.384.684l.003.018-.003-.018zm1.129-.173s-.506.334-.861-.322c0 0 .345.476.86.322zm-.15.154c-.595.416-.815-.356-.815-.356.312.63.816.356.816.356zm-.044.155s-.346.44-.85-.025c0 0 .517.345.85.025zm-.494 1.2s.759.296.94-.474c0 0-.148.9-.94.474zm.759.046s.412-.01.424-.378c0 0 .067.474-.424.379zm-.565-.662s.157.895-.86.575c.136.036.84.184.86-.575zm-.86.575l-.023-.007.022.007zm.803-.03s.55-.011.69-.583c0 0 .012.677-.69.583zm.092-.144s.564-.26.379-.89c0 0 .345.654-.38.89zm.046-.2s.287-.274.115-.606c0 0 .298.344-.114.605zm-.713.308s.62-.108.483-.82c0 0 .288.737-.483.82zm-.068-.083s.54-.38.3-.82c0 0 .4.427-.3.82zm-.183.024s.448-.464.275-.832c0 0 .32.368-.275.832zm-.208-1.023c-.242.143-.02.715-.02.715-.336-.75.02-.715.02-.715zm-.128 1.32c.08-.088.617-.727.107-1.082 0 0 .693.212-.107 1.082l-.009.011.01-.01zm.53-.891s-.057-.31-.343-.322c0 0 .39-.107.343.322zm-.653.106c-.414.452.182.938.182.938-.804-.57-.182-.938-.182-.938zm.09.131c-.112.131-.022.523-.022.523-.251-.345.022-.523.022-.523zm.035.333s.253-.321.114-.57c0 0 .312.227-.114.57zm1.458.38s.173.856-1.055.546c0 0 1.022.19 1.055-.546zm-.194-.01s.161.472-.736.46c0 0 .712-.082.736-.46zm-.253-.11s.184.287-.436.476c0 0 .482-.25.436-.476zm-.689.025c-.677.641-.125 1.247-.125 1.247-.69-.69.125-1.247.125-1.247zm-.07 1.116c-.585-.7.437-1.069.437-1.069-.86.416-.436 1.069-.436 1.069zm.323-.88s-.378.369-.241.642c0 0-.287-.25.24-.641zm-.921-.308s.68.653-.458 1.082c0 0 .897-.43.458-1.082zm-.515 1.023s.553-.429.426-.928c0 0 .355.393-.426.928zm-.012-.167c.367-.415.196-.653.196-.653.31.2-.196.653-.196.653zm-.045.355c-.346-.463.126-.961.126-.961-.344.546-.126.961-.126.961zm1.183.369s.86.107.987-.784c0 0-.057 1.081-.987.784zm.868-.733c-.18.683-.88.579-.88.579.684-.086.853-.5.88-.58l.004-.014-.004.015zm-.363.009s.196.355-.505.416c0 0 .527-.132.505-.416zm-.206-.047s.17.214-.253.308c0 0 .288-.119.253-.308zm-1.608.426s.377.452 1.217.155c0 0-.828.439-1.217-.155zm.218-.07c.299.297.895.141.895.141-.7.285-.895-.141-.895-.141zm.138 0s.563.13.505-.346c0 0 .183.595-.505.346zm-1.332-.19c.333-.498.906-.37.906-.37a1.39 1.39 0 00-.906.37zm.01.071s.392-.356.815-.286c0 0-.641.142-.816.286zm-.252.2s.678-.45 1.105-.223c0 0-.554-.073-1.105.224zm3.467.073s.496.723-.218 1.008c0 0 .587-.307.218-1.008zm-.068.143s.3.664-.458.795c0 0 .561-.226.458-.795zm-.895.535s.643.14.837-.429c0 0-.102.711-.837.429zm.631-.298c-.483.463-.884-.13-.884-.13.47.462.884.13.884.13zm-.056.653a.856.856 0 01-.956-.772c.174.712.956.772.956.772zm.527-.226s.623.209.289.76c.05-.097.196-.464-.29-.76zm.289.76a.66.66 0 01-.014.024l.014-.024zm-.322-.665s.504.261.16.654c0 0 .252-.344-.16-.654zm-.07.07c.425.227.092.476.092.476.206-.261-.093-.475-.093-.475zm-1.927-.642c.075 1.454 1.727 1.632 1.727 1.632-1.777 0-1.727-1.632-1.727-1.632zm.321 0c.049.765 1.357 1.35 1.357 1.35-1.481-.407-1.357-1.35-1.357-1.35zm1.57.715s.334.439-.402.428c0 0 .565-.073.402-.428zm-.906.07s.527.298.814-.023c0 0-.275.524-.814.023zm1.367.546s.32.82-.643.833c0 0 .816-.072.643-.833zm-.07.073s.023.855-.758.474c0 0 .724.263.759-.474zm-.195-.143s.218.63-.528.546c0 0 .656-.012.528-.546zm-.172-.095s.23.309-.092.428c0 0 .174-.225.092-.428zm-.3.819c-.423.51.048.89.048.89-.608-.415-.014-.929-.047-.89zm-.09.308s.079.558.62.546c0 0-.62.143-.62-.546zm.7.215c-.206.487-.552-.013-.552-.013.334.356.552.013.552.013zm-.597-.12s.471.192.55-.2c0 0-.044.534-.55.2zm.357-.095c-.357.18-.402-.152-.402-.152.114.213.402.152.402.152zm.042.64c.063-.019.488-.175.37-.901 0 0 .262.764-.37.9l-.008.002.008-.001zm-.354.418s.426 0 .598-.392c0 0-.137.51-.598.392zm-.229-.143s.447.06.632-.166c.023-.026-.195.357-.632.166zm.819-.611s.105-.33.05-.486c0 0 .11.27-.05.486zm-.398.494c-.47.188-.5-.343-.5-.343.08.45.5.343.5.343zm-.543-.077c.012.48.46.556.46.556-.54-.044-.46-.556-.46-.556zm3.387-1.633l.05-.319s-.014.114-.05.32c-1.432 9.05-7.853 12.338-7.853 12.338 6.11-3.99 7.59-10.794 7.853-12.339zm.19.475a39.9 39.9 0 00.099-.602s-.026.218-.098.602c-1.514 8.736-7.702 11.88-7.702 11.88 5.761-3.736 7.338-9.937 7.702-11.88zm.08.762c.042-.215.08-.432.112-.655 0 0-.029.24-.111.655-1.518 8.178-7.587 11.257-7.587 11.257 5.603-3.476 7.199-9.31 7.587-11.257zm.154.226C13.536 23.699 7.345 26.7 7.345 26.7c5.878-3.598 7.316-9.747 7.578-11.18l.05-.303s-.013.109-.05.304zm.02.684c.02-.11.039-.219.057-.33 0 0-.017.118-.057.33-1.409 7.896-7.598 10.749-7.598 10.749 5.866-3.451 7.321-9.302 7.598-10.75zM7.397 27.16c6.044-3.48 7.475-9.426 7.716-10.673-1.389 7.849-7.716 10.673-7.716 10.673zm7.716-10.673l.039-.234s-.012.084-.039.234zm.22.188c.013-.074.028-.15.04-.226 0 0-.012.081-.04.226zM7.307 27.439c6.285-3.492 7.78-9.523 8.024-10.763-1.437 7.855-8.024 10.763-8.024 10.763zm8.285-10.676c.015-.077.028-.154.044-.23 0 0-.014.08-.044.23zM7.308 27.635c6.491-3.532 8.03-9.616 8.285-10.872-1.485 7.95-8.285 10.872-8.285 10.872zm-.069.212c6.653-3.505 8.266-9.484 8.554-10.84-1.56 7.95-8.554 10.84-8.554 10.84zm8.554-10.84c.02-.095.036-.188.053-.283 0 0-.014.101-.053.282zm-8.554 11.03c6.736-3.453 8.369-9.341 8.66-10.68-1.579 7.835-8.66 10.68-8.66 10.68zm8.66-10.68l.055-.276s-.016.098-.054.276zm.185.271c.019-.09.037-.182.054-.274 0 0-.016.097-.054.274zM7.29 28.203c6.84-3.418 8.497-9.25 8.794-10.575C14.48 25.386 7.29 28.203 7.29 28.203zm8.276-13.553s-.05-.788-.614-1.047c0 0 .811.26.614 1.047zm-.486-.84l-.026-.022.026.023zm-.026-.022zm.363 1.205s-.072-.894-.337-1.182c.147.142.509.562.337 1.182zm-.383.565s.298-.874-.066-1.663c0 0 .513.874.066 1.663zm-.68-2.864c-.215.704.432.96.432.96-.728-.05-.432-.96-.432-.96zm.316.448c-.1.222.265.342.265.342-.548-.086-.265-.342-.265-.342zm.648 1.988c-.3.926.198 1.268.198 1.268-.68-.326-.198-1.268-.198-1.268zm.215-.137c-.25.72.016.993.016.993-.448-.189-.016-.993-.016-.993zm.033 1.097s.38-.24.05-.823c0 0 .53.548-.05.823zm.064.12s.716-.207.6.668c0 0 0-.703-.6-.669zm.019.137s.63.069.397.858c0 0 .068-.653-.397-.858zm.612.67c-.133.736.548.874.548.874-.879-.035-.548-.874-.548-.874zm1.162 1.182s-.101-.497-.846-.67c0 0 .929.104.846.67zm-1.493-2.298c.198-.96-.117-1.217-.117-1.217.498.24.117 1.217.117 1.217zm.198.206s.218-.77.084-1.064c0 0 .28.291-.084 1.064zm.219.39s.2-.962.1-1.115c0 0 .284.24-.1 1.115zm.123.857s.971-.873.426-1.352c0 0 .77.386-.426 1.352zm-.105-.132s.575-.842.32-1.422c0 0 .435.64-.32 1.422zm-.611-1.943s.039-.427-.076-.615c0 0 .24.316.076.615zM10.419 22.7c-3.135-1.407-2.738-2.1-2.738-2.1.12.819 2.738 2.1 2.738 2.1zm-.034.25c-3.137-1.408-2.738-2.102-2.738-2.102.119.82 2.738 2.102 2.738 2.102zm-.189.16c-2.98-1.347-2.602-2.013-2.602-2.013.114.784 2.602 2.012 2.602 2.012zm-.259.143C7.233 22 7.575 21.382 7.575 21.382c.105.73 2.362 1.871 2.362 1.871zm-.173.231c-2.527-1.24-2.208-1.853-2.208-1.853.098.723 2.208 1.853 2.208 1.853zm4.99-1.913c.454-.535 1.531-3.747 1.531-3.747-.945 3.556-1.532 3.747-1.532 3.747zm-11.79 2.06a.319.319 0 01-.07-.008.412.412 0 00.336-.411.415.415 0 00-.336-.413.412.412 0 01.476.413c0 .23-.18.419-.407.419zm-.01-.708a.29.29 0 00-.234.289c0 .145.1.263.233.288-.015.003-.031.003-.048.003a.285.285 0 01-.282-.291.286.286 0 01.33-.289zm-.15.289c0-.104.082-.187.18-.187.013 0 .023.002.034.003a.184.184 0 00-.152.184c0 .091.065.168.152.182a.14.14 0 01-.033.004c-.1 0-.18-.083-.18-.186zm.187-.128a.082.082 0 01.02-.003.13.13 0 01.127.13.128.128 0 01-.126.131c-.008 0-.014-.003-.021-.003a.129.129 0 00.104-.127.127.127 0 00-.104-.128zm9.713 8.308a.424.424 0 01-.296.51.406.406 0 01-.503-.377.402.402 0 00.47.236.416.416 0 00.303-.437.408.408 0 01.026.069zm-.127.023a.277.277 0 00-.325-.166.293.293 0 00-.216.305c-.004-.015-.012-.032-.014-.049a.295.295 0 01.204-.355.285.285 0 01.35.265zm-.428.175a.129.129 0 01-.01-.029.192.192 0 01.132-.228.181.181 0 01.218.137c.003.011.003.022.005.031a.18.18 0 00-.208-.105.186.186 0 00-.137.194zm.193.034a.13.13 0 00.095-.135l.007.02a.133.133 0 01-.092.16.127.127 0 01-.153-.095l-.001-.021a.121.121 0 00.144.071zm-.072-2.63a.326.326 0 01-.068.02.426.426 0 00.16-.515.402.402 0 00-.464-.247c.02-.012.039-.025.061-.035a.403.403 0 01.53.227.426.426 0 01-.22.55zm-.472-.253a.297.297 0 01.154-.382.207.207 0 01.048-.015.296.296 0 00-.111.358.28.28 0 00.322.174l-.042.025a.283.283 0 01-.37-.16zm.17-.072a.19.19 0 01.097-.246.124.124 0 01.03-.008.194.194 0 00-.07.23c.034.085.121.13.206.11a.18.18 0 01-.264-.086zm.123-.193l.02-.01a.126.126 0 01.165.07.132.132 0 01-.068.17l-.021.007a.132.132 0 00.048-.159.126.126 0 00-.144-.078zm.814-14.153c.022-.012.041-.025.064-.034a.398.398 0 01.528.227.426.426 0 01-.218.548c-.023.01-.044.015-.068.022a.426.426 0 00.158-.515.402.402 0 00-.464-.248zm-.097.49a.296.296 0 01.198-.398.297.297 0 00-.11.359.281.281 0 00.324.172.124.124 0 01-.044.023.278.278 0 01-.368-.155zm.168-.072a.188.188 0 01.126-.254.187.187 0 00-.069.227.174.174 0 00.207.11.15.15 0 01-.028.017.18.18 0 01-.236-.1zm.125-.193a.168.168 0 01.018-.011.127.127 0 01.166.07c.025.066-.004.144-.068.17a.132.132 0 01-.023.007.129.129 0 00.048-.16.121.121 0 00-.14-.076zm-.714 10.972a.432.432 0 01-.01.594.397.397 0 01-.574-.01.222.222 0 01-.042-.058c.155.12.375.109.52-.035a.431.431 0 00.052-.536.25.25 0 01.054.045zm-.536.45a.299.299 0 01.005-.413.28.28 0 01.402.006l.03.04a.28.28 0 00-.364.027c-.1.1-.112.258-.037.375a.254.254 0 01-.036-.035zm.127-.011a.196.196 0 01.006-.266.178.178 0 01.256.006.129.129 0 01.02.025.174.174 0 00-.233.015.192.192 0 00-.025.24c-.008-.006-.015-.014-.024-.02zm.24-.203a.134.134 0 01-.002.185.123.123 0 01-.18-.003l-.012-.018a.122.122 0 00.163-.013.133.133 0 00.015-.163.063.063 0 01.017.012zm.167-8.422c.015-.017.03-.037.049-.053a.398.398 0 01.572.045.429.429 0 01-.1.632.427.427 0 00-.007-.54.393.393 0 00-.514-.084zm.055.495a.298.298 0 01.07-.442.3.3 0 00.003.377.276.276 0 00.358.06.8.8 0 01-.031.037.277.277 0 01-.4-.032zm.138-.123a.191.191 0 01.02-.264l.023-.018a.196.196 0 00.003.242.179.179 0 00.23.037.176.176 0 01-.276.002zm.06-.221c.005-.006.009-.012.015-.017a.121.121 0 01.178.014.136.136 0 01-.012.184l-.02.01a.127.127 0 00-.003-.166.12.12 0 00-.158-.025zm-.67 2.408a.407.407 0 01.298.065l-.05.09a.404.404 0 00-.249-.155zm-.272.412c0-.162.125-.292.282-.292.016 0 .033.001.048.006a.287.287 0 00-.233.286c0 .114.061.209.15.259l-.015.03a.293.293 0 01-.232-.289zm.292.174a.19.19 0 01-.11-.174.182.182 0 01.21-.183.187.187 0 00-.082.325l-.018.032zm.14-.264a.121.121 0 00-.064-.038l.02-.002c.023 0 .04.006.058.015l-.014.025zm-9.222 4.391c.103-.776 2.715-.514 2.715-.514-2.493-.05-2.715.514-2.715.514zm4.122-3.667c.06-.096.12-.191.187-.287l.001-.004c.125-.184.259-.375.408-.566-.007.01-.015.022-.024.032l.017-.02a.025.025 0 00-.006.01c.006-.012.014-.022.022-.032l-.06.082.07-.092a5.303 5.303 0 00-.2.3 8.08 8.08 0 01.21-.309l-.023.032a6.863 6.863 0 00-.163.269c.063-.106.13-.212.202-.321-.254.396-1.213 2.044-.695 3.68 0 0-.474-.814-.04-2.194-.255.752-.398 1.69-.09 2.622 0 0-.3-.498-.252-1.378a3.992 3.992 0 00.158 1.785s-.471-.763-.209-2.086c-.181.758-.218 1.615.08 2.473 0 0-.374-.586-.32-1.62a4.382 4.382 0 00.208 2.005s-.36-.553-.358-1.542a4.597 4.597 0 00.247 1.97s-.309-.467-.38-1.313c-.01.58.068 1.181.283 1.783 0 0-1.322-2.007.727-5.28zm.63-.896c.01-.01.016-.02.023-.03l-.028.04c.033-.049.055-.083.067-.098-.027.036-.05.072-.078.107L7.687 20l-.054.073c.002-.002.005-.005.005-.008a.239.239 0 00.006-.006c-.006.008-.014.015-.02.024.066-.091.106-.14.106-.14-.022.03-.04.06-.06.091l.056-.084c-.024.032-.043.063-.067.095zm.068-.095a1.456 1.456 0 00-.046.078c.03-.056.05-.085.05-.085a1.685 1.685 0 01-.004.007zm-.04.07c-.192.337-.906 1.731-.52 3.117 0 0-.308-.603-.085-1.636-.137.573-.191 1.243.004 1.914 0 0-.7-1.303.595-3.387a4.006 4.006 0 00.006-.007zm-.426 2.859s-.507-1.102.433-2.865c-.158.308-.752 1.59-.433 2.865zm.47-2.936c-.012.025-.023.048-.037.07l.037-.07c-.022.05-.04.098-.059.146.036-.092.059-.146.059-.146zm-.357 2.764S7 21.7 7.67 20.088c-.152.39-.524 1.508-.298 2.618zm-.802-1.22c-1.223 1.778-.85 2.55-.85 2.55-.58-.837.85-2.55.85-2.55zm8.95 6.477c.353 1.076.733 2.452 1.133 4.216 0 0-.488-1.937-1.171-3.9.293.98.604 2.19.929 3.684 0 0-.473-1.96-1.13-3.907.28.964.58 2.163.889 3.658 0 0-1.651-7.138-3-7.474l-.059-.007a.381.381 0 00-.075 0h.001-.002s0-.003.004-.003h-.003s.058-.046.165-.045h.024c.494-.009 1.905.704 3.668 8.029 0 0-.58-2.173-1.373-4.252zM18.1 30.36s-1.102 0-3.375-5.164c0 0 1.929 3.953 3.375 5.164zm.552-.07s-1.282 0-3.927-5.094c0 0 2.448 3.508 4.285 4.583 0 0-.511 0-1.551-1.01.462.492.931.924 1.365 1.199 0 0-.804-.001-2.449-2.22.712.997 1.547 2.024 2.277 2.542zm-5.763-5.912l-.008-.001-.006-.002h.002a.09.09 0 01.053-.012h.017c.29 0 1.444.5 3.007 7.636 0 0-.473-1.967-1.104-3.901.311 1.075.648 2.456 1.011 4.234 0 0-.695-3.116-1.517-5.447.37 1.167.796 2.87 1.264 5.352 0 0-.736-3.559-1.559-5.887.37 1.158.813 2.986 1.306 5.864 0 0-.799-4.253-1.631-6.493.36 1.068.816 2.965 1.332 6.325 0 0-1.272-7.523-2.167-7.668zm5.674 6.806c-1.241-.32-2.734-3.3-2.734-3.3 1.528 2.663 2.734 3.3 2.734 3.3zm-.284.164c-1.031-.31-2.254-3.02-2.427-3.415 1.223 2.841 2.188 3.52 2.188 3.52-1.004-.343-2.21-3.568-2.21-3.568 1.369 2.794 2.449 3.463 2.449 3.463zm-.456.283c-.844-.337-1.852-3.318-1.979-3.705 1.004 3.113 1.798 3.858 1.798 3.858-.823-.376-1.813-3.9-1.813-3.9 1.115 3.024 1.994 3.747 1.994 3.747zm-.534.07c-.662-.367-1.46-3.816-1.46-3.816.814 3.08 1.46 3.816 1.46 3.816zm-4.203-7.703c.901-.713 1.56 1.074 1.56 1.074-.796-1.423-1.56-1.074-1.56-1.074zm.668 21.755c-1.012-.23-1.621.546-1.621.546.83-1.218 1.621-.546 1.621-.546zm.062.258c-1.028-.212-1.643.496-1.643.496.842-1.11 1.643-.496 1.643-.496zm.04.198c-.926-.144-1.48.342-1.48.342.758-.763 1.48-.342 1.48-.342zm-1.42.614c.8-.901 1.562-.404 1.562-.404-.977-.173-1.561.404-1.561.404zm1.786-.185c-1.167-.184-1.866.437-1.866.437.956-.972 1.866-.437 1.866-.437zm-4.91-2.92c-.669.085-1.217.818-1.217.818.77-1.153 1.217-.819 1.217-.819zm.142.169c-.668.082-1.218.818-1.218.818.773-1.155 1.218-.818 1.218-.818zm.081.188c-.614.08-1.116.777-1.116.777.707-1.094 1.116-.777 1.116-.777zm.122.208c-.657.074-1.196.715-1.196.715.757-1.008 1.196-.715 1.196-.715zm.103.201c-.615.06-1.118.584-1.118.584.709-.823 1.118-.584 1.118-.584zm.12.148c-.614.06-1.117.582-1.117.582.707-.821 1.117-.582 1.117-.582zm.162.148c-.614.06-1.116.584-1.116.584.707-.824 1.116-.584 1.116-.584zm.163.146c-.614.06-1.118.582-1.118.582.709-.822 1.118-.582 1.118-.582zm.284.067c-.713.067-1.298.655-1.298.655.823-.926 1.298-.655 1.298-.655zm-2.19.062c-.276-.322-1.12-.85-1.12-.85.865.264 1.12.85 1.12.85zm-.117.133c-.255-.308-1.035-.818-1.035-.818.798.254 1.035.818 1.035.818zm-.064.141c-.243-.294-.983-.782-.983-.782.759.244.983.782.983.782zm-.118.1c-.215-.253-.874-.673-.874-.673.676.21.874.673.874.673zm-.117.11c-.187-.228-.757-.605-.757-.605.584.188.757.606.757.606zM1.267 30.383c.083-.135.008-.367.008-.367.364.155-.008.367-.008.367zm.405-1.874s-.125 1.575-.927 1.208c0 0 .705.204.927-1.208zM.82 29.62s.43-.249.746-1c0 0-.19.924-.746 1zm3.487 3.664s-1.325-.505-1.476-.111c0 0-.14-.557 1.476.11zm.628.566s-.033.385-.52.273c0 0 .355.026.52-.274zm1.414-.044c-.974.437-.684.865-.684.865-.407-.565.684-.865.684-.865zm-.752.264c.164-.555-.123-.563-.123-.563.373-.138.123.563.123.563zm.736-.135c-.769.454-.362.957-.362.957-.565-.623.362-.957.362-.957zm.904.778c.023.616.662.711.662.711-.81 0-.662-.71-.662-.71zm.008-.17c.092-.411-.166-.427-.166-.427.374-.104.166.426.166.426zm1.176.702s1.11.487-.174.941c0 0 1.108-.41.174-.94zm.222.428c-.14.556-1.018.292-1.018.292.878.101 1.018-.292 1.018-.292zm3.825-.368c-.555-.394-1.034.3-1.034.3.588-.884 1.034-.3 1.034-.3zm.24.281s.696-.204 1.133.857c0 0-.463-.882-1.134-.857zm1.24.309l-.006.008.006-.008c.212-.346.83.232.83.232-.622-.398-.797-.27-.83-.232zm-4.36-.463s-.026-.64 1.085-.274c0 0-.919-.266-1.085.274zm-.331.396s.504-.377-.655-.565c0 0 1.3.12.655.565zm2.98-.797s-1.119-.626-1.523.078c0 0 .206-.822 1.523-.078zm-9.04-3.374s.184-.299.761.574c0 0-.515-.684-.761-.574zM6.5 34.193s-.215.941-.496.608c0 0 .248.111.496-.608zm10.557 1.793c-1.44-.142-1.348.323-1.348.323-.214-.614 1.348-.323 1.348-.323zm-1.928-.993c-.556.308-.341 1.041-.341 1.041-.435-.679.341-1.041.341-1.041zM1.74 32.187c-.662.259-.5-.176-.5-.176-.03.329.5.176.5.176zm-.456-.274s.17.297.552-.215c0 0-.412.642-.552.215zm.391-.152s-.215.327-.421.014c0 0 .214.191.421-.014zm-.295-.403c-.275.155-.062.364-.033.39-.368-.308.033-.39.033-.39zm-.033.39l.003.004-.003-.003zm.04-.3s-.148.213.376.236c0 0-.611.046-.376-.236zm.058-.046s.399.07.496-.48c0 0-.067.661-.496.48zm1.157 1.524s.044-.191-.565.014c0 0 .66-.334.565-.014zm1.585-1.25c.485-.075.477.466.477.466-.117-.489-.477-.465-.477-.465zm-.068 1.907c.115-.367-.666-.464-.946-.487 1.29.094.946.487.946.487zm-.946-.487c-.032-.001-.063-.005-.096-.006l.096.006zm1.225.2s.384.027.007.62c0 0 .283-.484-.007-.62zm9.48-22.683c.181.109.415.021.579.18 0 0 .155-.325-.184-.533 0 0-.158-.104-.396-.095 0 0-.215-.03-.253-.086 0 0 .071.425.253.534zm.735-.061c.133-.89-.844-.558-.844-.558.788-.03.844.558.844.558zm-1.318-.373c.388-.165.429-.508.429-.508.087-.026.232-.157.232-.157l.102.037c.153.232.474.205.474.205l.164.102c-.03.35.176.445.176.445s-.017-.187.128-.237c.142-.05.587.432.677.504.09.075.017.153.017.153-.017.024-.01.046-.029.069-.1-.088-.292-.294-.682.064 0 0 .377-.16.604.006-.029.036-.038.05-.063.086l-.019-.009c-.355-.175-.629.158-.629.158.14.031.413.143.4.209a1.08 1.08 0 00-.092.15 1.324 1.324 0 00-.096.288c-.019.11-.053.075-.178.075-.126 0-.137.043-.161.09-.023.05-.089.11-.089.11s-.024-.17-.083-.495c-.06-.326-.5-.055-.802.049-.304.104-.494-.075-.594-.27-.1-.197-.307-.576-.307-.576.322-.052.421-.549.421-.549zm1.097 1.358s-.153 2.012-.697 1.838c.097 0 .368-.17.697-1.838zm-.734 1.83c.013.005.025.005.037.008-.024 0-.037-.009-.037-.009zm-.9-2.284c.322 1.329 1.378.69 1.378.69-1.215.924-1.378-.69-1.378-.69zm1.306.989c-1.369 1.073-1.549-.798-1.549-.798.36 1.54 1.549.798 1.549.798zm-.093.353c-1.497 1.165-1.695-.867-1.695-.867.395 1.672 1.695.867 1.695.867zm-.098.386c-1.704 1.425-1.93-1.057-1.93-1.057.451 2.044 1.93 1.058 1.93 1.058z" fill="#1F1F1F"/></svg>