<svg width="184" height="49" fill="none" xmlns="http://www.w3.org/2000/svg"><path fill-rule="evenodd" clip-rule="evenodd" d="M5.497 20.206c.047.094.362.123.362.437 0 .313-.165 1.294.106.935.272-.359 1.689-2.323 1.796-2.463.105-.14.135-.14.119-.482-.014-.344.016-1.592-.09-1.64 0 0-.136-.248-.317-.092-.182.154-.649.514-.814.888-.167.374-.258.78-.454.78-.194 0-.24.046-.24.25 0 .202-.061.296-.213.326-.15.032-.346.048-.208.218.133.172.24.281.103.392-.135.11-.195.357-.15.451zM8.207 0h.052c.228.015.439.217.578.46.273.473.544-.246.544-.246.22.193.135.439-.017.58-.153.139-.102.228.102.139a.473.473 0 01.39.018c-.56.142-.255.667 0 .597.256-.07.187-.387.187-.387.34.019.392.283.306.614-.084.334.137.493.22.282.087-.211.324-.158.324-.158-.255.456.317.688.233.389-.085-.298.242-.336.242-.336-.068.14.12.35.391.298.27-.053 1.155.35 1.494.579.34.23.237-.438.237-.438-.287-1.071.221-.967.221-.967.137-.491.374-.35.374-.35-.17.37.272.193.272.193 1.02-.376 1.12-.223 1.116-.106-.005.12-.199.351.072.263.272-.086.242.154.206.213-.045.068-.17.087.084.087s.168.42-.17.44c-.34.017-.152.19-.152.19.576-.157.662.019.662.019-.528.036-.645.615-.645.615.354-.28.762-.141.762-.141-.117 0-.357.28-.408.404-.05.123 0 .227.137.193s.442-.334.442-.334-.034.456-.288.685c-.254.228-.188.685-.136.772.05.088.185.122.236-.193.053-.317.426-.299.426-.299-.154.054-.119.51-.119.51.17 0 .27.175.27.175-.253-.035-.338.335-.133.37.203.034.168.438.168.438.595-.034.647.79.647.79.153 0 .153.493.153.493.39.016.288.983.288.983.442-.07.29 1.528.29 1.528.523.216 1.54 1.277 1.607 1.56.07.287-.274.357-.688.287-.412-.072-.997-.214-1.962-.606-.962-.39-.583-.034-.962 0-.379.036-.31.107-.173.497.137.393-.205.393-.55.286-.344-.107-.104.141-.035.498.07.356-.101.32-.378.498-.275.178.207.355.515.604.31.25.106.64.483.854.379.214.55.817 1.067 1.315.516.498.033.925-.172 1.138-.206.214-.035.249.482.569.516.32-.035.925-.035.925.137-.464-.17-.464-.55-.534-.379-.07-.206-.035-.345.284-.136.321-.206.748-.241 1.352-.035.605-.104.89.173 1.139.275.248.034.747.171.853.139.107.173.07.277.321.102.247 0 .142.273.213.277.07.312.176.448.532.139.357.448.357.792.464.345.106-.188 1.047.04 1.211.25.179 1.05.265 1.465.353.378.08.508-.036.603.087.089.115.024.188-.33.345-.23.102-.033.14.305.261 1.109.402 1.535.589 1.603.873.068.285-1.148-.127-1.504.014-.357.14-.516-.135-1.416-.17-.9-.037-1.236-.402-1.508-.577-.272-.176-.44.263-.68.456-.237.193-.646-.193-1.137-.369-.492-.176.032.51.491 1.089.46.58.88 1.116 1.236 1.415.33.279.702.761 1.381 1.182.68.422.238.563-.255.879-.492.314-.29.49-.05.667.236.175.068.334-.171.44-.238.104-.39.28-.678.507-.29.228-.238.089-.546-.122-.304-.21-.168.07-.119.386.053.314-.015.263-.237.263-.221 0-.27-.053-.475-.283-.203-.226-.254-.086-.305.16-.052.246-.12.123-.424.087-.307-.034-.018.159.152.616.17.456.798 1.614 1.274 2.422.475.807-.323.79-1.174.913-.848.123-.932-.159-1.51-.368-.578-.212-.441.138-.39.438.05.298-1.088.123-1.427.123-.34 0-.305.122-.34.333-.033.21-.068.58-.05 1.616.017 1.034.22 1.275.357 1.648.146.404.186 1.458.236 2.317.052.862.306 1.492.46 1.738.151.247.204.176.185.44-.016.263.205.438.187.614-.017.175.053.194.188.28.135.089.102.177.153.475.051.296.203.334.406.438.206.105.155.228.085.42-.067.196.103.178.103.564 0 .386-.578.332-1.172.315-.595-.016-.474-.016-.831-.28-.358-.263-.206-.212-.221-.528-.016-.314 0-.28-.188-.51-.186-.226.086-.26.154-.49.069-.227.018-.28-.085-.509-.102-.228-.069-.175-.069-.597 0-.42-.009-.403-.484-1.23-.477-.824-.409-1.044-.687-1.665-.286-.637-.68-1.458-.815-2.09-.136-.632-.458.298-.8 1.106-.338.808-.338 1.406-.338 1.86 0 .457.101.72.356.772.255.053.24.388.51.774.272.385.406.421.68.49.272.07.135.3.323.44.185.14.475.334.78.386.307.053.221.28.238.473.019.195-.101.212-.357.228-.255.019-.732.038-1.205.019-.476-.019-.612-.105-.73-.21-.12-.106-.85-.773-1.038-.966-.186-.193-.27.105-.458.28-.185.176-.221.159-.508-.017-.29-.176-.443-.368-.46-.58-.016-.21 0-.614.017-.877.017-.264.136-.51.29-.685.153-.176.288-.474.389-.93.103-.457 0-3.422 0-3.949 0-.528.408-1.176.492-1.474.085-.3-.016-.14-.186-.282-.17-.14-.186-.105-.203-.35-.018-.246-.034-.212-.273-.351-.238-.14.476-.176.731-.298.255-.125-.832-.229-1.019-.352-.188-.123-.136-.405-.136-.826 0-.42-.052-.351-.322-.367-.27-.018-.358.402-.493.666s-.425.176-.714-.105c-.289-.282-.05-.545-.084-.948-.035-.405-.34-.053-.51.123-.17.174-.155.299-.51.299-.357 0-.102-.248-.118-.65-.017-.404-.357.158-.357.158S.685 41.38.617 41.552c-.067.177-.222.351-.357.3-.136-.052-.068-.438-.068-.438s3.278-8.18 3.33-8.339c.05-.157.05-.227-.035-.438-.084-.211-.119-.211-.34-.228-.22-.019-.186 0-.34-.193-.151-.194-.254-.107-.544-.071-.287.036-.135-.244-.067-.63.067-.387-.322-.02-.68-.02-.356 0-.084-.28-.186-.649-.1-.368.118-.351.341-.385.22-.037.305-.142.356-.37.05-.228-.12-.193-.425-.245-.305-.053-.186-.123-.186-.421 0-.3-.086-.387-.39-.439-.306-.054-.19-.16-.052-.317.136-.156.474-.631.712-.964.24-.334.493-.983.63-1.246.136-.265.458-.212.797-.28.34-.072.29-.547.357-.634.07-.087.085-.246-.085-.44-.169-.192-.084-.245.018-.402.1-.16.067-.23-.086-.351-.153-.122-.135-.053-.17-.282-.034-.227-.05-.104-.27-.192-.221-.088-.103-.352-.103-.79 0-.44-.288-1-.679-1.421-.391-.422.544-.825.798-.949.254-.123.086-.316.135-.788.053-.476.053-.51.053-.721 0-.21.101-.245.203-.387.1-.14.152-.192.168-.543.018-.351.409-.615.648-.895.236-.282.424-.474.457-.773.035-.297.238-.28.493-.58.254-.298.39-.596.475-.877.086-.28.103-.367.272-.508.17-.141.29-.228.34-.44.05-.209.1-.333.272-.456.17-.122.526-.843.645-1.194.119-.352.56-.421.85-.438.288-.018.153-.124.22-.44.068-.315.374-.474.594-.683.221-.21.307-.248.613-.248.304 0 .203.036.306-.156.102-.194.102-.23.374-.264.27-.035.135-.265.168-.544.035-.282.102-.21.238-.298.136-.09.119-.106.084-.334-.033-.23.069-.106.239-.212.168-.104.084-.104.07-.386-.02-.281.304-.315.322-.51.015-.192-.409-.525-.646-.825-.238-.297-.595-.894-.833-1.229-.238-.333-.56.071-.594.246-.034.175.152.492.152.492-.288-.034-.475-.56-.628-.738-.154-.174-.289.09-.119.229.168.14.05.596.05.596s-.066-.21-.423-.455c-.358-.247-.425.193-.272.228.152.036.187.387.187.387-.715-.196-.731.386-.545.386.188 0 .323.227.358.368.033.14.238.37.238.37-.205.017-.493-.283-.68-.3-.186-.017-.17.21-.034.23.136.016.407.174.407.368 0 .193.187.474.187.474s-.271-.141-.458-.474c-.188-.334-.407-.035-.272.053a.65.65 0 01.254.525c-.016.195.051.51.051.51s-.254-.14-.287-.527c-.034-.386-.528-.404-.408-.175.12.228-.12.544-.12.544-.016-.702-1.035-1.071-1.29-1.247-.255-.175-.052-.561-.12-.79-.067-.228.086-.528.324-.737.237-.212.254-.299.254-.791 0-.491.409-.702.663-.702.254 0 .272-.087.306-.246.034-.158.12-.28.44-.299.324-.017.392-.034.545-.174.152-.141.306-.124.56-.036.253.087.187.123.476-.053.289-.175.661 0 .917.14.255.142.714.159.543-.28-.169-.44-.373-.035-.373-.035-.289-.264.135-.37-.17-.457-.306-.087-.221.37-.221.37-.644-.335-.068-.563-.357-.668-.287-.106-.304.333-.304.333-.442-.367.186-.526-.035-.754-.223-.23-.459.368-.459.368-.356-.492.307-.525.068-.772-.239-.246-.476.175-.476.175-.185-.262.288-.683.085-.79-.204-.106-.372.474-.372.474-.375-.335.236-.772.016-.86-.221-.086-.426.334-.426.334-.204-.281-.084-.579.17-.72.256-.14.664.017.645-.385-.015-.404-.491-.14-.491-.14.182-.408.391-.571.591-.584zm5.81 3.232c-.973-1.551-.287-1.718-.287-1.718-.342.356.288 1.718.288 1.718zm.074-1.788c-.266.93.625 2.309.625 2.309-1.478-1.586-.755-2.583-.755-2.583-.081.263-.074.56-.016.854.006-.375.146-.58.146-.58zm.287 1.374a.32.32 0 00-.013-.037l.007.037-.044-.132c0-.005-.002-.008-.004-.013l-.001-.006a1.465 1.465 0 01-.09-.491c-.035-.995 1.034-1.028 1.034-1.028-.2.067-.36.157-.486.26.268-.112.532-.12.532-.12-1.268.369-.934 1.53-.934 1.53zm.591.935c-1.318-1.919.675-2.203.675-2.203-1.604.617-.675 2.203-.675 2.203zm.35.326c-1.286-2.08.544-2.209.544-2.209-1.48.559-.61 2.097-.544 2.209l.005.006-.005-.006zm.451-1.664c-.974.344-.388 1.61-.388 1.61-.814-1.67.388-1.61.388-1.61zm.025 2.203c-.953-1.398.252-1.741.252-1.741-.905.473-.252 1.741-.252 1.741zm.011-1.114c-.136.404.161 1.28.161 1.28-.482-.817-.16-1.28-.16-1.28zm.022.226s.31-.025.517-.356c0 0-.332.747-.517.356zm-1.713.277c-.604-.62-.303-.905-.303-.905-.026.25.14.533.395.81-.277-.406-.083-.597-.083-.597-.022.224.117.475.337.726-.167-.299-.026-.442-.026-.442-.022.212.122.45.34.685-.236-.337-.083-.494-.083-.494-.066.656 1.595 1.622 1.595 1.622-.016-.007-.033-.017-.051-.026l.051.026c-3.644-1.682-2.797-2.43-2.797-2.43-.036.316.237.678.625 1.025zm.788-.195c-.029.323.317.724.669 1.041-.642-.61-.427-.886-.427-.886-.047.585 1.142 1.445 1.142 1.445a1.5 1.5 0 01-.085-.059l.085.06c-1.804-1.109-1.384-1.601-1.384-1.601zm.52.344c-.035.508.864 1.256.864 1.256-1.125-.87-.864-1.256-.864-1.256zm1.129 1.446c-.883-.877.123-.925.123-.925-.663.332-.123.925-.123.925zm-.116-.984c-.218-.26.07-.414.07-.414-.105.095-.07.414-.07.414zm.012.497s.504.06.298.677c0 0 .01-.426-.298-.677zm1.445 2.88s.48-.105.137 1.684c0 0 .127-1.446-.137-1.683zm-.298-1.042s.469.096.206 1.007c0 0 .113-.721-.206-1.007zm-.827.782l.008-.008-.008.008s.5-.71.399-1.08c-.008-.018.153.143-.032.546.123-.228.221-.483.16-.663-.006-.02.17.13.013.494.122-.219.201-.443.137-.613-.012-.031.505.345-.677 1.316zm.625-1.403a.417.417 0 01-.013.086c-.003.01-.003.016-.005.026V6.44v.004s-.04-.365-.596-.486c0 0 .206-.005.377.06a.835.835 0 00-.341-.19s.183-.008.344.072a.72.72 0 00-.311-.226s.586-.033.545.629v.03zm-.671 1.238l.012-.022-.012.022s.266-.62.025-1.032c0 0 .132.096.154.337a.932.932 0 00-.145-.574s.152.092.208.322a.982.982 0 00-.196-.57s.723.38-.046 1.517zm.839-.51s.766 1.067-1.092 2.063l.04-.035-.04.035s.579-.632.42-1.293c0 0 .194.44-.115.94.199-.28.397-.694.274-1.118 0 0 .183.343.006.783.15-.268.243-.586.135-.913 0 0 .19.313.055.733.14-.267.21-.574.094-.886 0 0 .16.233.12.575a1.02 1.02 0 00.002-.718s.13.183.141.466a1.059 1.059 0 00-.04-.632zm-1.192 2.193a.12.12 0 00-.002-.021.406.406 0 01-.005-.021l.004.042a1.358 1.358 0 01-.035-.326.742.742 0 010-.087c-.027-.947.448-.986.448-.986-.176.11-.278.325-.338.55a.493.493 0 01.362-.241.682.682 0 00-.334.369.472.472 0 01.287-.144c-.287.116-.368.417-.387.63a1.99 1.99 0 000 .235zm.275-3.638c-.118.14-.164.332-.172.534.06-.203.18-.286.18-.286-.323.421.035 1.376.035 1.376-.687-1.221-.043-1.624-.043-1.624zm.634 4.314c.001-.002.003-.002.006-.003l-.008.003.029-.01-.02.005c.06-.019.339-.183.262-1.42 0 0 .114.7-.004 1.12.094-.231.163-.634.11-1.343 0 0 .151.765.01 1.254.114-.267.194-.71.126-1.456 0 0 .42 1.772-.51 1.85zm-.005 0h.005-.005.002-.002zm.011-.005l-.01.005c.004 0 .007-.003.01-.005zm-.038-.09a.86.86 0 01-.166-.339c-.002.326.124.528.124.528-.63-.723.206-1.434.206-1.434-.256.514-.088.9-.088.9a.726.726 0 01-.1-.319c-.028.31.067.509.067.509a.791.791 0 01-.136-.401c-.03.34.093.556.093.556zm-.294-.889c-.39.555.115 1.1.115 1.1-.792-.59-.115-1.1-.115-1.1zm.986.462s.173.96-.767.734c0 0 .779.071.767-.734zM16.24 6.579c-.01-.006-.021-.01-.03-.017a.34.34 0 00.03.017c-3.253-1.436-2.422-2.47-2.422-2.47-.042.28.059.557.236.82-.177-.404.009-.645.009-.645-.043.303.084.606.3.887-.258-.455-.056-.73-.056-.73-.053.382.175.762.49 1.093-.432-.543-.196-.882-.196-.882-.036.269.074.535.251.782-.188-.368-.039-.589-.039-.589-.043.348.174.696.456.988-.444-.517-.24-.849-.24-.849-.093.804 1.21 1.595 1.21 1.595zm-.045-.175v-.008c0 .003-.002.005-.003.008l.001-.011-.003.01s.002-.035-.003-.094c-.033-.163-.19-.5-.895-.746 0 0 .294.05.555.176a1.997 1.997 0 00-.59-.35s.304.057.575.21a2.083 2.083 0 00-.607-.421s.22.05.46.175a2.339 2.339 0 00-.513-.351s1.076.264 1.07 1.079c.003.017 0 .035 0 .054.003.014 0 .031 0 .047a.43.43 0 01-.048.222zm-4.023-3.111c-.207-.341-.095-.62-.095-.62-.06.873 1.538 1.489 1.538 1.489a4.524 4.524 0 01-.241-.067c-2.614-.743-2.079-1.93-2.079-1.93a.98.98 0 00.187.624.71.71 0 01.013-.448c-.027.337.176.641.463.9-.27-.387-.132-.708-.132-.708-.018.281.129.538.346.76zm.79-.146c.119.184.231.415.33.699 0 0-.222-.458-.61-.876.122.185.24.43.34.754 0 0-.213-.495-.578-.898.108.17.217.409.308.74 0 0-.354-.938-.914-1.191h.011c.11 0 1.107.04 1.7 1.578 0 0-.213-.4-.587-.806zm-1.43.286C12.4 4.08 13.6 4.6 13.6 4.6c-1.004-.382-1.65-.718-2.06-1.005-1.45-.937-.855-1.464-.855-1.464-.075.219.011.456.192.695-.046-.239.1-.363.1-.363-.108.308.157.651.555.97zm2.202 1.551c-.014.002-.025.002-.038.002h.038l-.042.005.042-.001a3.49 3.49 0 01-.413.015c-2.047.02-1.942-1.422-1.942-1.422.075.344.244.602.459.798-.212-.325-.188-.657-.188-.657.078.365.272.625.513.81-.23-.301-.208-.635-.208-.635.173.819 1.007 1.023 1.468 1.075.188.016.311.01.311.01zm-.053-.175c-1.066.036-1.42-.666-1.42-.666.456.44 1.42.666 1.42.666zm-3.054-1.2c-.041-.336.05-.603.05-.603-.045.405.053.733.21.992-.14-.403-.016-.783-.016-.783-.057.534.153.915.405 1.174-.298-.428-.145-.945-.145-.945-.097 1.033.84 1.401.84 1.401a3.09 3.09 0 01-.34-.106c-.01-.004-.017-.01-.026-.01a2.305 2.305 0 01-.092-.039c-1.45-.62-.996-1.983-.996-1.983-.04.35.01.648.11.903zm-.06.482s-.306-.49-.646-.245c0 0 .322-.508.645.245zM8.836 1.604s-.203-1.47-.98-1.26c0 0 .88-.646.98 1.26zm-.795-.489c.442-.018.186-.578.186-.578.68.788-.186.578-.186.578zm.848-.106s.54-.472.524-.577c0 0 .135.228-.524.577zm.491 1.315c-1.018-.91.119-1.315.119-1.315-.78.666-.119 1.315-.119 1.315zm.068-.928c-.221.541.27 1.242.27 1.242-.83-.945-.27-1.242-.27-1.242zm.712-.088s.439.227-.34 1.33c0 0 .459-.91.34-1.33zm-.577.28c.186.245.422.035.422.035-.287.875-.422-.036-.422-.036zm.729 1.68c-.56-.525-.051-1.102-.051-1.102-.07.154-.089.319-.087.475a.886.886 0 01.108-.247c-.138.387.03.874.03.874s0-.003-.003-.004l.003.004zM8.857 1.823s-.31-.578-.596-.602c0 0 .458-.103.596.602zm1.041.256c-.186.704-.311-.09-.311-.09.087.295.311.09.311.09zM8.71 4.499s.332-.628 1.747.422c0 0-1.216-.755-1.747-.422zm2.706.434c-1.037.049-.997-.832-.997-.832a.968.968 0 00.349.542c-.135-.204-.126-.439-.126-.439.126.518.548.655.828.69.155.015.263.002.263.002l-.05.008c.03 0 .05-.003.05-.003a1.649 1.649 0 01-.317.032zm-.674.041s-.397-.385-.62-.385c0 0 .198-.243.62.385zM8.484 4.87s.386-.741 1.823.078c0 0-1.127-.602-1.823-.078zm-.505.811a.677.677 0 00-.014.036s.004-.015.014-.036c.569-1.477 2.142-.733 2.142-.733-1.568-.38-2.058.539-2.142.733zm1.002.765c-.918-1.307.707-1.449.707-1.449-1.352.333-.707 1.449-.707 1.449zm-.074-.468zm.57-.288c-.536-.094-.57.233-.57.288-.02-.603.57-.288.57-.288zm-.993.86s-.124-.476-.854-.488c0 0 .841-.18.854.488zm.83-1.59c-1.176.384-1.028 1.063-1.028 1.063-.41-.806 1.029-1.063 1.029-1.063zm-.632.423c-.173.154-.085.486-.085.486-.299-.19.085-.486.085-.486zm-.023-.82s-.62-.282-1.005.014c0 0 .36-.513 1.005-.014zm-1.005.077s-.643 0-.818.447c0 0 .063-.652.818-.447zm.869.026s-1.477.153-1.624.793c0 0-.198-.807 1.624-.793zM7.908 5.92l.007.001-.007-.001c-.753-.259.39-.998.39-.998-.866.766-.45.974-.39.998zm-.39-.1c-.384.884.298 1.025.298 1.025-.893-.037-.299-1.026-.299-1.026zm.05.282c-.075.218.136.55.136.55-.408-.244-.136-.55-.136-.55zm.187 1.692s-.226-.372-.957-.168c0 0 .806-.46.957.168zm-.4-.939h.044c.026-.001.044.002.044.002h-.007c-.409.078-.313.55-.313.55-.066-.258-.02-.396.058-.47-.315.173-.216.534-.216.534-.087-.252-.043-.402.046-.491-.345.197-.228.543-.228.543-.076-.178-.076-.308-.034-.405-.227.232-.123.52-.123.52-.331-.725.457-.784.729-.783zm-.59-1.635c-.583.156-.102 1.625-.102 1.625-.302-.876-.28-1.285-.175-1.474-.367.429.124 1.551.124 1.551-.375-.822-.392-1.25-.289-1.473a.673.673 0 00-.096.148c-.216.56.316 1.529.316 1.529a4.475 4.475 0 01-.403-.867c.056.642.388 1.341.388 1.341-.678-1.364-.58-1.954-.33-2.206a.572.572 0 01.314-.164c0-.002.004-.002.005-.002a.249.249 0 01.032-.005c.009-.003.018-.003.025-.004h.011a.81.81 0 01.107-.008h.04c.034 0 .054.005.054.005h-.004l.004.002-.02.002zM6.75 6.844s.322-.576-.1-1.371c0 0 .608.563.1 1.37zm-1.13.767c-.678-.614.337-1.165.337-1.165-.815.67-.367 1.136-.337 1.165l.003.001H5.62zm.448.335C5.09 7.176 5.98 6.56 5.98 6.56c-.656.745.088 1.385.088 1.385zm.508.41c-1.189-.987-.558-1.691-.558-1.691-.272.96.558 1.69.558 1.69zm.484-.039c-1.19-.448-.98-1.55-.98-1.55 0 1.026.98 1.55.98 1.55zm.607.167c-.013-.155-.36-.372-.36-.372.472.103.36.372.36.372zM6.701 7.6c-.012.321.52.539.52.539-.693-.039-.52-.539-.52-.539zm-1.013.406c-.103-.152-.047-.33-.047-.33.018.45.613.54.613.54-1.103 0-.867-.693-.867-.693.009.223.141.377.3.483zm.305.287c.906.204.732.768.732.768-.012-.436-.732-.768-.732-.768zm.595.14s.534-.205.695.283c0 0-.272-.321-.695-.282zm.604-.46s-.36-.303.1-.255c0 0-.214.112-.1.254zm.13.854c-.035.15.115.518.115.518-.256-.333-.116-.518-.116-.518zM9.645 3.55c.43-.498.772.134.772.134-.386-.427-.772-.134-.772-.134zm-.163.347s-.646-.435.454-.614c0 0-.783.189-.454.614zm.662-.614s-.353-.391-1.06-.009c0 0 .62-.604 1.06.009zm-.681-.311s-.73.214-.603.605c0 0-.377-.4.603-.605zm-.696-.168s.48-.463 1.05.125c0 0-.484-.366-1.05-.125zm-.38.408s-.3-.446.611-.604c0 0-.627.196-.61.604zM9.49 2.6S9 2.163 8.338 2.404c0 0 .68-.516 1.151.196zm-1.513-.019s.008-.747.868-.427c0 0-.68-.028-.868.427zm.043-.737s.447-.56.998.257c0 0-.448-.605-.998-.257zm.155.097s.328-.222.62.108c0 0-.354-.196-.62-.108zm1.091.605s-.472-.117-.714.054c0 0 .113-.338.714-.054zm.388.383s-.395-.163-.714.061c0 0 .233-.374.714-.061zm-1.24-1.335s-.85.197-.747.668c0 0-.345-.517.747-.668zm.149-.037l.007.012c-.003-.005-.006-.008-.007-.012-.047-.058-.308-.346-.922-.106 0 0 .56-.435.922.106zm-1.282.188s-.096-.756.765-.542c0 0-.612-.071-.765.542zM8.407 4.77c-1.578.4-1.446 1.06-1.42 1.151-.335-.915 1.42-1.151 1.42-1.151zm-1.42 1.15l.004.013-.003-.013zm1.103-.958c-1.283.615-.943 1.149-.847 1.265-.696-.746.847-1.265.847-1.265zm-.847 1.265l.023.024s-.009-.007-.023-.024zm.527-.964c-.504.467-.468.916-.468.916-.258-.467.468-.916.468-.916zm-.946 1.612s.496-.202.192-.807c0 0 .534.613-.192.807zm-.114-.167s.042-.575-.125-1.087c0 0 .353.458.125 1.087zm1.007-.246s-.248-.383.205-.227c0 0-.24 0-.205.227zm8.673 27.79s.6-.137.759.679c0 0-.281-.636-.76-.68zm-.04.046s-.48-.443-.9-.227c0 0 .47-.444.9.227zm.632.615s-1.2-.898-1.723-.521c0 0 .37-.739 1.723.52zm-1.266.515l.005.007-.005-.007zm.934-.475c-1.14-.026-.963.415-.934.475-.397-.712.934-.475.934-.475zm-1.622-.155c.34-.914 1.8.115 1.8.115-1.435-.787-1.762-.202-1.8-.115 0 .004-.004.006-.005.009l.005-.01zm-.006.404zm1.446-.364c-1.355-.424-1.444.21-1.446.364-.04-1.035 1.446-.364 1.446-.364zm-.433.006c-.677.002-.938.361-.938.361.108-.525.938-.36.938-.36zm-3.272.011s.597-.135.756.681c0 0-.283-.637-.756-.68zm-.94-.18s.465-.444.897.228c0 0-.48-.442-.898-.228zm-.194.322s.37-.74 1.721.522c0 0-1.198-.9-1.721-.522zm.458 1.035c.001.002.003.003.003.006 0 0 0-.003-.003-.006zm.933-.476c-1.139-.023-.962.417-.933.476-.397-.71.933-.476.933-.476zm-1.62-.154a.015.015 0 00-.005.011s0-.004.005-.01c.337-.914 1.799.116 1.799.116-1.437-.788-1.761-.203-1.799-.117zm-.008.405c0 .011 0 .023.002.032 0 0-.002-.011-.002-.032zm1.445-.364c-1.351-.423-1.442.21-1.445.364-.039-1.034 1.445-.364 1.445-.364zm-.43.006c-.678.002-.94.36-.94.36.109-.524.94-.36.94-.36zM9.15 33.684s.61.045.54.873c0 0-.095-.692-.54-.873zm-.853-.45s.57-.29.799.483c0 0-.34-.567-.799-.483zm-.273.251s.56-.6 1.508 1.007c0 0-.902-1.214-1.508-1.007zm.157 1.129c-.187-.8 1.023-.182 1.023-.182-1.088-.361-1.036.117-1.023.182l.001.007-.001-.007zm-.488-.807l-.007.008.007-.008zm1.693.64c-1.159-1.177-1.63-.71-1.693-.64.576-.777 1.693.64 1.693.64zm-1.811-.253l-.008.031.008-.031zm1.486.075c-1.181-.804-1.441-.221-1.486-.075.246-1.005 1.486.075 1.486.075zm-1.414-.05c.248-.473.998-.072.998-.072-.65-.197-.998.071-.998.071zm-.104-1.76s.612.044.54.874c0 0-.095-.692-.54-.874zm-.85-.449s.57-.29.799.483c0 0-.338-.567-.8-.483zm-.274.25s.559-.6 1.51 1.008c0 0-.904-1.214-1.51-1.008zm.154 1.13s0 .003.002.005c0 0-.002-.002-.002-.006-.184-.8 1.026-.183 1.026-.183-1.088-.359-1.036.12-1.026.183zm-.486-.808c.575-.777 1.695.64 1.695.64-1.162-1.177-1.634-.712-1.695-.64 0 .003-.003.005-.008.009 0 0 .005-.004.008-.009zm1.37.462c-1.183-.805-1.442-.221-1.486-.074.245-1.006 1.485.074 1.485.074zm-1.486-.074l-.01.029.01-.03zm1.068-.049c-.649-.196-1 .072-1 .072.25-.471 1-.072 1-.072zm-2.651-.658s-.095-.694-.54-.876c0 0 .61.044.54.876zm-1.392-1.324s.57-.29.8.482c0 0-.34-.566-.8-.482zm-.272.25s.557-.599 1.509 1.009c0 0-.905-1.215-1.509-1.009zm1.18.948c-1.09-.362-1.039.117-1.027.182-.185-.8 1.027-.182 1.027-.182zm-1.027.182l.002.006-.002-.006zm-.486-.808l-.007.009s.002-.005.007-.01zm1.695.64c-1.16-1.177-1.633-.713-1.695-.64.576-.776 1.695.64 1.695.64zm-1.813-.253c-.002.01-.006.02-.007.03 0 0 0-.01.007-.03zm1.487.074c-1.182-.802-1.442-.22-1.487-.074.248-1.004 1.487.074 1.487.074zm-.417-.121c-.65-.197-.998.07-.998.07.248-.47.998-.07.998-.07zm8.21 1.843c.417-.712.934-.377.934-.377-.462-.123-.934.377-.934.377zm1.88-.22c-.325-.347-.92-.095-.92-.095.624-.486.92.095.92.095zm.077.369c-.371-.536-1.794-.106-1.794-.106 1.684-.718 1.794.105 1.794.105zm-.77.817c.049-.046.358-.4-.723-.772 0 0 1.33.24.724.772l-.006.004.006-.004zm.854-.356l.001.013v-.013zm-1.732-.515s1.71-.462 1.732.515c-.009-.093-.125-.758-1.732-.515zm1.606.9c-.006.019-.012.03-.012.03l.012-.03zm-1.24-.845s1.614-.117 1.24.845c.046-.145.168-.773-1.24-.845zm.403.157s.834.132.765.663c0 0-.13-.428-.765-.663zM5.44 31.654c-.056-.44-.565-.705-.565-.705.641.155.565.705.565.705zm-.035.039c.544.405.22.832.22.832.148-.384-.22-.832-.22-.832zm-.51-.589c1.047 1.26.49 1.596.49 1.596.268-.479-.49-1.596-.49-1.596zm-.013.307s.246 1.23-.326.856c.048.028.4.196.326-.856zm-.326.856l-.005-.002.005.002zm.347-1.022s.873 1.36.176 1.664c.063-.032.508-.326-.176-1.664zm.176 1.664l-.006.003a.012.012 0 00.006-.003zm-.315.002c.12-.001.61-.079.217-1.332 0 0 .593 1.378-.217 1.332zm-.025-.001h.025-.025zm.021-.067s.266-.24.236-.864c0 0 .167.767-.236.864zm-2.818-5.047c.608.26.445.79.445.79.014-.442-.445-.79-.445-.79zm.487 1.68c.207-.353-.083-.858-.083-.858.472.492.083.859.083.859zm-.265.133c.341-.428-.225-1.658-.225-1.658.83 1.42.225 1.658.225 1.658zm-.745-.566c.04.032.36.259.456-.793 0 0 .049 1.257-.456.793l-.007-.005c.002 0 .004.002.007.005zm.411.72c.071-.023.552-.24.094-1.671 0 0 .64 1.488-.094 1.671a.066.066 0 01-.007.002l.007-.002zm.115-1.328s.365 1.458-.424 1.277c.117.019.612.025.424-1.277zm-.424 1.277l-.026-.005c.01 0 .017.002.026.005zm.006-.07s.3-.188.37-.81c0 0 .043.785-.37.81zm.777-.048c.604.211.431.663.431.663.021-.377-.43-.663-.43-.663zm.457 1.418c.213-.305-.068-.727-.068-.727.462.409.068.727.068.727zm-.463-1.284c.803 1.188.197 1.4.197 1.4.349-.369-.197-1.4-.197-1.4zm-.538.935l-.006-.005c.002.002.002.003.006.005.04.028.356.216.472-.681 0 0 .022 1.063-.472.68zm.52-.817s.615 1.252-.122 1.42c.068-.02.556-.209.122-1.42zm-.122 1.42a.027.027 0 01-.008.001l.008-.001zm.138-1.128s.337 1.229-.448 1.09c.118.014.612.01.448-1.09zm-.448 1.09l-.024-.003.024.003zm.008-.058s.304-.165.385-.697c0 0 .027.667-.385.697zm10.12 3.021s-.684-.143-1.06.153c0 0 .326-.467 1.06-.153zm-1.054.206s-.682.092-.821.48c0 0 0-.539.82-.48zm.92-.104s-1.546.335-1.636.88c0 0-.293-.63 1.636-.88zm-.21.241c-.838.746-.376.856-.31.867-.825-.104.31-.867.31-.867zm-.31.867l.006.001-.007-.001zm.409-1.007c-1.63.55-1.421 1.069-1.383 1.139-.449-.695 1.383-1.139 1.383-1.139zm-1.383 1.139a.028.028 0 00.005.009l-.005-.01zm1.067-.936c-1.296.681-.878 1.069-.764 1.15-.813-.51.764-1.15.764-1.15zm-.764 1.15c.008.007.015.01.024.016l-.024-.016zm.457-.86c-.485.451-.401.812-.401.812-.32-.343.401-.812.401-.812zm3.51-1.187s.404-.351.996.12c0 0-.588-.299-.997-.12zm-.008.05s-.64-.084-.854.24c0 0 .125-.498.854-.24zm-.829.537s-.118-.652 1.687-.404c0 0-1.478-.073-1.687.404zm.958.488c-.723-.3.484-.723.484-.723-.934.482-.541.698-.484.723l.006.003-.006-.003zm-.91-.12c-.247-.752 1.516-.706 1.516-.706-1.606.103-1.535.635-1.517.706 0 .005 0 .008.002.011 0 0-.002-.003-.002-.01zm.223.274l.02.022s-.01-.008-.02-.022zm.958-.873c-1.329.31-1.042.77-.958.873-.619-.67.958-.873.958-.873zm-.898.841c-.207-.394.553-.648.553-.648-.544.296-.553.648-.553.648zM4.7 31.985s.061-.67-.229-1.01c0 0 .436.28.229 1.01zm-1.012-1.628s.52-.331.91 1.508c0 0-.43-1.462-.91-1.508zm-.302.165c.565-.487 1.114 1.244 1.114 1.244-.624-1.527-1.056-1.286-1.114-1.244l-.008.006.008-.006zm-.16.308c-.002.008-.007.016-.01.026 0 0 .002-.01.01-.026zm1.07.645c-.709-1.193-1.008-.761-1.07-.645.37-.823 1.07.645 1.07.645zm4.808 4.334s-.453.283-.967-.278c0 0 .537.389.967.278zm.015-.048s.618.185.88-.105c0 0-.198.476-.88.105zm-.83-.267s1.45.306 1.728-.134c0 0 .02.665-1.728.134zm.853-.767l-.005-.005.005.005c.671.41-.582.638-.582.638.99-.327.634-.603.582-.638zm-.72.72c1.602.152 1.61-.383 1.605-.46.13.785-1.604.46-1.604.46zm1.605-.46l-.002-.009.002.01zm-.18-.302c-.007-.01-.013-.016-.017-.025 0 0 .004.009.017.025zm-1.078.708c1.36-.094 1.145-.593 1.078-.708.509.76-1.078.708-1.078.708zm.37-.135c.581-.206.641-.554.641-.554.15.425-.641.554-.641.554zM8.013.157s.458-.438.883.641c0 0-.345-.82-.883-.641zm1.181.866c-.264.153-.287.51-.287.51-.114-.51.287-.51.287-.51zm6.35 4.782c-.017-.006-.035-.013-.053-.017 0 0 .02.004.054.017zm.017.005a.044.044 0 00-.016-.005c.004 0 .01.002.016.005zm.55.596s-.24-.475-.55-.596c.15.052.504.215.55.596zM9.401 5.8c-.402.072-.378.475-.378.475C8.85 5.682 9.4 5.8 9.4 5.8zm8.824 3.684s1.834 1.3 1.43 1.63c0 0 .17-.22-1.43-1.63zm-.917.88s1.94.86 2.026.463c0 0 .384.728-2.026-.463zm1.71.33s.324.515-1.71-.33c0 0 1.639.61 1.71.33zm-.232-.105s.28.351-1.478-.225c0 0 1.416.416 1.478.225zm-1.027-.298c.349-.125.447-.61.447-.61.468.37-.133.546-.447.61a.518.518 0 01-.173.03s.07-.009.173-.03zm-1.622-1.778s.576-1.388-.555-2.073c0 0 1.385.42.555 2.073zm-.848-.577c-.401-.723-1.133-1.779-2.138-2.157 0 0 1.747.317 2.495 2.888 0 0-.016-.04-.049-.113l.049.113s-1.285-2.376-3.54-2.997c0 0 2.01.267 3.183 2.266zm-5.1-2.113s-.023-.97 2.62.331c0 0-2.174-.948-2.62-.331zm5.957 4.729s.804-.331-.22-1.147c.178.146.885.783.175 1.059 0 0 .297-.14.237-.46.004.121-.064.234-.267.312 0 0 .566-.262-.149-.91.13.122.604.608.114.821 0 0 .472-.244-.147-.853 0 0 1.238.838.257 1.178zm-.597-.28s.626-.147.412-.676c0 0 .412.574-.412.676zm-.028-.985c.14 0 .22-.039.266-.092-.158-.232-.48-.108-.48-.108.242-.16.393-.018.453.062-.208-.301-.58-.126-.58-.126.333-.267.527.014.589.13-.235-.492-.675-.219-.675-.219.45-.48.676.205.694.26.086-.101.045-.244.045-.244.214.484-.312.337-.312.337zm.07 1.102c-.412.823.214.943.214.943-.84-.045-.214-.943-.214-.943zm.07 0c-.279.708.144.807.144.807-.567-.036-.144-.807-.144-.807zm.144.705c-.349-.033-.089-.705-.089-.705-.171.618.089.705.089.705zm.084.25s.248-.195-.17-.644c0 0 .541.469.17.645zm0-.644c-.326-.236.1-.456.1-.456l.047-.017c-.336.207-.147.473-.147.473zm-.738 1.536c-.01.004-.015.004-.015.004.006 0 .009-.003.015-.004.061-.024.298-.157.1-.774 0 0 .402.648-.1.774zm-.583.019s.655.03.611-.66c0 0 .271.734-.611.66zm.497-.88s.158.865-.469.72c0 0 .469 0 .469-.72zm.227-.088c-.297-.207-.51.088-.51.088.312-.486.51-.088.51-.088zm-.34.088s.1.44-.285.543c0 0 .27-.264.284-.543zm.398-2.72c-.244-.326-.754-.088-.754-.088.417-.24.636-.063.716.034-.312-.425-.887-.084-.887-.084.504-.368.771-.107.875.047-.371-.622-1.046-.115-1.046-.115.798-.736 1.096.206 1.096.206zM9.855 5.158c-.334.69 1.411 2.676 1.411 2.676-2.235-2.433-1.412-2.676-1.412-2.676zm5.023 2.927c-.692-.797-1.255.12-1.255.12.563-1.106 1.255-.12 1.255-.12zm-1.095.12c.492-.882 1.095-.094 1.095-.094-.603-.636-1.095.093-1.095.093zm.186 0c.408-.63.909-.068.909-.068-.5-.454-.909.067-.909.067zm.137 0c.346-.43.772-.047.772-.047-.426-.309-.772.046-.772.046zm.15.07s-.553.5-.945-.2c0 0 .346.534.944.201zm.034.251c.148.381.793.226.793.226-.806.261-.793-.226-.793-.226zm-.08-.131s-.38.869-1.105 0c0 0 .7.69 1.105 0zm-1-.464c.16.7.7.63.7.63-.644.204-.7-.63-.7-.63zm.952-.346c-.282-.296-.78-.086-.78-.086.328-.155.536-.102.655-.029-.353-.247-.84-.008-.84-.008.54-.3.82-.065.921.06-.397-.555-1.037-.125-1.037-.125.783-.596 1.08.188 1.08.188zM14 7.575s-.552.617-.908.01c0 0 .391.442.908-.01zm-1.241-.46c.377-.158.575-.085.66-.027-.32-.248-.857.015-.857.015.276-.146.478-.169.619-.146-.377-.1-.823.135-.823.135.521-.297.825-.21.98-.1-.454-.374-1.142.083-1.142.083.966-.69 1.277.059 1.277.059-.002-.001-.004-.001-.004-.003a.035.035 0 00.004.005c-.245-.205-.714-.02-.714-.02zm.057.518c.005.016.006.03.01.05l-.01-.05zm.098.097c-.047-.243-.023-.394.03-.485-.156.122-.145.301-.128.388-.127-.465.183-.528.378-.525a.58.58 0 01.098.008l.04.006-.005.001.006.002c-.454.045-.442.454-.42.606.004.02.005.036.01.056 0 0-.006-.022-.01-.056zm-1.39-.234s-.01-.054-.005-.132c0 .042 0 .086.005.132zm.188-.164c0 .04 0 .082.004.13 0 0-.009-.053-.004-.13zm.76-.555c-.012 0-.027-.003-.039-.005-.02-.003-.037-.001-.057-.003a.94.94 0 00-.066.002c-.366.026-.421.346-.42.53-.008-.238.041-.383.118-.467-.242.112-.292.349-.296.498-.003-.24.061-.389.157-.479a.583.583 0 00-.35.51c.01-.529.383-.636.687-.634h.024a.665.665 0 01.245.024c.07.013.117.028.117.028-.013-.003-.024-.003-.037-.004.024.01.039.013.039.013-.008 0-.015 0-.021-.003l.022.01a.912.912 0 00-.123-.02zm-.582.524c.002.04.005.082.01.127 0 0-.01-.053-.01-.127zm-.317-.44c-.54.214-.367.808-.367.808-.299-.69.367-.808.367-.808zm.637.855l.043.05-.043-.05zm.09-.868c-.438.347-.197.734-.09.868-.54-.607.09-.868.09-.868zm-.566 1.322c-.85-.56-.297-1.107-.297-1.107-.392.547.297 1.107.297 1.107zm.488-.06c-.819.088-.613-.868-.613-.868-.022.857.542.87.613.867zm.364-.214c-.874.308-.783-.547-.783-.547.035.76.783.547.783.547zm-.011-.109c-.633-.263-.265-.688-.265-.688-.23.404.264.688.264.688zm-.07-.665c-.287.357.346.68.346.68-.794-.286-.346-.68-.346-.68zm.23.488c-.425-.322-.033-.451-.033-.451-.242.177.033.45.033.45zm-.666.618s.725.12.977-.498c0 0-.138.688-.977.498zm-.207-.036c.849.548 1.242-.296 1.242-.296-.402.987-1.242.296-1.242.296zm1.013.251s-.53.487-1.084-.167c0 0 .543.499 1.084.167zm-.021.63s.688.427.95-.225c0 0-.23.795-.95.225zm.788-.142c-.503.474-.859-.212-.859-.212.401.543.86.212.86.212zm-.067-.083c-.714.324-.552-.558-.552-.558-.02.773.552.558.552.558zm-.918.82s.472.343.712-.311c0 0-.196.808-.712.311zm-.125-.417c.39.535.699.214.699.214-.367.499-.699-.214-.699-.214zm.138-.415c-.013.593.48.57.48.57-.571.18-.48-.57-.48-.57zm-.138.664s-.356-.143.011-.83c0 0-.216.511-.01.83zm-1.26-1.34s-.437.226-.3.748c0 0-.334-.475.3-.748zm.1 1.021c-.607-.25-.24-.795-.24-.795-.183.545.24.795.24.795zm.231-.997a.589.589 0 00-.383.683c-.18-.647.383-.683.383-.683zm-.383.683l.003.017-.003-.017zm1.127-.173s-.505.333-.86-.321c0 0 .345.475.86.321zm-.148.154c-.596.416-.815-.355-.815-.355.31.627.815.355.815.355zm-.045.155s-.346.438-.85-.025c0 0 .517.344.85.025zm-.493 1.198s.757.295.939-.474c0 0-.149.9-.94.474zm.757.046s.412-.011.424-.378c0 0 .067.474-.424.378zm-.564-.662s.157.894-.86.575c.137.035.84.184.86-.575zm-.86.575a.438.438 0 01-.022-.008c.007.004.015.005.022.008zm.803-.03s.55-.011.689-.582c0 0 .012.675-.689.581zm.092-.144s.564-.26.378-.888c0 0 .345.652-.378.888zm.046-.2s.287-.274.115-.605c0 0 .297.344-.115.605zm-.712.308s.62-.108.482-.82c0 0 .287.737-.482.82zm-.068-.083s.54-.379.3-.819c0 0 .4.426-.3.819zm-.183.024s.448-.464.275-.83c0 0 .32.366-.275.83zm-.208-1.022c-.242.143-.02.714-.02.714-.336-.75.02-.714.02-.714zm-.127 1.318c.08-.087.616-.726.107-1.08 0 0 .691.212-.107 1.08l-.01.012.01-.012zm.529-.89s-.057-.308-.343-.32c0 0 .39-.108.343.32zm-.652.107c-.414.45.181.936.181.936-.802-.57-.181-.936-.181-.936zm.09.13c-.113.131-.023.523-.023.523-.25-.345.023-.522.023-.522zm.034.333s.253-.32.114-.57c0 0 .312.227-.114.57zm1.457.38s.172.854-1.054.544c0 0 1.02.19 1.054-.545zm-.194-.012s.16.472-.735.46c0 0 .711-.081.735-.46zm-.252-.109s.183.287-.437.476c0 0 .483-.25.437-.476zm-.689.025c-.677.64-.125 1.245-.125 1.245-.69-.689.125-1.245.125-1.245zm-.07 1.114c-.584-.699.437-1.066.437-1.066-.86.415-.436 1.066-.436 1.066zm.322-.877s-.377.367-.24.64c0 0-.287-.25.24-.64zm-.92-.309s.68.652-.457 1.08c0 0 .896-.428.458-1.08zm-.514 1.022s.552-.429.425-.927c0 0 .355.392-.425.927zm-.011-.167c.366-.415.195-.652.195-.652.31.2-.195.652-.195.652zm-.046.355c-.346-.463.126-.96.126-.96-.344.545-.126.96-.126.96zm1.182.368s.86.107.986-.783c0 0-.057 1.08-.986.783zm.867-.732c-.179.681-.88.578-.88.578.685-.086.853-.499.88-.578l.004-.015s0 .007-.004.015zm-.362.009s.195.355-.505.415c0 0 .527-.132.505-.415zm-.206-.047s.17.214-.253.307c0 0 .288-.118.253-.307zm-1.607.426s.377.45 1.216.154c0 0-.827.438-1.216-.154zm.218-.07c.299.296.894.14.894.14-.698.284-.894-.14-.894-.14zm.138 0s.563.129.505-.346c0 0 .182.594-.505.345zm-1.33-.19c.332-.498.905-.369.905-.369-.56.012-.905.368-.905.368zm.009.07s.392-.355.815-.285c0 0-.641.142-.815.286zm-.251.201s.678-.45 1.103-.223c0 0-.553-.073-1.103.223zm3.463.072s.495.722-.218 1.006c0 0 .586-.306.218-1.006zm-.068.143s.3.663-.458.793c0 0 .561-.225.458-.793zm-.894.534s.642.14.836-.428c0 0-.102.71-.836.428zm.63-.297c-.482.462-.883-.131-.883-.131.47.462.883.13.883.13zm-.055.651a.853.853 0 01-.955-.77c.173.71.955.77.955.77zm.526-.225s.622.208.288.758c.05-.096.196-.463-.288-.758zm.288.758l-.013.024c.006-.008.009-.015.013-.024zm-.322-.663s.504.26.16.652c0 0 .252-.343-.16-.652zm-.07.07c.425.226.093.475.093.475.206-.261-.093-.475-.093-.475zm-1.924-.642c.075 1.452 1.725 1.63 1.725 1.63-1.775 0-1.725-1.63-1.725-1.63zm.321 0c.048.764 1.355 1.35 1.355 1.35-1.48-.408-1.355-1.35-1.355-1.35zm1.568.714s.334.438-.401.427c0 0 .564-.072.401-.427zm-.905.07s.526.298.814-.022c0 0-.275.522-.814.022zm1.365.546s.32.818-.641.831c0 0 .814-.072.641-.831zm-.069.072s.023.854-.757.473c0 0 .723.263.757-.473zm-.195-.143s.218.628-.528.545c0 0 .655-.011.528-.545zm-.172-.094s.23.308-.092.427c0 0 .173-.225.092-.427zm-.299.817a.6.6 0 00.047.889c-.608-.415-.014-.928-.047-.89zm-.091.308s.08.557.62.545c0 0-.62.142-.62-.545zm.7.214c-.206.486-.552-.012-.552-.012.334.355.552.012.552.012zm-.597-.12s.47.192.55-.2c0 0-.045.533-.55.2zm.356-.094c-.356.178-.401-.152-.401-.152.114.212.401.152.401.152zm.043.638c.063-.018.487-.174.37-.9 0 0 .261.764-.37.9l-.008.002c.001 0 .006 0 .008-.002zm-.354.418s.426 0 .598-.391c0 0-.138.51-.598.39zm-.228-.143s.446.06.631-.165c.023-.027-.195.355-.631.165zm.818-.61s.105-.33.05-.486c0 0 .11.271-.05.486zm-.397.493c-.47.188-.5-.342-.5-.342.079.448.5.342.5.342zm-.543-.076c.012.48.458.554.458.554-.538-.043-.458-.554-.458-.554zm3.383-1.63l.05-.319s-.014.113-.05.318c-1.43 9.036-7.844 12.318-7.844 12.318 6.102-3.983 7.58-10.775 7.844-12.318zm.19.473c.034-.198.067-.396.098-.601 0 0-.025.218-.097.601-1.512 8.721-7.694 11.86-7.694 11.86 5.755-3.73 7.33-9.92 7.694-11.86zm.08.761c.041-.214.079-.431.112-.654 0 0-.03.24-.111.654-1.517 8.164-7.58 11.238-7.58 11.238 5.597-3.47 7.192-9.294 7.58-11.238zm.154.226c-1.386 8.164-7.57 11.16-7.57 11.16 5.872-3.593 7.308-9.73 7.57-11.16l.05-.303s-.014.108-.05.303zm.02.682l.056-.33s-.016.119-.057.33c-1.407 7.883-7.589 10.731-7.589 10.731 5.86-3.445 7.313-9.286 7.59-10.73zM7.563 26.328c6.037-3.473 7.467-9.409 7.707-10.654-1.387 7.835-7.707 10.654-7.707 10.654zm7.707-10.654l.039-.234s-.012.084-.039.234zm.22.187c.013-.074.028-.149.04-.225 0 0-.012.081-.04.225zM7.475 26.606c6.278-3.486 7.77-9.506 8.016-10.745-1.436 7.842-8.016 10.745-8.016 10.745zm8.276-10.657c.015-.077.028-.154.044-.23 0 0-.014.08-.044.23zM7.475 26.802c6.484-3.526 8.022-9.6 8.276-10.853-1.484 7.937-8.276 10.853-8.276 10.853zm-.069.211c6.646-3.498 8.257-9.467 8.544-10.822-1.558 7.938-8.544 10.822-8.544 10.822zm8.544-10.822c.02-.093.037-.187.053-.281 0 0-.013.1-.053.281zM7.406 27.204c6.729-3.448 8.36-9.326 8.651-10.662-1.578 7.82-8.65 10.662-8.65 10.662zm8.651-10.662l.054-.276s-.016.098-.054.276zm.184.27c.02-.09.037-.182.054-.274 0 0-.015.097-.054.274zM7.457 27.37c6.833-3.413 8.488-9.233 8.784-10.557C14.64 24.556 7.457 27.37 7.457 27.37zm8.267-13.53s-.05-.786-.614-1.045c0 0 .81.259.614 1.045zm-.486-.84l-.026-.022.026.022zm-.026-.022zm.363 1.202s-.072-.892-.337-1.18c.148.142.508.561.337 1.18zm-.382.565s.298-.873-.066-1.66c0 0 .512.872.066 1.66zm-.68-2.86c-.214.703.432.959.432.959-.728-.05-.432-.959-.432-.959zm.316.447c-.1.223.265.342.265.342-.547-.086-.265-.342-.265-.342zm.647 1.985c-.3.925.198 1.266.198 1.266-.68-.325-.198-1.266-.198-1.266zm.214-.137c-.249.719.017.992.017.992-.448-.189-.017-.992-.017-.992zm.034 1.095s.38-.24.05-.821c0 0 .528.547-.05.821zm.064.12s.714-.206.599.667c0 0 0-.702-.599-.667zm.018.138s.63.068.397.856c0 0 .068-.652-.397-.856zm.612.668c-.132.734.547.873.547.873-.878-.036-.547-.873-.547-.873zm1.16 1.18s-.1-.496-.844-.668c0 0 .927.103.844.668zm-1.49-2.294c.198-.959-.118-1.215-.118-1.215.498.24.117 1.215.117 1.215zm.198.206s.216-.77.083-1.062c0 0 .28.29-.083 1.062zm.218.389s.2-.96.1-1.113c0 0 .283.239-.1 1.113zm.123.855s.97-.87.425-1.35c0 0 .77.386-.425 1.35zm-.105-.131s.574-.84.32-1.42c0 0 .434.64-.32 1.42zm-.61-1.94s.038-.426-.076-.614c0 0 .24.316.075.614zm-5.33 7.41c-3.131-1.405-2.734-2.098-2.734-2.098.12.818 2.734 2.097 2.734 2.097zm-.033.249c-3.134-1.405-2.736-2.098-2.736-2.098.12.819 2.736 2.098 2.736 2.098zm-.189.159c-2.977-1.344-2.6-2.009-2.6-2.009.115.783 2.6 2.009 2.6 2.009zm-.259.144c-2.701-1.252-2.36-1.868-2.36-1.868.105.728 2.36 1.868 2.36 1.868zm-.173.23c-2.524-1.238-2.205-1.85-2.205-1.85.098.722 2.205 1.85 2.205 1.85zm4.984-1.91c.454-.533 1.53-3.74 1.53-3.74-.944 3.55-1.53 3.74-1.53 3.74zM3.135 22.806a.312.312 0 01-.07-.008.412.412 0 00.336-.41.415.415 0 00-.335-.413c.023-.003.045-.007.07-.007.225 0 .405.187.405.42 0 .23-.18.418-.406.418zm-.01-.707a.29.29 0 00-.233.288c0 .145.1.263.233.288-.015.003-.032.003-.048.003a.285.285 0 01-.282-.29.286.286 0 01.33-.289zm-.15.288c0-.104.082-.186.181-.186.012 0 .023.002.033.003a.184.184 0 00-.151.183c0 .092.064.169.151.183a.145.145 0 01-.033.004.184.184 0 01-.18-.187zm.187-.127a.082.082 0 01.021-.003.13.13 0 01.127.13c0 .072-.056.13-.127.13l-.02-.002a.129.129 0 00.103-.128.127.127 0 00-.104-.127zm9.703 8.294a.423.423 0 01-.296.508.405.405 0 01-.502-.376.402.402 0 00.47.236.415.415 0 00.302-.436.398.398 0 01.026.068zm-.127.022a.276.276 0 00-.325-.166.293.293 0 00-.215.306c-.004-.016-.012-.033-.015-.05a.294.294 0 01.205-.355.285.285 0 01.35.265zm-.427.175a.13.13 0 01-.01-.029.19.19 0 01.131-.227.181.181 0 01.218.136c.003.011.003.022.005.032a.18.18 0 00-.207-.106.186.186 0 00-.137.194zm.192.034a.13.13 0 00.095-.134l.008.02a.133.133 0 01-.092.159.127.127 0 01-.154-.095v-.021a.121.121 0 00.143.072zm-.072-2.626a.325.325 0 01-.068.02.425.425 0 00.16-.513.402.402 0 00-.463-.247c.02-.012.039-.025.061-.035a.402.402 0 01.53.226.425.425 0 01-.22.549zm-.47-.252a.296.296 0 01.153-.381.202.202 0 01.048-.015.295.295 0 00-.111.357.28.28 0 00.322.174c-.014.008-.027.017-.043.024a.283.283 0 01-.37-.16zm.168-.072a.19.19 0 01.098-.245.124.124 0 01.03-.009.193.193 0 00-.07.23c.034.085.121.13.205.11a.18.18 0 01-.263-.085zm.123-.192c.006-.003.012-.008.02-.011a.126.126 0 01.165.07.132.132 0 01-.067.17l-.022.007a.131.131 0 00.048-.158.125.125 0 00-.144-.078zm.814-14.129c.021-.012.041-.025.064-.034a.398.398 0 01.527.227.425.425 0 01-.218.547c-.022.01-.044.015-.068.021a.425.425 0 00.158-.514.401.401 0 00-.463-.247zm-.097.49a.296.296 0 01.198-.398.296.296 0 00-.11.358.28.28 0 00.323.172.278.278 0 01-.412-.133zm.168-.073a.188.188 0 01.126-.254.187.187 0 00-.069.227.174.174 0 00.206.11.152.152 0 01-.027.017.18.18 0 01-.236-.1zm.125-.193a.17.17 0 01.018-.01.127.127 0 01.165.07c.025.066-.003.143-.068.17a.115.115 0 01-.022.006.128.128 0 00.048-.16.121.121 0 00-.141-.076zm-.714 10.954a.431.431 0 01-.01.593.397.397 0 01-.573-.011.22.22 0 01-.042-.058.39.39 0 00.519-.035.43.43 0 00.052-.535.22.22 0 01.054.046zm-.535.449a.298.298 0 01.005-.413.28.28 0 01.401.007l.03.04a.28.28 0 00-.364.027.303.303 0 00-.036.374.298.298 0 01-.036-.035zm.126-.011a.196.196 0 01.006-.266.178.178 0 01.256.006c.007.008.015.015.02.025a.174.174 0 00-.232.016.191.191 0 00-.025.238l-.025-.02zm.241-.203a.134.134 0 01-.003.185.123.123 0 01-.18-.004c-.003-.005-.008-.011-.01-.017a.122.122 0 00.161-.013.133.133 0 00.015-.163.067.067 0 01.017.012zm.167-8.408c.015-.017.03-.036.048-.052a.397.397 0 01.572.044.428.428 0 01-.1.631.426.426 0 00-.007-.538.393.393 0 00-.513-.085zm.054.495a.297.297 0 01.07-.441.3.3 0 00.003.376.276.276 0 00.358.06.65.65 0 01-.032.036.276.276 0 01-.399-.03zm.138-.123a.19.19 0 01.02-.263l.023-.018a.196.196 0 00.004.24.179.179 0 00.23.038.176.176 0 01-.276.002zm.06-.221c.005-.006.009-.012.015-.016a.121.121 0 01.177.013.136.136 0 01-.011.184l-.02.01a.127.127 0 00-.003-.165.12.12 0 00-.158-.026zm-.67 2.404a.406.406 0 01.298.065l-.05.09a.403.403 0 00-.248-.155zm-.27.411c0-.16.124-.29.28-.29.017 0 .034 0 .049.005a.286.286 0 00-.233.285c0 .114.061.209.15.259l-.015.03a.293.293 0 01-.232-.289zm.29.174a.189.189 0 01-.109-.174.182.182 0 01.21-.183.186.186 0 00-.082.325l-.018.032zm.14-.264a.121.121 0 00-.064-.037l.021-.002c.022 0 .04.006.057.015l-.013.024zm-9.21 4.385c.103-.775 2.712-.512 2.712-.512-2.49-.052-2.712.512-2.712.512zm4.117-3.66c.06-.096.12-.191.187-.287l.001-.004c.125-.184.259-.374.408-.565l-.024.031.016-.019a.023.023 0 00-.006.01c.006-.012.015-.022.023-.032l-.06.082.069-.092a6.682 6.682 0 00.01-.01c-.006.012-.015.022-.023.033a6.774 6.774 0 00-.163.268c.063-.106.13-.211.203-.32-.255.395-1.212 2.04-.695 3.674 0 0-.473-.813-.04-2.19-.255.75-.397 1.686-.09 2.617 0 0-.3-.497-.252-1.376a3.983 3.983 0 00.158 1.782s-.47-.762-.208-2.082c-.181.756-.219 1.612.079 2.468 0 0-.373-.584-.319-1.617a4.372 4.372 0 00.208 2.002s-.36-.553-.358-1.54a4.584 4.584 0 00.246 1.967s-.308-.466-.378-1.31a4.99 4.99 0 00.282 1.78s-1.321-2.004.726-5.27zm.63-.895c.01-.01.015-.02.023-.03l-.029.04c.033-.049.056-.083.068-.098l-.078.107a3.504 3.504 0 01-.01.01c.002-.003.005-.005.005-.008a.24.24 0 00.006-.006c-.006.008-.014.015-.02.024.067-.091.106-.14.106-.14-.021.03-.04.06-.06.091.03-.043.048-.073.057-.084l-.068.095zm.068-.095a1.119 1.119 0 01.003-.007 1.69 1.69 0 01-.044.078c.021-.038.035-.06.04-.071zm-.04.07c-.192.336-.906 1.728-.52 3.111 0 0-.307-.601-.085-1.633-.137.572-.19 1.242.004 1.91 0 0-.699-1.3.594-3.38a3.974 3.974 0 00.006-.007zm-.426 2.854s-.507-1.1.433-2.86c-.158.308-.752 1.588-.433 2.86zm.469-2.93c-.012.024-.023.047-.036.07.022-.045.036-.07.036-.07l-.059.145c.036-.092.059-.146.059-.146zm-.356 2.759s-.372-1.005.297-2.614c-.151.389-.523 1.505-.297 2.614zm-.802-1.219c-1.222 1.776-.848 2.545-.848 2.545-.58-.834.848-2.545.848-2.545zm8.94 6.466c.354 1.074.733 2.448 1.133 4.209 0 0-.488-1.934-1.17-3.893.293.978.603 2.186.928 3.677 0 0-.473-1.957-1.13-3.9.28.963.58 2.16.889 3.652 0 0-1.649-7.126-2.997-7.461l-.058-.008a.396.396 0 00-.076 0h.002-.002s0-.002.003-.002h-.003s.059-.046.165-.046h.024c.494-.008 1.903.703 3.665 8.016 0 0-.58-2.169-1.372-4.244zm2.577 2.393s-1.1 0-3.372-5.155c0 0 1.928 3.946 3.372 5.155zm.552-.07s-1.281 0-3.924-5.085c0 0 2.446 3.502 4.282 4.575 0 0-.512 0-1.55-1.009.461.492.93.923 1.363 1.198 0 0-.803-.002-2.446-2.216.712.995 1.546 2.02 2.275 2.538zm-5.758-5.901l-.007-.002-.006-.001h.002a.091.091 0 01.053-.012h.011l.005-.001c.29 0 1.443.5 3.004 7.623 0 0-.472-1.963-1.103-3.894.311 1.073.648 2.452 1.01 4.227 0 0-.694-3.11-1.515-5.437.37 1.165.795 2.865 1.263 5.342 0 0-.735-3.553-1.557-5.877.37 1.156.811 2.982 1.304 5.854 0 0-.798-4.245-1.63-6.482.36 1.066.815 2.96 1.331 6.315 0 0-1.27-7.51-2.165-7.655zm5.669 6.794c-1.24-.32-2.731-3.294-2.731-3.294 1.525 2.658 2.73 3.294 2.73 3.294zm-.284.164c-1.03-.31-2.252-3.015-2.425-3.41 1.222 2.837 2.186 3.515 2.186 3.515-1.003-.343-2.208-3.563-2.208-3.563 1.368 2.79 2.447 3.458 2.447 3.458zm-.456.282c-.843-.337-1.85-3.312-1.976-3.698 1.002 3.107 1.796 3.85 1.796 3.85-.822-.375-1.811-3.892-1.811-3.892 1.114 3.018 1.991 3.74 1.991 3.74zm-.533.07c-.662-.366-1.458-3.81-1.458-3.81.813 3.076 1.458 3.81 1.458 3.81zm-4.199-7.69c.9-.711 1.56 1.073 1.56 1.073-.796-1.421-1.56-1.073-1.56-1.073zm.668 21.718c-1.012-.23-1.62.545-1.62.545.83-1.216 1.62-.545 1.62-.545zm.061.258c-1.026-.212-1.64.495-1.64.495.841-1.11 1.64-.495 1.64-.495zm.04.197c-.925-.144-1.479.342-1.479.342.759-.762 1.48-.342 1.48-.342zm-1.417.613c.799-.9 1.56-.404 1.56-.404-.976-.172-1.56.404-1.56.404zm1.783-.185c-1.166-.183-1.864.437-1.864.437.955-.97 1.864-.437 1.864-.437zm-4.904-2.915c-.669.085-1.216.817-1.216.817.77-1.151 1.216-.817 1.216-.817zm.141.169c-.667.082-1.216.817-1.216.817.772-1.153 1.216-.817 1.216-.817zm.082.188c-.614.08-1.116.775-1.116.775.707-1.092 1.116-.775 1.116-.775zm.122.207c-.657.074-1.195.714-1.195.714.755-1.006 1.195-.714 1.195-.714zm.102.201c-.614.06-1.117.583-1.117.583.708-.821 1.117-.583 1.117-.583zm.12.148c-.614.06-1.116.581-1.116.581.707-.82 1.116-.581 1.116-.581zm.162.148c-.613.059-1.115.582-1.115.582.706-.822 1.115-.582 1.115-.582zm.163.146c-.614.059-1.117.58-1.117.58.708-.82 1.117-.58 1.117-.58zm.284.066c-.713.067-1.298.654-1.298.654.823-.924 1.298-.654 1.298-.654zm-2.189.062c-.275-.321-1.118-.85-1.118-.85.864.266 1.118.85 1.118.85zm-.116.132c-.255-.307-1.034-.816-1.034-.816.797.254 1.034.816 1.034.816zm-.064.142c-.242-.294-.982-.781-.982-.781.758.243.982.78.982.78zm-.118.1c-.214-.253-.873-.672-.873-.672.675.21.873.671.873.671zm-.117.11c-.186-.228-.756-.605-.756-.605.583.188.756.605.756.605zM1.44 29.544c.084-.135.008-.366.008-.366.364.154-.008.366-.008.366zm.405-1.87S1.721 29.245.92 28.88c0 0 .704.203.926-1.207zm-.852 1.11s.43-.248.746-.998c0 0-.19.922-.746.998zm3.484 3.658s-1.323-.504-1.474-.111c0 0-.14-.556 1.474.111zm.627.565s-.033.385-.52.273c0 0 .355.025.52-.273zm1.413-.044c-.973.437-.683.864-.683.864-.407-.564.683-.864.683-.864zm-.751.264c.163-.554-.123-.562-.123-.562.373-.138.123.562.123.562zm.735-.135c-.768.453-.362.956-.362.956-.564-.622.362-.956.362-.956zm.903.777c.023.615.662.71.662.71-.81 0-.662-.71-.662-.71zm.008-.17c.092-.41-.166-.426-.166-.426.373-.105.166.425.166.425zm1.174.701s1.11.486-.173.94c0 0 1.106-.41.173-.94zm.222.428c-.14.554-1.016.29-1.016.29.877.102 1.016-.29 1.016-.29zm3.822-.369c-.555-.393-1.033.3-1.033.3.586-.882 1.033-.3 1.033-.3zm.238.282s.696-.204 1.133.855c0 0-.463-.88-1.133-.855zm1.24.308c-.002.003-.005.005-.006.008l.006-.008c.211-.345.83.231.83.231-.623-.397-.797-.27-.83-.231zm-4.356-.462s-.025-.64 1.084-.274c0 0-.918-.266-1.084.274zm-.33.394s.503-.375-.654-.564c0 0 1.299.12.654.564zm2.976-.795s-1.117-.624-1.521.078c0 0 .205-.82 1.521-.078zm-9.03-3.368s.184-.299.76.573c0 0-.513-.682-.76-.573zm3.3 2.53s-.216.94-.496.607c0 0 .248.111.496-.606zm10.545 1.79c-1.438-.141-1.347.324-1.347.324-.213-.613 1.347-.324 1.347-.324zm-1.925-.99c-.557.307-.342 1.038-.342 1.038-.434-.677.342-1.039.342-1.039zM1.913 31.345c-.661.258-.5-.175-.5-.175-.03.328.5.175.5.175zm-.456-.273s.17.296.552-.215c0 0-.412.64-.552.215zm.391-.152s-.215.326-.42.014c0 0 .213.19.42-.014zm-.294-.402c-.275.155-.063.363-.033.39-.368-.309.033-.39.033-.39zm-.033.39l.003.003s-.002 0-.003-.003zm.039-.3s-.148.212.376.235c0 0-.61.046-.376-.236zm.059-.047s.398.07.494-.479c0 0-.066.66-.494.48zm1.155 1.522s.044-.191-.564.014c0 0 .659-.334.564-.014zm1.583-1.247c.484-.076.477.464.477.464-.117-.487-.477-.464-.477-.464zM4.29 32.74c.114-.367-.666-.463-.946-.486 1.289.093.946.486.946.486zm-.946-.486l-.096-.007.096.007zm1.224.199s.383.027.007.618c0 0 .283-.482-.007-.618zm9.47-22.644c.18.109.414.022.578.18 0 0 .155-.325-.184-.532 0 0-.157-.105-.395-.095 0 0-.215-.03-.253-.086 0 0 .071.425.253.533zm.734-.061c.133-.889-.843-.557-.843-.557.787-.03.843.557.843.557zm-1.317-.373c.388-.164.429-.506.429-.506.087-.026.231-.157.231-.157l.102.037c.153.232.474.205.474.205l.164.102c-.03.35.176.444.176.444s-.017-.187.127-.236c.142-.05.587.43.677.502.089.075.016.153.016.153-.016.024-.01.046-.028.069-.1-.089-.292-.294-.681.064 0 0 .376-.16.603.006-.029.036-.038.05-.063.085l-.019-.008c-.354-.175-.628.157-.628.157.139.032.412.143.4.209a1.077 1.077 0 00-.093.15 1.324 1.324 0 00-.096.287c-.018.11-.053.075-.178.075s-.137.043-.16.09c-.023.05-.09.109-.09.109s-.023-.169-.082-.494c-.06-.325-.499-.055-.801.05-.304.103-.493-.075-.594-.27-.1-.196-.306-.575-.306-.575.322-.052.42-.548.42-.548zm1.096 1.357s-.153 2.008-.696 1.834c.096 0 .367-.17.696-1.834zm-.733 1.826c.013.005.025.005.037.008-.024 0-.037-.008-.037-.008zm-.899-2.28c.322 1.327 1.376.689 1.376.689-1.213.923-1.376-.689-1.376-.689zm1.304.988c-1.367 1.07-1.547-.797-1.547-.797.36 1.537 1.547.797 1.547.797zm-.093.352c-1.495 1.163-1.693-.866-1.693-.866.395 1.67 1.694.866 1.694.866zm-.097.386c-1.703 1.422-1.928-1.056-1.928-1.056.45 2.04 1.928 1.056 1.928 1.056z" fill="#1F1F1F"/><path d="M128.333 48.293V47.5l3.302-2.912c.711-.624 1.205-1.144 1.482-1.56.277-.416.416-.85.416-1.3 0-.52-.178-.94-.533-1.261-.355-.32-.789-.481-1.3-.481a2.33 2.33 0 00-1.313.377c-.373.251-.75.646-1.131 1.183l-.754-.546c.442-.659.91-1.144 1.404-1.456.494-.32 1.118-.481 1.872-.481.815 0 1.486.247 2.015.741.537.485.806 1.105.806 1.859a2.84 2.84 0 01-.507 1.664c-.338.485-.936 1.11-1.794 1.872l-2.431 2.158h4.823v.936h-6.357zm-5.079.157c-.97 0-1.906-.374-2.808-1.119l.598-.793c.737.65 1.482.975 2.236.975.806 0 1.456-.36 1.95-1.079.503-.728.754-1.66.754-2.795v-.117c-.606.97-1.464 1.456-2.574 1.456-.936 0-1.698-.264-2.288-.793-.589-.537-.884-1.222-.884-2.054 0-.875.308-1.608.923-2.197.616-.598 1.4-.897 2.353-.897 1.075 0 1.929.36 2.561 1.08.642.718.962 1.854.962 3.405 0 1.447-.351 2.63-1.053 3.55-.702.918-1.612 1.377-2.73 1.377zm.273-4.356c.668 0 1.209-.208 1.625-.624.425-.416.637-.901.637-1.456a1.89 1.89 0 00-.65-1.469c-.433-.399-.988-.598-1.664-.598-.658 0-1.187.212-1.586.637a2.12 2.12 0 00-.598 1.521c0 .58.208 1.057.624 1.43.416.373.954.56 1.612.56zm-5.758 3.614c-.65.477-1.464.715-2.444.715-.979 0-1.794-.243-2.444-.728-.65-.485-.975-1.11-.975-1.872 0-.52.169-.97.507-1.352.338-.381.793-.676 1.365-.884-1.04-.477-1.56-1.183-1.56-2.119 0-.685.304-1.257.91-1.716.616-.46 1.348-.689 2.197-.689.85 0 1.578.23 2.184.689.616.46.923 1.04.923 1.742 0 .919-.52 1.616-1.56 2.093 1.248.468 1.872 1.218 1.872 2.249 0 .763-.325 1.387-.975 1.872zm-3.926-4.953c.399.312.893.468 1.482.468.59 0 1.084-.156 1.482-.468.399-.312.598-.72.598-1.222 0-.45-.199-.823-.598-1.118-.398-.303-.892-.455-1.482-.455-.598 0-1.096.152-1.495.455-.39.295-.585.676-.585 1.144 0 .485.2.884.598 1.196zm-.26 4.277c.434.33 1.014.494 1.742.494s1.305-.165 1.729-.494c.434-.33.65-.741.65-1.235 0-.503-.229-.914-.689-1.235-.459-.33-1.022-.494-1.69-.494-.676 0-1.243.165-1.703.494-.45.33-.676.75-.676 1.261 0 .477.213.88.637 1.209zm-4.684 1.261v-8.099l-1.716.533-.247-.832 2.223-.767h.754v9.165h-1.014zm-8.411 0v-1.365h1.196v1.365h-1.196zm-2.889.117c-.581 0-1.045-.151-1.391-.455-.338-.312-.507-.793-.507-1.443v-4.056h-.936v-.884h.936v-2.028h1v2.028h2.133v.884h-2.132v3.926c0 .745.377 1.118 1.13 1.118.33 0 .655-.078.976-.234v.858c-.364.19-.767.286-1.21.286zm-6.374.013a4.54 4.54 0 01-1.482-.26 4.51 4.51 0 01-1.3-.728l.507-.715c.763.572 1.539.858 2.327.858.408 0 .741-.1 1.001-.299a.95.95 0 00.39-.793c0-.303-.143-.537-.429-.702-.277-.165-.693-.325-1.248-.48a9.057 9.057 0 01-.806-.26 5.812 5.812 0 01-.676-.326 1.473 1.473 0 01-.559-.546 1.648 1.648 0 01-.182-.793c0-.572.213-1.036.637-1.39.434-.356.984-.534 1.651-.534.867 0 1.673.247 2.418.741l-.455.754c-.667-.433-1.33-.65-1.989-.65-.39 0-.706.095-.949.286a.863.863 0 00-.35.715.6.6 0 00.103.338c.07.104.148.19.234.26.087.07.221.143.403.221.191.078.343.134.455.17.113.034.29.09.533.168.321.095.585.186.793.273.208.087.43.204.663.351.234.147.408.334.52.56.122.216.182.471.182.766 0 .624-.225 1.118-.676 1.482-.45.355-1.022.533-1.716.533zm-10.763-.13v-9.1h6.578v.936h-5.551v3.107h4.966v.936h-4.966v3.185h5.616v.936h-6.643z" fill="#1F1F1F"/><path fill-rule="evenodd" clip-rule="evenodd" d="M122.767 7.541c-1.429.418-2.365 1.112-2.806 2.08-.336.704-.503 1.939-.503 3.705v14.219h-2.625l-8.864-16.728v11.06c0 1.691.177 2.897.529 3.62.459.949 1.377 1.632 2.753 2.05l-7.888.002c1.376-.418 2.294-1.102 2.753-2.052.353-.722.529-1.928.529-3.62V9.342l-2.25-1.795 8.339-.002-2.277 1.796 7.704 14.387V13.184c0-1.69-.186-2.896-.556-3.618-.459-.93-1.377-1.605-2.753-2.023l7.915-.002zm12.917 10.14c0-2.659-.278-4.7-.82-6.126-.816-2.144-2.259-3.219-4.342-3.218-2.047 0-3.443 1.055-4.182 3.164-.46 1.31-.689 3.315-.689 6.012 0 2.622.277 4.635.821 6.04.815 2.108 2.259 3.163 4.341 3.162 3.247 0 4.871-3.012 4.871-9.033zm3.389 0c0 3.058-.692 5.492-2.039 7.323-1.476 2.007-3.582 3.021-6.353 3.022-2.841 0-4.983-1.017-6.433-3.047-1.303-1.825-1.959-4.312-1.959-7.465 0-3.134.661-5.61 1.959-7.437 1.455-2.048 3.583-3.079 6.406-3.08 2.842 0 4.995 1.044 6.46 3.133 1.305 1.861 1.959 4.378 1.959 7.55zm20.586-12.57c-.565.475-1.068.94-1.509 1.396-1.377 1.444-3.062 4.674-5.056 9.69l-3.76 9.489 2.33 1.823-7.994.002 2.25-1.824-6.01-16.383-2.276-1.794 7.756-.002-2.254 1.796 5.391 15.014 3.402-8.577c.353-.874.591-1.501.715-1.88.247-.723.432-1.369.556-1.939.176-.854.264-1.415.264-1.68 0-1.045-.415-1.957-1.244-2.736 1.147 0 2.418-.243 3.812-.728 1.394-.484 2.577-1.088 3.547-1.81l.08.143zm11.128 13.337l-2.714-7.778-2.409 6.778c.79.93 1.717 2.203 2.771 3.817a20.17 20.17 0 012.352-2.817zm7.849 9.055l-7.306.002 1.945-1.81-1.972-5.656-1.509 1.739c-.6.703-1.05 1.33-1.35 1.88-1.218-2.165-2.303-3.741-3.256-4.728-.918 2.66-1.377 4.502-1.377 5.528 0 .93.565 1.947 1.694 3.048l-7.253.002c1.606-.874 2.877-2.185 3.812-3.933.583-1.102 1.227-2.897 1.933-5.386-.583-.456-1.315-.75-2.198-.883.601-.969.998-1.795 1.192-2.479.37.38.917.95 1.641 1.71l2.515-7.239-1.536-1.795 6.671-.002-1.535 1.796 2.431 7.042c.883-.613 1.597-1.25 2.149-1.914.264 1.196.644 2.184 1.138 2.963a8.862 8.862 0 00-.843-.029 3.88 3.88 0 00-1.848.452l2.691 7.868 2.171 1.824zm-23.84-3.765c.991 0 1.794.844 1.794 1.885 0 1.04-.803 1.885-1.794 1.885-.99 0-1.794-.843-1.794-1.884s.804-1.886 1.794-1.886zm-94.52-5.21l-2.713-7.778-2.409 6.778c.79.93 1.716 2.203 2.77 3.817a20.25 20.25 0 012.353-2.817zm-11.568 9.06c-.86.005-1.92.195-3.174.57-1.326.419-2.313.884-2.959 1.398 0-2.565-.365-4.83-1.096-6.806-.409-1.12-1.4-3.129-2.98-6.035l-3.095 3.178v5.875l2.219 1.823-7.448.002 2.143-1.825V9.385L30.175 7.59l7.448-.002-2.22 1.796v8.434l6.02-6.185c.714-.741 1.071-1.425 1.071-2.052 0-.817-.671-1.462-2.014-1.937v-.057l8.06-.002v.057a9.69 9.69 0 00-1.072.513c-.884.476-2.168 1.55-3.851 3.221l-3.47 3.591c1.94 3.837 3.147 6.145 3.623 6.923 1.321 2.126 2.839 3.91 4.553 5.354 1.334-.861 2.411-2.058 3.23-3.59.583-1.1 1.228-2.896 1.934-5.385-.583-.456-1.315-.75-2.198-.883.6-.969.997-1.795 1.191-2.479.371.38.918.95 1.642 1.71l2.515-7.239L55.1 7.584l6.671-.002-1.535 1.795 2.431 7.042c.882-.613 1.597-1.249 2.149-1.914.264 1.196.644 2.184 1.138 2.963a8.83 8.83 0 00-.843-.028 3.88 3.88 0 00-1.848.451l2.69 7.869 2.172 1.823-7.307.002 1.946-1.81-1.972-5.656-1.51 1.739c-.6.703-1.05 1.33-1.35 1.88-1.217-2.165-2.302-3.741-3.255-4.728-.918 2.659-1.377 4.502-1.377 5.528 0 .93.565 1.947 1.694 3.048l-6.252.002h-.035zm133.323-3.856c-.99 0-1.793.844-1.793 1.885s.803 1.885 1.793 1.885c.991 0 1.794-.845 1.794-1.886s-.803-1.885-1.794-1.884zm-86.818-5.237L92.5 10.717l-2.41 6.777c.79.93 1.717 2.203 2.772 3.817.74-1.064 1.526-2 2.351-2.816zm-12.459 9.06l-.02-.031c1.58-.874 2.832-2.175 3.757-3.903.582-1.102 1.226-2.897 1.932-5.386-.582-.456-1.315-.75-2.197-.882.6-.97.997-1.796 1.191-2.48.371.38.918.95 1.642 1.71l2.514-7.238-1.535-1.795 6.671-.002-1.536 1.796 2.431 7.042c.883-.613 1.598-1.25 2.15-1.914.264 1.196.644 2.184 1.138 2.962a8.868 8.868 0 00-.843-.028c-.67 0-1.284.152-1.849.452l2.692 7.868 2.17 1.823-7.306.002 1.946-1.81-1.972-5.655-1.51 1.738c-.6.703-1.05 1.33-1.35 1.881-1.217-2.165-2.302-3.742-3.256-4.729-.918 2.66-1.376 4.503-1.376 5.528 0 .931.564 1.947 1.694 3.049l-7.178.002-.02-.03c-.746-1.122-1.486-2.85-2.22-5.184-.63 1.71-1.465 2.83-2.506 3.363-.712.38-1.89.57-3.535.57-.849 0-1.52-.18-2.013-.54l9.79-18.182-13.571.004a64.835 64.835 0 011.972 4.786c.343-1.33.918-2.27 1.727-2.821.67-.456 1.568-.684 2.691-.685a9.37 9.37 0 013.206.54l-9.74 18.182 14.22-.003zm96.567-22.136a2.659 2.659 0 011.312-.357c.445 0 .882.12 1.308.357.426.237.759.578.997 1.02.239.441.357.901.357 1.38 0 .476-.117.932-.351 1.368a2.533 2.533 0 01-.986 1.02 2.625 2.625 0 01-1.325.366c-.462 0-.903-.123-1.326-.366a2.555 2.555 0 01-.989-1.02 2.834 2.834 0 01-.354-1.367c0-.48.12-.94.36-1.382.24-.44.572-.782.997-1.02zm.464 2.226V6.572h.631c.272 0 .456.02.558.062a.497.497 0 01.319.467c0 .164-.06.296-.176.395-.117.098-.337.149-.658.149h-.674zm-.555-1.554v3.553h.555V8.135h.325c.196 0 .345.04.446.122.148.111.339.387.58.827l.305.56h.678l-.42-.695c-.2-.33-.37-.564-.508-.705a.919.919 0 00-.293-.188c.297-.024.535-.132.714-.324a.962.962 0 00.109-1.2.87.87 0 00-.432-.344c-.181-.065-.473-.097-.878-.097h-1.181zm-.169-1.15a2.995 2.995 0 00-1.197 1.222 3.396 3.396 0 00-.005 3.297 3.01 3.01 0 001.183 1.223 3.146 3.146 0 001.591.437c.553 0 1.082-.145 1.59-.436.505-.29.9-.698 1.181-1.224.282-.524.422-1.07.422-1.64 0-.576-.143-1.128-.428-1.657a2.988 2.988 0 00-1.194-1.222 3.2 3.2 0 00-1.571-.426c-.537 0-1.061.142-1.572.426z" fill="#1F1F1F"/></svg>