<svg width="33" height="34" fill="none" xmlns="http://www.w3.org/2000/svg"><circle cx="16.5" cy="17.481" r="16" stroke="#fff"/><g clip-path="url(#clip0_0_1106)" fill="#fff"><path d="M23.422 17.945c-.58-1.134-1.994-1.564-3.378-.476-.013.01-1.384 1.062-3.541 1.062s-3.528-1.053-3.541-1.062c-1.378-1.089-2.803-.663-3.38.479l-.005.01c-.858 1.754.559 2.669 1.698 3.404.705.453 1.605.795 2.687 1.021l-3.071 3.078c-1.854 1.85 1.051 4.77 2.925 2.94l2.696-2.71a539.13 539.13 0 012.703 2.72c1.85 1.816 4.774-1.053 2.93-2.946-2.199-2.197-2.672-2.672-3.088-3.081 2.296-.492 5.49-2.102 4.365-4.439zm-5.774 3.215c-.496-.238-1.156.668-.613 1.232l.006.006.003.003.005.005 4.072 4.068c.516.53-.393 1.406-.892.92-.891-.907-2.305-2.323-3.21-3.23a.718.718 0 00-1.018 0l-3.2 3.214c-.506.495-1.41-.39-.896-.902l4.067-4.075a.025.025 0 00.005-.006c.505-.496-.005-1.416-.6-1.24-1.415-.166-2.562-.512-3.325-1.003-1.476-.954-1.403-1.121-1.189-1.56.621-1.188 1.721 1.376 5.638 1.376 2.682 0 4.365-1.318 4.431-1.37.437-.343.95-.503 1.202-.014.214.444.293.61-1.186 1.571-1.01.643-2.438.903-3.3 1.005zM16.5 15.562a3.402 3.402 0 003.395-3.4c0-1.883-1.523-3.414-3.396-3.414-1.871 0-3.394 1.532-3.394 3.414a3.4 3.4 0 003.394 3.4zm0-5.377a1.97 1.97 0 011.957 1.977 1.963 1.963 0 01-1.958 1.962 1.963 1.963 0 01-1.958-1.963 1.97 1.97 0 011.958-1.976z"/><path d="M16.5 18.328a6.175 6.175 0 006.168-6.167c-.001-3.407-2.768-6.18-6.169-6.18s-6.169 2.773-6.169 6.18c0 3.4 2.767 6.167 6.17 6.167zm0-10.91a4.735 4.735 0 010 9.471 4.735 4.735 0 010-9.47z"/></g><defs><clipPath id="clip0_0_1106"><path fill="#fff" transform="translate(5 5.981)" d="M0 0h23v23H0z"/></clipPath></defs></svg>