<?xml version="1.0" encoding="utf-8"?><svg viewBox="0 0 184 49" xmlns="http://www.w3.org/2000/svg" xmlns:xlink="http://www.w3.org/1999/xlink"><style>:root>svg{display:none}:root>svg:target{display:block}</style><svg fill="none" viewBox="0 0 16 16" id="arrow" xmlns="http://www.w3.org/2000/svg"><g clip-path="url(#aa)" stroke="#1F1F1F"><circle cx="6.667" cy="6.667" r="6.667" transform="matrix(-1 0 0 1 14.667 1.333)"/><path d="m6 10 4-4m0 0H7m3 0v3" stroke-linecap="round" stroke-linejoin="round"/></g><defs><clipPath id="aa"><path fill="#fff" transform="matrix(-1 0 0 1 16 0)" d="M0 0h16v16H0z"/></clipPath></defs></svg><svg fill="none" viewBox="0 0 25 26" id="cart" xmlns="http://www.w3.org/2000/svg"><path d="M7.813 23.38a1.563 1.563 0 1 0 0-3.124 1.563 1.563 0 0 0 0 3.125zm10.156 0a1.562 1.562 0 1 0 0-3.124 1.562 1.562 0 0 0 0 3.125z" fill="#fff"/><path d="M4.13 7.756h17.522l-2.578 9.023a1.562 1.562 0 0 1-1.503 1.133H8.21a1.562 1.562 0 0 1-1.503-1.133L3.175 4.416a.781.781 0 0 0-.75-.566H.78" stroke="#fff" stroke-linecap="round" stroke-linejoin="round"/></svg><svg fill="none" viewBox="0 0 25 26" id="favorite" xmlns="http://www.w3.org/2000/svg"><path d="M12.5 21.818S2.734 16.35 2.734 9.71A5.079 5.079 0 0 1 12.5 7.752h0a5.079 5.079 0 0 1 9.766 1.957c0 6.64-9.766 12.11-9.766 12.11z" stroke="#fff" stroke-linecap="round" stroke-linejoin="round"/></svg><svg fill="none" viewBox="0 0 48 48" id="icon5" xmlns="http://www.w3.org/2000/svg"><path d="M27.29 5.775c-.14.188-.196.384-.196.75v.506h-.45c-.535 0-.769.188-.769.638 0 .31.272.581.581.581.131 0 .169.075.169.347v.337l-6.066-.065c-3.347-.028-7.922-.085-10.172-.122C6.3 8.69 6.281 8.69 6.281 8.494c0-.385-.422-.928-1.022-1.35-.637-.431-.956-.469-1.2-.14-.272.355-.15.665.432 1.115.309.234.58.515.609.628.028.112.056.572.056 1.022v.825H4.031c-1.106 0-1.125 0-1.425.272l-.31.271-.027 9.629c-.01 6.6.01 9.74.075 9.993.056.216.262.535.46.732.28.28.43.562.665 1.284.169.516.365 1.05.44 1.19.16.32.647.629.994.629h.253v1.819c0 2.025.01 2.062.628 2.006.544-.047.591-.216.591-2.166 0-1.66 0-1.66.216-1.66.3 0 .796-.337.984-.656.131-.224.225-.28.487-.28.226 0 .366.056.45.187.15.243.779.262.966.028.178-.206.178-1.35 0-1.556-.16-.197-.787-.207-.947-.02-.122.15-.375.198-.375.066 0-.13.14-.253.478-.421.188-.104.394-.282.45-.403.066-.16.104-1.238.104-3.3 0-3 .009-3.085.206-3.488.272-.525.703-.816 1.322-.89 1.012-.113 5.578-.235 8.746-.235 3.647 0 3.844.028 4.425.59.591.563.685.882.779 2.541.037.835.075 3.947.084 6.919v5.419H13.36c-12.385 0-11.785-.028-12.029.515-.065.141-.112.675-.112 1.275 0 1.022 0 1.041.272 1.313l.271.272H39.77l.272-.272c.272-.272.272-.281.272-1.416 0-1.134 0-1.143-.272-1.415-.16-.16-.375-.272-.516-.272h-.244V25.565L40.5 27.31c.928 1.332 1.219 1.828 1.219 2.044 0 .422.347.966.75 1.2.722.403 1.584.197 2.1-.487.197-.263.197-.357.225-5.841l.019-5.569h.506c.853 0 1.462-.6 1.462-1.453 0-.844-.61-1.453-1.453-1.453h-.487l-.047-.469a1.56 1.56 0 0 0-2.325-1.21c-.413.235-.75.779-.75 1.21 0 .244-.216.544-1.285 1.79l-1.275 1.5-.384-.777c-.91-1.857-2.147-3.094-3.834-3.872-1.341-.61-2.41-.74-4.725-.572-.75.047-1.06.037-1.06-.028 0-.066.263-.103.703-.103.628 0 .741-.028.938-.235.131-.121.234-.3.234-.393 0-.263-.272-.591-.478-.591-.169 0-.178-.084-.178-1.866 0-1.8.01-1.875.188-1.93.29-.095.487-.45.412-.742-.075-.3-.29-.43-.731-.43h-.338V6.47c0-.863-.122-.938-1.397-.938-.993 0-1.03.01-1.218.244zm1.398 1.116c0 .075-.085.14-.188.14s-.188-.065-.188-.14c0-.075.085-.141.188-.141s.188.066.188.14zm.468 3.234V12h-1.312V8.25h1.312v1.875zm-8.034-.028 5.503.056v.928c0 .91 0 .919-.225.919-.469 0-.694.581-.394.994.113.15.272.187 1.032.206.693.028.9.066.9.169 0 .075-.075.131-.16.131-.094 0-.778.047-1.528.094-6.45.412-10.19.3-15-.431-1.622-.254-1.819-.432-2.11-1.941-.093-.478-.506-.628-1.753-.628H6.282v-.685l4.669.057c2.56.037 7.134.093 10.172.13zm-13.05 2.11c.225.834.694 1.443 1.397 1.809.562.29 4.622.825 7.575.984 2.447.14 7.697-.047 13.79-.469 1.435-.103 2.241-.019 3.17.328 1.874.704 3.402 2.4 4.04 4.472.365 1.19.422 2.035.244 3.6-.141 1.19-.17 2.494-.197 8.785l-.038 7.387-2.503-.028-2.503-.028-.525-.263c-.713-.346-1.36-.928-1.631-1.48-.422-.817-.263-2.42.29-3.076.497-.59 1.556-.581 1.913.019.225.365.234.553.047.91-.15.29-.572.562-.872.562-.253 0-.469.197-.535.487-.056.197-.009.31.188.506.225.225.3.244.675.188 1.594-.216 2.41-2.053 1.5-3.403-.431-.638-1.013-.91-1.96-.91h-.73l.159-.234c.515-.787 1.068-1.828 1.256-2.353.3-.853.31-2.587.01-3.778-.245-.994-.245-.91-.038-.91.084 0 .422-.121.74-.271 2.147-1.013 3.01-3.535 1.95-5.691-.853-1.744-2.85-2.644-4.762-2.147-.778.197-1.247.469-1.847 1.04-.637.61-.975 1.2-1.181 2.063-.506 2.185.834 4.425 2.981 4.978l.647.17.178.571c.272.9.413 1.978.328 2.7l-.066.637-.215-.45c-.413-.88-1.238-1.378-2.297-1.378-1.275 0-2.156.863-2.156 2.11 0 .534.253 1.2.59 1.556.272.29.844.581 1.144.581.3 0 .61-.31.61-.61 0-.252-.291-.608-.497-.608-.225 0-.553-.441-.6-.816-.038-.3 0-.422.197-.656.637-.75 1.912-.216 2.08.871.095.657-.102 1.557-.571 2.57-.525 1.134-.731 1.977-.731 3.093-.01 1.313.328 2.288 1.078 3.14l.281.329h-4.706v-5.419c-.01-6.431-.085-8.362-.375-9.14-.282-.741-.957-1.463-1.707-1.81l-.59-.272-4.875.01c-2.681.009-5.672.056-6.656.112-1.594.103-1.829.14-2.27.347a2.813 2.813 0 0 0-1.284 1.35c-.178.384-.196.637-.224 2.278l-.038 1.856H3.469V11.812h4.49l.113.394zm35.419 3.018c.075.084.093 2.034.084 7.134-.028 6.338-.047 7.022-.178 7.107a.402.402 0 0 1-.31.037c-.14-.056-.15-.675-.15-7.172 0-3.91.029-7.143.066-7.172.103-.112.375-.075.488.066zm1.93 1.781c.263.197.113.431-.28.431-.3 0-.328-.018-.328-.28 0-.235.037-.282.215-.282.122 0 .3.056.394.131zm-3.702 2.4v1.875h-1.022c-1.153 0-1.106.038-1.144-.768-.028-.441-.019-.46 1.05-1.707.581-.703 1.078-1.275 1.097-1.275.01 0 .019.844.019 1.875zm-8.672-.815c1.19.6 1.884 1.94 1.631 3.15-.14.693-.356 1.106-.834 1.575-.553.553-1.135.815-1.922.853-1.247.065-2.231-.516-2.785-1.65-.262-.525-.309-.722-.309-1.285 0-1.322.844-2.428 2.203-2.868.46-.15 1.519-.038 2.016.225zm8.672 6.084c0 1.2-.038 2.137-.075 2.081-.085-.093-1.988-2.812-2.119-3.018-.038-.066-.047-.375-.01-.685l.066-.553h2.138v2.175zm-33.75 5.56v.609H5.953c-2.025 0-2.025 0-2.25-.235-.169-.168-.234-.328-.234-.609v-.375h4.5v.61zM6.937 32.08c0 .019-.103.3-.224.638l-.226.61-.75.027-.75.028-.196-.59a5.18 5.18 0 0 1-.197-.656c0-.038.525-.075 1.172-.075.646 0 1.171.009 1.171.018zm32.157 8.7v.469H2.438v-.937h36.656v.468z" fill="#1F1F1F"/><path d="M9 16.781c-.178.178-.188.31-.188 1.866 0 1.547.02 1.687.197 1.922l.188.244h15.656l.234-.235.235-.234-.028-1.744c-.028-1.594-.047-1.753-.207-1.875-.159-.113-1.406-.131-8.043-.131-7.735 0-7.857 0-8.044.187zm15.094 1.922v.89H10.032v-1.78h14.061v.89zm6.909.366a2.24 2.24 0 0 0-1.472 2.11c0 2.08 2.494 3.037 3.882 1.5 1.546-1.726-.225-4.388-2.41-3.61zm1.256 1.247c.347.206.582.703.507 1.059-.113.525-.713.928-1.2.806-.891-.215-1.078-1.378-.31-1.847.357-.215.647-.225 1.003-.018z" fill="#1F1F1F"/></svg><svg fill="none" viewBox="0 0 40 40" id="icon6" xmlns="http://www.w3.org/2000/svg"><g clip-path="url(#ea)"><path d="M16.313.227a1.14 1.14 0 0 0-.5.585l-.149.36H9.141c-4.313 0-6.625.031-6.82.086-.368.101-.829.492-.962.828-.086.203-.109 1.5-.109 6.937 0 6.094-.008 6.68-.125 6.68-.258 0-.75.36-.938.672l-.187.32V20c0 3.273 0 3.305.172 3.61.18.312.695.687.945.687.125 0 .133.5.133 6.64 0 5.407.023 6.696.11 6.899.132.336.593.727.96.828.196.055 2.516.086 6.844.086 6.047 0 6.54.008 6.54.133 0 .25.374.765.687.945.304.172.336.172 3.609.172h3.305l.32-.188c.313-.187.672-.68.672-.937 0-.117.57-.125 6.547-.125 4.32 0 6.64-.031 6.836-.086.367-.102.828-.492.96-.828.087-.203.11-1.492.11-6.898 0-6.141.008-6.641.133-6.641.25 0 .765-.375.945-.688C40 23.305 40 23.273 40 20v-3.305l-.188-.32c-.187-.313-.68-.672-.937-.672-.117 0-.125-.586-.125-6.68 0-5.437-.023-6.734-.11-6.937-.132-.336-.593-.727-.96-.828-.196-.055-2.508-.086-6.82-.086h-6.524l-.148-.36a1.14 1.14 0 0 0-.5-.585L23.328 0h-6.656l-.36.227zm6.734 1.101c.047.07.078 2.156.078 5.242 0 4.711-.008 5.133-.133 5.18-.086.04-.195-.031-.344-.21-.117-.142-.398-.36-.625-.485l-.421-.235h-3.204l-.421.235c-.227.125-.508.343-.625.484-.149.18-.258.25-.344.211-.125-.047-.133-.469-.133-5.18 0-2.82.031-5.164.063-5.21a.425.425 0 0 1 .171-.133c.063-.024 1.414-.04 2.993-.032 2.46.016 2.882.032 2.945.133zM5.469 5.352l-2.93 2.93-.023-2.821c-.016-2.024.007-2.86.07-2.93.07-.086.625-.11 2.953-.11H8.4l-2.93 2.93zm1.758 1.757-4.688 4.688-.023-.836-.024-.836 3.852-3.852 3.851-3.851h1.72L7.226 7.109zm8.398-4.32v.375L9.398 9.391l-6.234 6.234H2.5v-1.992L8.102 8.03l5.609-5.61h1.914v.368zm13.36 2.328c1.593 1.594 2.765 2.696 2.85 2.703.571.032.782-.18.75-.75-.007-.086-.944-1.086-2.25-2.398l-2.25-2.25h1.72l3.843 3.844 3.852 3.851v1.719l-1.617-1.617c-.899-.883-1.703-1.649-1.797-1.696-.383-.195-.836.125-.836.586 0 .25.156.43 2.125 2.399l2.125 2.125v1.992h-.664l-6.227-6.227-6.234-6.234v-.742h1.914l2.695 2.695zm8.43-2.586c.062.07.085.906.07 2.93l-.024 2.82-2.93-2.93-2.93-2.93h2.86c2.328 0 2.883.024 2.953.11zm-23.76 6.196c-1.086 1.085-2.008 1.976-2.054 1.976-.04 0-.297.102-.563.227a3.683 3.683 0 0 0-1.82 1.968c-.133.344-.375.625-1.313 1.57l-1.148 1.157H4.96l5.312-5.313L15.586 5l.023.875.024.875-1.977 1.977zm20.469 6.882-.875.024-1.148-1.149c-.891-.89-1.18-1.234-1.29-1.507-.375-1.032-1.328-1.954-2.296-2.235-.11-.031-1.086-.937-2.164-2.015l-1.977-1.97V4.962l5.313 5.312L35 15.586l-.875.023zm-18.531-4.695c-.016.016-.25-.039-.524-.133a6.587 6.587 0 0 0-.953-.21l-.46-.048.968-.968.96-.961.024 1.14c.008.633.008 1.164-.015 1.18zm10.289-.351c-.25.039-.672.132-.938.218a6.36 6.36 0 0 1-.53.156c-.024 0-.04-.539-.04-1.187V8.555l.977.976.976.977-.445.055zm-11.469 1.359c.578.14 1.438.555 1.953.953l.39.297.024.515.024.516-.75-.039c-.703-.047-.758-.039-.938.133a.584.584 0 0 0-.195.476c0 .407.273.618.812.625.696.008 1.024.094 1.047.274.047.312-1.21.734-2.5.851-.523.047-.633.079-.765.25-.086.11-.157.274-.157.368 0 .218.204.507.422.586.344.132 2.11-.125 2.883-.422.117-.047.133.008.133.539v.593l-.477.352c-.992.727-1.96 1.055-3.125 1.055-1.093 0-1.617-.164-2.195-.688-.68-.617-.922-1.476-.922-3.343 0-1.422.063-1.883.36-2.54.585-1.296 2.085-1.804 3.976-1.351zm12.992-.125c1.328.172 2.078.86 2.399 2.203.164.695.156 2.844-.008 3.64-.164.797-.164.93.047 1.157.351.367.906.156 1.078-.414.047-.164.133-.57.18-.906l.085-.602h3.688c2.18 0 3.727.031 3.797.078.101.063.117.485.117 3.047 0 2.563-.016 2.984-.117 3.047-.07.047-2.602.078-6.461.078h-6.352v-2.023h.883c1.04 0 1.914-.172 2.203-.446.242-.226.25-.562.032-.843-.188-.235-.383-.25-1.008-.086-.563.148-1.766.148-2.36-.008a6.003 6.003 0 0 1-1.937-.938l-.469-.343v-1.25h.781c.68 0 .805-.024.938-.157.234-.234.234-.648-.008-.898-.125-.133-.289-.164-.953-.195l-.797-.047.742-.36c.735-.36 1.336-.531 1.828-.531.141 0 .368-.04.5-.086.446-.156.516-.805.118-1.062-.36-.243-1.86.007-3.047.492-.078.031-.102-.102-.102-.54v-.593l.336-.266c.695-.57 1.695-1.008 2.594-1.14.633-.094.625-.094 1.273-.008zm-6.054.344c.14.054.328.203.406.328.148.219.156.383.156 3.32 0 3.344 0 3.36-.422 3.64-.172.118-.39.141-1.492.141-1.102 0-1.32-.023-1.492-.14-.422-.282-.422-.297-.422-3.64 0-2.938.008-3.102.156-3.321a.991.991 0 0 1 .39-.328c.329-.149 2.376-.149 2.72 0zM8.828 15.508c0 .062-.055.117-.125.117-.11 0-.11-.023-.031-.117.055-.063.11-.117.125-.117s.031.054.031.117zm22.5 0c.078.094.078.117-.031.117-.07 0-.125-.055-.125-.117 0-.063.015-.117.031-.117s.07.054.125.117zm-22.43 2.008c.243 1.554.961 2.617 2.149 3.18.648.304 1.219.413 2.234.406h.86v2.023h-.75c-.407 0-.813.031-.891.078-.219.117-.336.524-.21.766.148.312.413.406 1.17.406h.68v2.078c0 2.008.008 2.094.172 2.39.204.36.711.688 1.063.688h.25v1.914l-3.516-3.515-3.515-3.516.969-.039c1.046-.04 1.226-.117 1.328-.516.054-.218-.125-.617-.305-.687-.07-.024-2.156-.047-4.633-.047-2.703 0-4.555-.031-4.625-.078-.101-.063-.117-.485-.117-3.047 0-2.563.016-2.984.117-3.047.07-.047 1.617-.078 3.797-.078h3.68l.093.64zm8.454 2.586c.117.14.367.343.57.445l.36.195-.016 2.969-.024 2.969-1.367.797c-.75.445-1.39.804-1.422.804-.031 0-.062-1.695-.062-3.773v-3.774l.414-.172c.226-.093.586-.289.797-.437.218-.148.43-.273.468-.273.047-.008.172.109.282.25zm6.085.046c.266.172.633.368.829.446l.343.133V24.5c0 2.078-.03 3.781-.062 3.781-.031 0-.672-.36-1.422-.804l-1.367-.797-.024-2.97-.015-2.968.36-.195c.202-.102.452-.305.57-.445.109-.141.226-.258.257-.258.032 0 .274.14.532.304zm-2.968 1.844v1.133h-.938v-2.266h.938v1.133zm-11.04 8.57 6.196 6.196v.742h-1.914l-5.602-5.602L2.5 26.29v-1.914h.742l6.188 6.188zm1.766-1.75 4.438 4.438-.024.836-.023.836-5.274-5.274-5.273-5.273h1.719l4.437 4.438zm9.274-3.195c0 .695.039 1.344.086 1.469.14.367.445.625 1.53 1.25l1.04.61v4.804c0 2.89-.031 4.852-.078 4.922-.063.101-.485.117-3.047.117-2.563 0-2.984-.016-3.047-.117-.047-.07-.078-2.031-.078-4.922v-4.805l1.04-.61c1.085-.624 1.39-.882 1.53-1.25.047-.124.086-.773.086-1.468v-1.242h.938v1.242zm10.937-1.219c0 .008-1.578 1.602-3.515 3.532l-3.516 3.515v-1.914h.242c.36 0 .844-.304 1.055-.672.187-.312.187-.343.187-2.398v-2.086h2.774c1.523 0 2.773.008 2.773.023zm-1.718 5.25-5.274 5.274-.023-.836-.024-.836 4.438-4.438 4.437-4.437h1.719l-5.273 5.273zm7.812-4.32v.961l-5.602 5.602L26.29 37.5h-1.914v-.742l6.188-6.188 6.195-6.195h.742v.953zM11.04 37.484l-.837.024-3.851-3.852L2.5 29.805v-1.72l4.688 4.688 4.687 4.688-.836.023zm22.616-3.836L29.805 37.5h-1.72l4.688-4.688 4.688-4.687.023.836.024.836-3.852 3.851zM5.54 37.484c-2.023.016-2.86-.007-2.93-.07-.086-.07-.109-.625-.109-2.953V31.6l2.93 2.93 2.93 2.93-2.82.023zm31.875-.093c-.07.086-.625.109-2.953.109H31.6l2.93-2.93 2.93-2.93.023 2.82c.016 2.024-.007 2.86-.07 2.93z" fill="#1F1F1F"/></g><defs><clipPath id="ea"><path fill="#fff" d="M0 0h40v40H0z"/></clipPath></defs></svg><svg fill="none" viewBox="0 0 46 46" id="icon7" xmlns="http://www.w3.org/2000/svg"><path d="M1.752 1.854c-.62.324-.88.755-.88 1.474 0 1.024.574 1.581 1.742 1.68l.62.054v9.946h-.332c-.53 0-.988.161-1.339.467-.449.395-.602.746-.602 1.374 0 .63.153.98.602 1.375.35.305.809.467 1.339.467h.332v8.159l-.62.036c-.494.027-.673.08-.925.27-.844.646-.844 2.012 0 2.659.252.189.431.242.925.27l.62.035v7.26h-.8c-.655 0-.835.027-1.005.17-.207.162-.216.216-.216 1.384 0 1.07.018 1.23.17 1.401l.171.19H23.18c20.834 0 21.634-.01 21.769-.163.126-.134.153-.377.153-1.437 0-1.572.018-1.545-1.276-1.545h-.88V30.1h.52c.98 0 1.636-.638 1.636-1.599 0-.988-.54-1.563-1.546-1.617l-.61-.036v-8.129l.43-.046c.585-.054 1.07-.314 1.402-.727.234-.288.279-.44.306-.953.026-.485 0-.683-.153-.98a1.8 1.8 0 0 0-1.132-.907c-.252-.072-3.019-.098-8.94-.098h-8.58l-1.518-5.463c-.836-3-1.608-5.66-1.716-5.92-.279-.63-.827-1.196-1.5-1.564l-.567-.305-9.478-.027c-8.472-.018-9.505 0-9.748.125zm19.1 1.177c.225.117.513.324.648.459l.251.26-6.217.054c-10.476.108-13.036.09-13.27-.08-.287-.198-.243-.657.072-.818.18-.09 2.057-.117 9.164-.1l8.94.028.413.197zm2.768 6.82a582.172 582.172 0 0 0 1.42 5.03c.035.109-.126.127-.953.127h-.997v-1.375c0-.746-.036-1.617-.081-1.923a3.52 3.52 0 0 0-1.94-2.686c-.495-.234-.62-.26-1.483-.26-.89 0-.988.017-1.545.296-.746.368-1.42 1.07-1.698 1.797-.19.458-.207.7-.243 2.327l-.036 1.824h-3.567l-.027-1.824c-.027-1.635-.054-1.869-.242-2.327-.279-.728-.953-1.438-1.698-1.797-.557-.279-.656-.297-1.546-.297-.862 0-.988.027-1.482.261a3.742 3.742 0 0 0-1.626 1.626c-.26.54-.26.548-.288 2.444l-.027 1.914H4.402V5.035l1.555-.027c.844-.009 4.86-.036 8.921-.045l7.367-.018 1.375 4.906zm-13.9.143c.45.135 1.096.701 1.357 1.186.18.333.197.521.224 2.094l.036 1.734h-4.6v-1.69c0-1.572.018-1.707.216-2.129.476-1.033 1.644-1.536 2.767-1.195zm10.808.108c.548.26.872.593 1.141 1.177.18.404.207.629.234 2.084l.036 1.645h-4.708l.036-1.734c.027-1.573.045-1.761.225-2.094.242-.458.907-1.05 1.302-1.177.54-.17 1.25-.134 1.734.1zM43.7 16.364a.606.606 0 0 1 0 .97l-.243.19H2.614l-.242-.207c-.324-.279-.324-.656 0-.935l.242-.207h40.843l.243.19zm-16.621 5.858c.539 1.932 1.051 3.773 1.14 4.079l.163.566h-4.475l-.026-1.914c-.027-1.869-.027-1.913-.279-2.453-.323-.691-1.015-1.383-1.725-1.715-.476-.225-.638-.252-1.438-.252-.835 0-.943.018-1.491.287a3.702 3.702 0 0 0-1.68 1.716c-.234.495-.243.566-.27 2.417l-.036 1.914h-3.575v-1.572c0-1.69-.081-2.282-.414-2.938-1.105-2.201-4.267-2.525-5.786-.593-.646.808-.745 1.222-.79 3.28l-.036 1.823H4.402V18.69H26.1l.979 3.531zm14.698.557v4.088h-2.875v-1.572c0-2.085-.143-2.705-.826-3.576-.827-1.051-2.435-1.492-3.774-1.042-1.042.35-1.752 1.024-2.147 2.04-.18.457-.207.718-.242 2.326l-.036 1.824h-2.273l-1.114-3.98c-.611-2.183-1.133-4.025-1.15-4.088-.037-.08 1.446-.108 7.196-.108h7.241v4.088zm-30.78-.817c.216.125.521.386.683.566.449.548.539 1.024.539 2.785v1.554h-4.69l.036-1.734c.045-1.85.09-2.084.566-2.65a2.8 2.8 0 0 1 1.105-.746c.45-.144 1.32-.036 1.76.225zm10.422-.081c.413.197.88.646 1.105 1.06.135.242.17.575.188 2.102l.027 1.824h-4.59v-1.69c0-1.58.017-1.706.215-2.128.422-.899 1.249-1.42 2.165-1.366.297.018.701.108.89.198zm15.094.08c.215.126.52.387.682.567.45.548.54 1.024.54 2.785v1.554h-4.692l.037-1.734c.044-1.85.09-2.084.566-2.65.26-.306.727-.62 1.105-.746.449-.144 1.32-.036 1.76.225zm7.151 6.1c.252.127.35.53.17.747-.161.188-41.327.188-41.49 0-.179-.216-.08-.62.172-.746.332-.17 40.816-.17 41.148 0zm-14.339 2.193c.207.7 1.94 6.972 1.94 7.035 0 .054-.43.09-1.024.09h-1.033l-.027-1.87-.027-1.859-.287-.602c-1.258-2.668-5.05-2.66-6.298 0-.234.494-.243.575-.27 2.417l-.027 1.914h-1.5l-.036-1.87-.027-1.859-.287-.602c-1.258-2.668-5.05-2.66-6.299 0-.233.494-.242.575-.27 2.417l-.026 1.914h-1.5l-.036-1.87c-.027-1.805-.036-1.877-.27-2.38-.314-.674-1.015-1.401-1.662-1.734-.485-.242-.593-.26-1.51-.26-.88 0-1.042.026-1.5.242-.665.306-1.365 1.006-1.67 1.671-.234.494-.243.566-.27 2.417l-.027 1.914h-.98V30.1h12.435c11.77 0 12.443.01 12.488.153zm12.452 3.486v3.639h-1.509l-.036-1.87-.027-1.859-.278-.584c-1.267-2.677-5.059-2.686-6.307-.018-.234.494-.243.566-.27 2.417l-.027 1.914h-.404c-.216 0-.396-.018-.396-.036s-.44-1.626-.988-3.567c-.539-1.95-.988-3.567-.988-3.603 0-.045 2.524-.072 5.615-.072h5.615v3.639zm-23.413-1.23c.234.125.548.377.692.547.45.548.53.953.53 2.722v1.6h-4.582v-1.69c0-1.58.018-1.706.216-2.129.188-.404.422-.683.889-1.033.27-.206.98-.36 1.41-.305.225.027.603.161.845.287zm8.445 0c.234.125.548.377.692.547.45.548.53.953.53 2.722v1.6H23.45v-1.69c0-1.58.018-1.706.216-2.129.189-.404.422-.683.89-1.033.269-.206.979-.36 1.41-.305.224.027.602.161.844.287zm11.051 0c.234.125.548.377.692.547.45.548.53.953.53 2.722v1.6H34.5v-1.654c0-1.733.054-2.048.422-2.542.71-.961 1.896-1.24 2.938-.674zm-28.184-.118c.566.234.899.557 1.186 1.132l.279.557v3.298H6.559v-1.69c0-1.841.08-2.174.61-2.749.576-.61 1.744-.862 2.507-.548zm34.347 6.604v.45H2.336v-.9h41.687v.45z" fill="#1F1F1F"/><path d="M5.21 5.799a.768.768 0 0 0-.116.404c0 .476.144.548 1.051.521.782-.027.818-.036.953-.278.116-.216.116-.27 0-.495-.135-.233-.171-.242-.953-.27-.656-.017-.844 0-.934.118zm2.48.062c-.188.261-.18.459.019.692.152.189.197.189 2.578.171l2.426-.027.117-.252c.098-.197.098-.287 0-.494l-.117-.242-2.444-.027c-2.435-.018-2.444-.018-2.578.18z" fill="#1F1F1F"/></svg><svg fill="none" viewBox="0 0 40 41" id="icon8" xmlns="http://www.w3.org/2000/svg"><g clip-path="url(#ga)" fill="#1F1F1F"><path d="M1.328.287a2.45 2.45 0 0 0-1.14 1.125C-.07 1.952-.07 2.811.18 3.357l.18.383-.165.32c-.225.462-.225 1.689.008 2.08l.156.273-.18.39c-.25.548-.25 1.407 0 1.946l.18.383-.164.32c-.226.453-.226 1.594 0 2.047l.164.32-.18.383c-.25.54-.25 1.399 0 1.938l.18.383-.164.32c-.226.453-.226 1.594 0 2.047l.164.32-.18.383c-.25.539-.25 1.398 0 1.937l.18.383-.164.32c-.226.454-.226 1.594 0 2.047l.164.32-.18.383c-.25.54-.25 1.399 0 1.938l.18.383-.156.32c-.219.438-.258 1.313-.094 1.828.172.5.555.938 1.07 1.227.376.21.493.234 1.087.234.539 0 .726-.031 1-.18l.336-.18.367.18c.289.141.5.18 1 .18h.625v.625c0 .492.039.703.18.992l.18.375-.18.367c-.133.29-.18.508-.18.961 0 .97.43 1.68 1.265 2.086.594.29 1.43.305 1.985.032l.375-.18.367.18c.297.14.508.18 1 .18h.625v.624c0 .5.039.711.18 1l.18.367-.18.336c-.149.274-.18.461-.18 1 0 .594.023.711.234 1.086.29.516.727.899 1.227 1.07.515.165 1.39.126 1.828-.093l.32-.156.383.18c.54.25 1.399.25 1.938 0l.382-.18.32.164c.25.125.47.156 1.024.156.555 0 .774-.031 1.024-.156l.32-.164.383.18c.539.25 1.398.25 1.937 0l.383-.18.32.164c.453.226 1.594.226 2.047 0l.32-.164.383.18c.54.25 1.399.25 1.938 0l.383-.18.32.164c.453.226 1.594.226 2.047 0l.32-.164.383.18c.54.25 1.398.25 1.945 0l.39-.18.274.156c.391.234 1.618.234 2.078.008l.32-.164.384.18c.547.25 1.406.25 1.945-.009a2.448 2.448 0 0 0 1.125-1.14c.234-.508.227-1.39-.016-1.906l-.18-.383.165-.32c.226-.461.226-1.688-.008-2.079l-.156-.273.18-.39c.25-.547.25-1.407 0-1.946l-.18-.383.164-.32c.226-.453.226-1.594 0-2.047l-.164-.32.18-.383c.25-.54.25-1.399 0-1.938l-.18-.382.164-.32c.125-.25.156-.47.156-1.024 0-.555-.031-.774-.156-1.024l-.164-.32.18-.383c.25-.539.25-1.398 0-1.937l-.18-.383.164-.32c.226-.453.226-1.594 0-2.047l-.164-.32.18-.383c.25-.54.25-1.399 0-1.938l-.18-.383.156-.32c.219-.438.258-1.313.094-1.828-.172-.5-.555-.938-1.07-1.227-.376-.21-.493-.234-1.087-.234-.539 0-.726.031-1 .18l-.336.18-.367-.18c-.289-.141-.5-.18-1-.18h-.625v-.625c0-.492-.039-.703-.18-1l-.18-.367.18-.375c.274-.555.258-1.39-.03-1.985-.407-.836-1.118-1.265-2.087-1.265-.453 0-.672.039-.96.18l-.368.18-.375-.18c-.289-.141-.5-.18-.992-.18h-.625v-.625c0-.5-.039-.711-.18-1l-.18-.367.18-.336c.149-.274.18-.461.18-1 0-.594-.023-.711-.234-1.086-.29-.516-.727-.899-1.227-1.07-.515-.165-1.39-.126-1.828.093l-.32.156-.383-.18c-.29-.132-.524-.179-.969-.179-.445 0-.68.047-.969.18l-.382.18-.32-.165c-.454-.226-1.595-.226-2.048 0l-.32.164-.383-.18c-.539-.25-1.398-.25-1.945 0l-.39.18-.274-.156c-.39-.234-1.617-.234-2.078-.008l-.32.164-.383-.18c-.54-.25-1.399-.25-1.946 0l-.39.18-.274-.156C11.016.092 9.79.092 9.328.318l-.32.164-.383-.18c-.54-.25-1.398-.25-1.945 0l-.39.18-.274-.156C5.625.092 4.398.092 3.937.318l-.32.164-.383-.18C2.72.062 1.836.053 1.328.288zm4.188 1.227c.078.047.234.172.336.28.289.306.617.274 1.062-.108.313-.274.406-.313.742-.313.336 0 .43.04.742.313.446.382.774.414 1.063.109.101-.11.289-.258.414-.32.445-.227.969-.11 1.367.32.29.305.617.273 1.063-.11.312-.273.406-.312.742-.312.336 0 .43.04.742.313.445.382.774.414 1.063.109.101-.11.289-.258.414-.32.445-.227.968-.11 1.367.32.289.305.617.273 1.062-.11.313-.273.407-.312.742-.312.336 0 .43.04.743.313.445.382.773.414 1.062.109.102-.11.29-.258.414-.32.446-.227.969-.11 1.367.32.29.305.618.273 1.063-.11.312-.273.406-.312.742-.312.336 0 .43.04.742.313.446.382.774.414 1.063.109.594-.64 1.57-.524 1.851.219.157.406.063.789-.28 1.172-.368.406-.384.734-.04 1.093.43.461.523.836.305 1.235-.102.18-.157.187-.727.195-.46.008-.695.055-.976.187l-.375.18-.368-.18c-.546-.257-1.406-.257-1.937.008l-.39.196-.391-.196c-.532-.265-1.39-.265-1.93-.008l-.375.18-.367-.18c-.547-.257-1.406-.257-1.938.008l-.39.196-.39-.196c-.532-.265-1.392-.265-1.93-.008l-.376.18-.367-.18c-.547-.257-1.406-.257-1.937.008l-.39.196-.392-.196c-.53-.265-1.39-.265-1.93-.008l-.374.18-.367-.18c-.29-.14-.508-.187-.961-.187-.977 0-1.743.484-2.133 1.36-.235.515-.227 1.398.015 1.898l.18.375-.18.367c-.257.547-.257 1.406.008 1.938l.196.39-.196.39c-.265.532-.265 1.391-.008 1.93l.18.375-.18.368c-.257.546-.257 1.406.008 1.937l.196.39-.196.391c-.265.532-.265 1.391-.008 1.93l.18.375-.18.367c-.257.547-.257 1.407.008 1.938l.196.39-.196.391c-.265.531-.265 1.39-.008 1.93l.18.375-.18.367c-.132.289-.18.523-.187.984-.008.57-.016.625-.195.727-.399.219-.774.125-1.22-.297-.35-.328-.726-.328-1.062-.008-.468.438-.773.508-1.273.305-.695-.297-.781-1.258-.164-1.836.305-.29.273-.617-.11-1.063-.273-.312-.312-.406-.312-.742 0-.336.04-.43.313-.742.382-.445.414-.773.109-1.063-.563-.53-.563-1.25 0-1.78.305-.29.273-.618-.11-1.063-.273-.313-.312-.407-.312-.742 0-.336.04-.43.313-.743.382-.445.414-.773.109-1.062-.563-.531-.563-1.25 0-1.781.305-.29.273-.618-.11-1.063-.273-.312-.312-.406-.312-.742 0-.336.04-.43.313-.742.382-.446.414-.774.109-1.063-.563-.531-.563-1.25 0-1.781.305-.29.273-.617-.11-1.063-.273-.312-.312-.406-.312-.742 0-.336.04-.43.313-.742.382-.445.414-.773.109-1.062-.563-.532-.563-1.25 0-1.782.305-.289.273-.617-.11-1.062-.273-.32-.312-.406-.312-.758s.031-.422.305-.695c.273-.274.343-.305.695-.305.352 0 .438.04.758.313.46.398.75.414 1.101.07.43-.422.922-.508 1.407-.242zm2.656 5.484c.117.047.351.203.515.352.407.367.657.359 1.11-.04.586-.5 1.031-.492 1.625.04.375.343.586.343 1.008-.008.633-.531 1.015-.531 1.601-.031.461.406.696.406 1.156 0 .586-.5.97-.5 1.602.03.422.352.633.352 1.008.009.594-.532 1.039-.54 1.625-.04.46.407.695.407 1.156 0 .586-.5.969-.5 1.602.032.422.351.633.351 1.008.008.593-.532 1.039-.54 1.625-.04.234.211.43.313.578.313.148 0 .343-.102.578-.312.586-.5.968-.5 1.601.03.422.352.633.352 1.008.009.594-.532 1.04-.54 1.625-.04.235.211.43.313.578.313.149 0 .344-.102.578-.312.203-.165.477-.329.625-.352.47-.094 1.016.281 1.172.805.094.289-.023.625-.351 1-.399.46-.399.695.008 1.156.367.43.453.789.28 1.156l-.124.258h-.64c-.517 0-.72.039-.977.18l-.32.171-.384-.18c-.53-.241-1.468-.241-2 0l-.382.18-.32-.18c-.47-.241-1.516-.241-1.985 0l-.32.18-.383-.18c-.531-.241-1.469-.241-2 0l-.383.18-.32-.18c-.266-.132-.453-.171-.992-.171-.54 0-.727.039-.993.172l-.32.18-.383-.18c-.289-.133-.523-.172-1-.172-.476 0-.71.039-1 .172l-.383.18-.32-.18c-.469-.242-1.516-.242-1.984 0l-.32.18-.383-.18c-.54-.242-1.485-.242-1.985.008-.46.226-.875.64-1.101 1.101-.25.5-.25 1.445-.008 1.985l.18.382-.18.32c-.242.47-.242 1.516 0 1.985l.18.32-.18.383c-.133.29-.172.524-.172 1 0 .477.039.711.172 1l.18.383-.18.32c-.242.47-.242 1.516 0 1.985l.18.32-.18.383c-.242.531-.242 1.469 0 2l.18.383-.18.32c-.242.469-.242 1.516 0 1.984l.18.32-.18.383c-.133.29-.172.524-.172 1 0 .477.039.711.172 1l.18.383-.172.32c-.141.258-.18.462-.18.977v.64l-.258.126c-.367.172-.726.086-1.156-.282-.461-.406-.695-.406-1.156-.007-.375.328-.711.445-1 .351-.524-.156-.899-.703-.805-1.172.023-.148.187-.421.351-.625.399-.453.407-.703.04-1.109-.532-.594-.54-1.039-.04-1.625.172-.195.313-.438.313-.539 0-.102-.125-.336-.281-.516-.532-.633-.532-1.015-.032-1.601.399-.453.407-.703.04-1.11-.532-.593-.54-1.039-.04-1.625.172-.195.313-.437.313-.539 0-.101-.125-.336-.281-.515-.532-.633-.532-1.016-.032-1.602.407-.46.407-.695 0-1.156-.5-.586-.5-.969.032-1.602.156-.18.281-.414.281-.515 0-.102-.125-.336-.281-.516-.532-.633-.532-1.015-.032-1.601.407-.461.407-.696 0-1.157-.5-.586-.5-.969.032-1.601.351-.422.351-.633.008-1.008-.532-.594-.54-1.04-.04-1.625.407-.461.407-.695 0-1.156-.375-.438-.453-.782-.273-1.172.25-.531.774-.774 1.258-.594zm5.797 5.703.25.156v25.774l-.235.125c-.523.273-1.234.039-1.453-.469-.203-.5-.133-.805.305-1.273.344-.36.328-.688-.047-1.102-.156-.172-.305-.406-.336-.515-.078-.313.031-.704.25-.907.258-.234.438-.64.367-.828-.023-.078-.164-.273-.304-.43-.274-.304-.391-.71-.313-1.039.031-.109.18-.343.336-.515.39-.43.39-.727 0-1.157-.156-.171-.305-.406-.336-.515-.078-.313.031-.703.25-.906.258-.235.438-.641.367-.829-.023-.078-.164-.273-.304-.43-.274-.304-.391-.71-.313-1.038.031-.11.18-.344.336-.516.39-.43.39-.726 0-1.156-.156-.172-.305-.406-.336-.516-.078-.312.031-.703.25-.906.461-.422.485-.86.078-1.234-.453-.422-.453-1.07.016-1.586.383-.422.383-.72-.008-1.149-.156-.172-.305-.406-.336-.515-.078-.313.031-.704.25-.907.461-.422.485-.859.078-1.234-.453-.422-.453-1.07.016-1.578.36-.406.375-.75.031-1.117-.445-.47-.515-.836-.25-1.282.32-.523.906-.695 1.39-.406zm2.633-.047.273.117v16.891l.195.188c.25.257.61.257.86 0l.195-.188V12.857l.258-.156c.32-.195.648-.195.976 0l.25.156v25.774l-.234.125c-.29.148-.727.148-1.016 0l-.234-.125v-6.64l-.195-.188a.574.574 0 0 0-.86 0l-.195.187v6.64l-.172.118c-.094.07-.336.125-.531.125s-.438-.055-.531-.125l-.172-.117V12.77l.258-.109c.32-.14.539-.14.875-.008zm5.39 0 .274.117v25.86l-.172.117c-.094.07-.336.125-.532.125-.195 0-.437-.055-.53-.125l-.173-.117V12.77l.258-.109c.32-.14.54-.14.875-.008zm2.758.047.25.156v4.602l.203.156c.258.203.586.211.82.016l.188-.149.039-2.375.04-2.367.335-.117c.29-.101.367-.101.664 0l.328.117.024 12.93.015 12.93-.164.14c-.11.086-.297.133-.539.133-.242 0-.43-.047-.539-.133l-.164-.14-.023-9.477-.016-9.484-.188-.149c-.234-.195-.562-.187-.82.016l-.203.156v18.969l-.234.125a1.214 1.214 0 0 1-1.016 0l-.234-.125V12.858l.257-.157a1.1 1.1 0 0 1 .485-.156c.133 0 .351.07.492.156zm5.39 0 .25.156v25.774l-.234.125a1.214 1.214 0 0 1-1.015 0l-.235-.125V12.858l.258-.157c.133-.086.36-.156.484-.156.133 0 .352.07.493.156zm2.633-.047.274.117v9.688c0 6.508.023 9.758.078 9.898.164.43.602.547.969.258l.203-.156V12.857l.258-.156c.32-.195.648-.195.976 0l.25.156v25.774l-.234.125c-.29.148-.727.148-1.016 0l-.234-.125v-3.969l-.203-.156c-.367-.29-.805-.172-.969.258-.047.125-.078.968-.078 2.039 0 1.797 0 1.828-.172 1.945-.094.07-.336.125-.531.125-.196 0-.438-.055-.532-.125l-.171-.117V12.77l.257-.109c.32-.14.54-.14.875-.008zm5.391 0c.695.297.781 1.258.164 1.836-.305.29-.273.617.11 1.063.273.312.312.406.312.742 0 .336-.04.43-.313.742-.382.445-.414.774-.109 1.063.281.257.422.562.422.89 0 .328-.14.633-.422.89-.305.29-.273.618.11 1.063.273.313.312.407.312.742 0 .337-.04.43-.313.743-.382.445-.414.773-.109 1.062.281.258.422.563.422.89 0 .329-.14.634-.422.892-.305.289-.273.617.11 1.062.273.313.312.406.312.742 0 .336-.04.43-.313.742-.382.446-.414.774-.109 1.063.281.258.422.562.422.89 0 .329-.14.633-.422.891-.305.29-.273.617.11 1.063.273.312.312.406.312.742 0 .336-.04.43-.313.742-.382.445-.414.773-.109 1.063.563.53.563 1.25 0 1.78-.305.29-.273.618.11 1.063.273.32.312.407.312.758 0 .352-.031.422-.305.695-.265.274-.343.305-.687.305-.219 0-.453-.055-.555-.125l-.172-.117V12.77l.258-.109c.32-.14.54-.14.875-.008z"/><path d="M8.71 8.912c-.39.383-.116 1.055.43 1.055.32 0 .626-.305.626-.625s-.305-.625-.625-.625a.609.609 0 0 0-.43.195zm3.126 0c-.39.383-.117 1.055.43 1.055.32 0 .625-.305.625-.625s-.305-.625-.625-.625a.61.61 0 0 0-.43.195zm3.124 0c-.39.383-.116 1.055.43 1.055.32 0 .626-.305.626-.625s-.305-.625-.625-.625a.61.61 0 0 0-.43.195zm3.126 0c-.39.383-.117 1.055.43 1.055.32 0 .625-.305.625-.625s-.305-.625-.625-.625a.61.61 0 0 0-.43.195zm3.124 0a.609.609 0 0 0-.194.43c0 .148.07.312.195.43a.61.61 0 0 0 .43.195c.148 0 .312-.07.43-.196a.609.609 0 0 0 .195-.43.609.609 0 0 0-.196-.429.609.609 0 0 0-.43-.195.61.61 0 0 0-.43.195zm3.126 0a.609.609 0 0 0-.195.43c0 .148.07.312.195.43a.61.61 0 0 0 .43.195c.148 0 .312-.07.43-.196a.609.609 0 0 0 .195-.43.609.609 0 0 0-.196-.429.609.609 0 0 0-.43-.195.61.61 0 0 0-.43.195zm3.124 0a.609.609 0 0 0-.194.43c0 .148.07.312.195.43a.61.61 0 0 0 .43.195c.148 0 .312-.07.43-.196a.609.609 0 0 0 .195-.43.609.609 0 0 0-.196-.429.609.609 0 0 0-.43-.195.61.61 0 0 0-.43.195zm3.126 0a.609.609 0 0 0-.195.43c0 .148.07.312.195.43a.61.61 0 0 0 .43.195c.148 0 .312-.07.43-.196a.609.609 0 0 0 .195-.43.609.609 0 0 0-.196-.429.609.609 0 0 0-.43-.195.61.61 0 0 0-.43.195zM8.71 11.88c-.39.384-.116 1.055.43 1.055.32 0 .626-.304.626-.625 0-.32-.305-.625-.625-.625a.61.61 0 0 0-.43.196zm0 2.97c-.39.382-.116 1.054.43 1.054.32 0 .626-.304.626-.625 0-.32-.305-.625-.625-.625a.609.609 0 0 0-.43.196zm0 2.968c-.39.383-.116 1.055.43 1.055.32 0 .626-.305.626-.625s-.305-.625-.625-.625a.61.61 0 0 0-.43.195zm0 2.969a.61.61 0 0 0-.194.43c0 .148.07.312.195.43a.609.609 0 0 0 .43.195c.148 0 .312-.07.43-.195a.61.61 0 0 0 .195-.43.61.61 0 0 0-.196-.43.609.609 0 0 0-.43-.195.609.609 0 0 0-.43.195zm0 2.969a.609.609 0 0 0-.194.43c0 .148.07.312.195.43a.609.609 0 0 0 .43.195c.148 0 .312-.07.43-.196a.609.609 0 0 0 .195-.43.609.609 0 0 0-.196-.43.61.61 0 0 0-.43-.194.61.61 0 0 0-.43.195zm0 2.969a.61.61 0 0 0-.194.43c0 .148.07.312.195.429a.609.609 0 0 0 .43.195c.148 0 .312-.07.43-.195a.61.61 0 0 0 .195-.43.61.61 0 0 0-.196-.43.609.609 0 0 0-.43-.195.609.609 0 0 0-.43.196zm0 2.968a.609.609 0 0 0-.194.43c0 .148.07.313.195.43a.609.609 0 0 0 .43.195c.148 0 .312-.07.43-.195a.609.609 0 0 0 .195-.43.609.609 0 0 0-.196-.43.61.61 0 0 0-.43-.195.61.61 0 0 0-.43.195z"/></g><defs><clipPath id="ga"><path fill="#fff" transform="translate(0 .123)" d="M0 0h40v40H0z"/></clipPath></defs></svg><svg fill="none" viewBox="0 0 43 43" id="icon9" xmlns="http://www.w3.org/2000/svg"><path d="M20.215 3.646c-2.906 1.193-5.333 2.218-5.4 2.268-.1.092-.118 1.058-.118 6.71 0 3.629.034 6.644.068 6.702.083.135-.06.084 5.568 2.2 2.712 1.025 5.03 1.857 5.156 1.857.26 0 10.843-4.157 11.07-4.35.134-.118.142-.538.142-6.568 0-6.03-.008-6.45-.143-6.568-.252-.21-10.556-4.434-10.817-4.434-.143 0-2.628.983-5.526 2.183zm5.014 1.697c.025 1.403.059 3.972.076 5.71l.016 3.175-.378.16c-.436.185-8.684 3.603-8.97 3.712l-.184.076.017-5.761.025-5.762 4.62-1.915c2.544-1.05 4.643-1.915 4.669-1.923.033-.008.084 1.134.109 2.528zm5.72-.622 4.618 1.915.026 5.56c.008 3.057-.009 5.56-.05 5.56-.034 0-2.084-.79-4.553-1.755l-4.493-1.756-.059-.529c-.042-.47-.16-10.91-.117-10.91.008 0 2.09.866 4.627 1.915zm-.614 12.212c2.839 1.108 4.3 1.721 4.2 1.755-.076.034-2.15.857-4.595 1.823l-4.46 1.772-4.3-1.621c-2.36-.89-4.316-1.638-4.341-1.663-.05-.042 8.835-3.746 9.02-3.754.067-.009 2.083.756 4.476 1.688z" fill="#1F1F1F"/><path d="M22.474 6.326c-.596.226-1.108.462-1.15.52-.118.185-.084.555.058.697.202.21.53.16 1.563-.21 1.209-.428 1.326-.503 1.326-.865 0-.319-.218-.554-.512-.554-.109 0-.689.185-1.285.412zm-4.216 1.671c-.563.218-1.083.445-1.159.512-.268.227-.126.79.235.882.236.059 2.251-.63 2.512-.857.21-.184.184-.646-.043-.806-.268-.193-.411-.168-1.545.269zm4.888.303c-.546.21-.663.352-.621.747.016.193.084.294.252.378.193.092.302.075.755-.076.294-.1.597-.235.68-.31.32-.278.051-.95-.377-.933-.11 0-.412.092-.689.193zm-4.333 1.637c-1.453.537-1.739.672-1.848.865-.11.21-.11.26 0 .462.218.395.52.353 2.427-.353.95-.344 1.789-.697 1.873-.773.193-.176.193-.546 0-.722-.26-.235-.655-.151-2.453.52zm3.124.84c-.975.36-1.856.722-1.949.806-.327.302-.109.882.336.882.294 0 3.679-1.226 3.889-1.411.302-.26.058-.95-.336-.94-.084.008-.958.302-1.94.663zm-4.048 1.537c-.605.226-.756.37-.756.705 0 .21.059.32.21.42.201.134.252.134.73-.008.639-.202.907-.403.907-.706 0-.529-.403-.68-1.091-.411zm15.176-4.72-.227.176v3.444c0 3.325.008 3.443.168 3.602a.62.62 0 0 0 .378.168.62.62 0 0 0 .378-.168c.16-.16.168-.277.168-3.594 0-2.612-.026-3.46-.101-3.57-.185-.226-.512-.26-.764-.058zM29.882 25.7c-.219.068-1.059.48-1.873.925l-1.478.806-2.075-.034c-2.326-.042-2.326-.042-3.922-.772-1.31-.597-1.973-.748-3.36-.748-2.174-.008-3.636.563-5.383 2.1-.89.78-1.26 1.041-1.721 1.234l-.303.126-.319-1.066c-.176-.588-.37-1.134-.445-1.218-.117-.134-.403-.143-3.712-.143-4.014 0-3.914-.017-3.888.563 0 .176.26 2.393.57 4.938.538 4.485.563 4.628.765 4.804.269.244.386.244.672-.008l.235-.194-.53-4.358a304.759 304.759 0 0 0-.562-4.51c-.042-.135.135-.143 2.814-.143 1.579 0 2.863.017 2.863.042 0 .042 3.897 12.841 4.074 13.37l.117.361H4.216l-.059-.487c-.067-.57-.218-.772-.596-.772-.21 0-.32.058-.42.21-.118.176-.118.294-.034.982.06.462.152.84.236.924.117.143.47.151 5.097.151 4.712 0 4.98-.008 5.107-.151a.522.522 0 0 0 .143-.32c0-.083-.244-.948-.538-1.906l-.537-1.755.68-.437c2.486-1.595 2.889-1.822 3.3-1.864.311-.034 1.327.126 4.107.638 4.023.756 5.006.857 6.274.672.831-.117 2.057-.504 2.587-.806.201-.118 2.99-2.007 6.18-4.2 4.41-3.031 5.83-4.047 5.863-4.199.11-.436-.605-1.276-1.445-1.688-.436-.218-.562-.235-1.402-.235-.781 0-.991.034-1.327.185l-.412.193-.26-.252a3.676 3.676 0 0 0-.73-.487c-.395-.193-.572-.227-1.185-.227-.58 0-.798.042-1.142.194l-.42.201-.412-.252a4.192 4.192 0 0 0-.864-.386c-.563-.168-1.596-.168-2.125 0zm2.015 1.135.277.117-1.058.571-1.058.571-.512-.252c-.286-.142-.563-.26-.63-.26-.218 0-.1-.126.336-.37.823-.461 1.15-.554 1.78-.529.328.017.714.084.865.152zm-12.958.37c.277.075.898.318 1.385.545 1.512.689 1.487.689 5.04.747l3.149.05.529.286c.294.16.663.446.823.639.294.36.672 1.117.588 1.192-.025.025-.958.009-2.083-.033-2.1-.084-4.25-.017-4.745.15-.302.102-.42.345-.328.706.076.303.336.37 1.017.278.755-.101 3.451-.101 5.375.008 1.402.075 1.528.075 1.721-.067a.611.611 0 0 0 .235-.395c.026-.227.227-.353 3.234-1.965 3.191-1.714 3.208-1.722 3.796-1.747.52-.025.647 0 1.05.21.252.134.462.285.462.344 0 .05-2.512 1.823-5.585 3.93-5.291 3.637-5.627 3.855-6.383 4.116-1.831.638-2.52.605-7.39-.302-3.99-.748-4.368-.782-5.158-.437-.218.1-1.066.605-1.872 1.117-.807.512-1.487.907-1.52.882-.026-.026-.53-1.63-1.117-3.553l-1.067-3.51.445-.177c.563-.235 1.008-.537 1.806-1.251 1.125-1.008 2.15-1.562 3.401-1.84.747-.168 2.46-.125 3.192.076zm16.679.016c.226.117.403.227.395.244a481.09 481.09 0 0 1-4.317 2.326l-.26.134-.27-.512c-.15-.277-.26-.512-.243-.52.025-.018 2.41-1.294 3.217-1.723.462-.243.974-.226 1.478.05z" fill="#1F1F1F"/><path d="M3.712 28.892c-.143.101-.185.21-.185.52.009.438.118 1.009.227 1.118.185.176.512.168.74-.034l.234-.193-.092-.63c-.126-.84-.454-1.117-.924-.78zm.378 3.125c-.193.218-.185.319.227 3.157.26 1.747.411 2.545.504 2.637.15.16.58.168.756.017.193-.151.176-.445-.219-3.191-.378-2.663-.411-2.772-.89-2.772a.571.571 0 0 0-.378.152z" fill="#1F1F1F"/></svg><svg fill="none" viewBox="0 0 184 49" id="logo" xmlns="http://www.w3.org/2000/svg"><path fill-rule="evenodd" clip-rule="evenodd" d="M5.496 20.206c.047.094.363.123.363.437 0 .313-.166 1.294.105.935.272-.359 1.69-2.323 1.796-2.463.105-.14.136-.14.12-.482-.015-.344.016-1.592-.091-1.64 0 0-.135-.248-.316-.092-.182.154-.65.514-.814.888-.167.374-.258.78-.455.78-.194 0-.24.046-.24.25 0 .202-.06.296-.212.326-.15.032-.346.048-.209.218.134.172.24.281.104.392-.136.11-.195.357-.15.451zM8.206 0h.053c.227.015.438.217.577.46.274.473.545-.246.545-.246.22.193.135.439-.017.58-.153.139-.102.228.102.139a.473.473 0 0 1 .39.018c-.56.142-.256.667 0 .597.255-.07.186-.387.186-.387.34.019.393.283.307.614-.084.334.136.493.22.282.086-.211.324-.158.324-.158-.255.456.317.688.233.389-.086-.298.242-.336.242-.336-.068.14.12.35.39.298.272-.053 1.156.35 1.494.579.341.23.238-.438.238-.438-.287-1.071.22-.967.22-.967.137-.491.375-.35.375-.35-.17.37.272.193.272.193 1.02-.376 1.12-.223 1.115-.106-.004.12-.198.351.072.263.273-.086.242.154.206.213-.045.068-.17.087.085.087.254 0 .168.42-.17.44-.34.017-.152.19-.152.19.576-.157.661.019.661.019-.527.036-.644.615-.644.615.354-.28.762-.141.762-.141-.118 0-.357.28-.408.404-.05.123 0 .227.137.193s.442-.334.442-.334-.035.456-.289.685c-.253.228-.188.685-.135.772.05.088.185.122.236-.193.053-.317.426-.299.426-.299-.154.054-.12.51-.12.51.17 0 .271.175.271.175-.254-.035-.338.335-.133.37.202.034.168.438.168.438.595-.034.646.79.646.79.154 0 .154.493.154.493.39.016.288.983.288.983.442-.07.289 1.528.289 1.528.524.216 1.54 1.277 1.608 1.56.07.287-.275.357-.688.287-.412-.072-.997-.214-1.962-.606-.962-.39-.583-.034-.962 0-.379.036-.31.107-.173.497.137.393-.206.393-.55.286-.344-.107-.104.141-.035.498.07.356-.102.32-.379.498-.275.178.208.355.516.604.31.25.106.64.483.854.378.214.55.817 1.067 1.315.516.498.033.925-.173 1.138-.206.214-.034.249.483.569.515.32-.035.925-.035.925.137-.464-.171-.464-.55-.534s-.206-.035-.346.284c-.135.321-.206.748-.24 1.352-.035.605-.104.89.172 1.139.276.248.035.747.172.853.138.107.173.07.276.321.103.247 0 .142.274.213.277.07.311.176.448.532.138.357.448.357.792.464.344.106-.188 1.047.04 1.211.25.179 1.05.265 1.465.353.378.08.508-.036.603.087.089.115.024.188-.33.345-.231.102-.033.14.304.261 1.11.402 1.536.589 1.604.873.068.285-1.148-.127-1.504.014-.357.14-.516-.135-1.416-.17-.9-.037-1.236-.402-1.509-.577-.271-.176-.44.263-.679.456-.237.193-.646-.193-1.138-.369-.491-.176.033.51.492 1.089.46.58.879 1.116 1.236 1.415.33.279.702.761 1.38 1.182.68.422.238.563-.255.879-.491.314-.288.49-.05.667.237.175.068.334-.17.44-.238.104-.39.28-.678.507-.29.228-.238.089-.546-.122-.304-.21-.169.07-.12.386.054.314-.014.263-.237.263-.22 0-.27-.053-.475-.283-.203-.226-.253-.086-.305.16-.05.246-.12.123-.424.087-.306-.034-.018.159.152.616.17.456.799 1.614 1.275 2.422.475.807-.323.79-1.174.913-.848.123-.932-.159-1.51-.368-.578-.212-.441.138-.39.438.05.298-1.088.123-1.427.123-.34 0-.305.122-.34.333-.033.21-.068.58-.051 1.616.018 1.034.221 1.275.357 1.648.146.404.187 1.458.237 2.317.052.862.306 1.492.46 1.738.15.247.204.176.185.44-.016.263.205.438.187.614-.017.175.052.194.188.28.135.089.102.177.153.475.05.296.203.334.406.438.206.105.154.228.085.42-.067.196.103.178.103.564 0 .386-.578.332-1.173.315-.594-.016-.473-.016-.83-.28-.358-.263-.206-.212-.221-.528-.017-.314 0-.28-.188-.51-.187-.226.086-.26.153-.49.07-.227.018-.28-.084-.509-.102-.228-.069-.175-.069-.597 0-.42-.009-.403-.484-1.23-.477-.824-.41-1.044-.687-1.665-.286-.637-.68-1.458-.815-2.09-.137-.632-.459.298-.8 1.106-.338.808-.338 1.406-.338 1.86 0 .457.101.72.356.772.254.053.24.388.51.774.272.385.406.421.68.49.272.07.135.3.323.44.185.14.475.334.78.386.307.053.22.28.237.473.02.195-.1.212-.356.228-.255.019-.732.038-1.205.019-.477-.019-.612-.105-.73-.21-.12-.106-.85-.773-1.038-.966-.187-.193-.27.105-.459.28-.185.176-.22.159-.508-.017-.29-.176-.442-.368-.46-.58a8.02 8.02 0 0 1 .018-.877c.016-.264.135-.51.29-.685.152-.176.287-.474.388-.93.104-.457 0-3.422 0-3.949 0-.528.41-1.176.493-1.474.085-.3-.016-.14-.186-.282-.17-.14-.187-.105-.203-.35-.018-.246-.035-.212-.274-.351-.237-.14.477-.176.732-.298.255-.125-.832-.229-1.019-.352-.188-.123-.137-.405-.137-.826 0-.42-.05-.351-.322-.367-.27-.018-.357.402-.492.666-.136.264-.426.176-.714-.105-.289-.282-.05-.545-.085-.948-.034-.405-.34-.053-.509.123-.17.174-.155.299-.51.299-.357 0-.102-.248-.118-.65-.017-.404-.357.158-.357.158S.685 41.38.617 41.552c-.067.177-.222.351-.358.3-.135-.052-.068-.438-.068-.438s3.279-8.18 3.33-8.339c.05-.157.05-.227-.034-.438-.085-.211-.119-.211-.34-.228-.221-.019-.186 0-.34-.193-.152-.194-.254-.107-.544-.071-.287.036-.135-.244-.067-.63.067-.387-.322-.02-.68-.02-.357 0-.085-.28-.186-.649-.101-.368.118-.351.34-.385.22-.037.306-.142.357-.37.05-.228-.12-.193-.425-.245-.305-.053-.187-.123-.187-.421 0-.3-.085-.387-.389-.439-.306-.054-.19-.16-.052-.317.136-.156.474-.631.712-.964.24-.334.493-.983.63-1.246.136-.265.458-.212.797-.28.34-.072.29-.547.357-.634.07-.087.084-.246-.085-.44-.169-.192-.085-.245.017-.402.101-.16.068-.23-.085-.351-.153-.122-.135-.053-.17-.282-.034-.227-.05-.104-.27-.192-.222-.088-.103-.352-.103-.79 0-.44-.288-1-.68-1.421-.39-.422.545-.825.799-.949.254-.123.086-.316.135-.788.053-.476.053-.51.053-.721 0-.21.1-.245.203-.387.1-.14.152-.192.168-.543.018-.351.409-.615.648-.895.236-.282.424-.474.457-.773.035-.297.238-.28.493-.58.254-.298.39-.596.475-.877.086-.28.102-.367.272-.508.17-.141.29-.228.34-.44.05-.209.1-.333.272-.456.17-.122.526-.843.645-1.194.118-.352.56-.421.85-.438.288-.018.152-.124.22-.44.068-.315.374-.474.594-.683.22-.21.307-.248.613-.248.304 0 .203.036.305-.156.102-.194.102-.23.375-.264.27-.035.135-.265.168-.544.034-.282.102-.21.237-.298.137-.09.12-.106.085-.334-.034-.23.069-.106.239-.212.168-.104.084-.104.069-.386-.018-.281.305-.315.323-.51.015-.192-.409-.525-.647-.825-.237-.297-.594-.894-.832-1.229-.238-.333-.561.071-.594.246-.034.175.152.492.152.492-.289-.034-.475-.56-.628-.738-.154-.174-.289.09-.12.229.17.14.05.596.05.596s-.065-.21-.422-.455c-.358-.247-.425.193-.272.228.151.036.186.387.186.387-.714-.196-.73.386-.544.386.188 0 .323.227.358.368.033.14.237.37.237.37-.204.017-.493-.283-.679-.3-.187-.017-.17.21-.035.23.137.016.408.174.408.368 0 .193.186.474.186.474s-.27-.141-.457-.474c-.188-.334-.407-.035-.272.053a.65.65 0 0 1 .254.525c-.016.195.051.51.051.51s-.254-.14-.287-.527c-.035-.386-.528-.404-.409-.175.12.228-.119.544-.119.544-.016-.702-1.035-1.071-1.29-1.247-.255-.175-.052-.561-.12-.79-.067-.228.086-.528.324-.737.237-.212.254-.299.254-.791 0-.491.409-.702.663-.702.254 0 .272-.087.306-.246.033-.158.119-.28.44-.299.324-.017.392-.034.545-.174.151-.141.305-.124.559-.036.254.087.188.123.477-.053.288-.175.661 0 .916.14.256.142.714.159.543-.28-.168-.44-.372-.035-.372-.035-.29-.264.135-.37-.17-.457-.306-.087-.221.37-.221.37-.644-.335-.068-.563-.357-.668-.287-.106-.305.333-.305.333-.441-.367.187-.526-.034-.754-.223-.23-.459.368-.459.368-.356-.492.307-.525.068-.772-.24-.246-.477.175-.477.175-.185-.262.289-.683.086-.79-.205-.106-.373.474-.373.474-.374-.335.236-.772.017-.86-.221-.086-.426.334-.426.334-.204-.281-.084-.579.17-.72.256-.14.663.017.645-.385-.015-.404-.492-.14-.492-.14.182-.408.392-.571.592-.584zm5.811 3.232c-.974-1.551-.287-1.718-.287-1.718-.342.356.287 1.718.287 1.718zm.074-1.788c-.266.93.625 2.309.625 2.309-1.479-1.586-.756-2.583-.756-2.583-.08.263-.074.56-.015.854.006-.375.146-.58.146-.58zm.287 1.374c-.005-.013-.008-.026-.014-.037l.008.037-.044-.132c0-.005-.003-.008-.004-.013l-.001-.006a1.468 1.468 0 0 1-.09-.491c-.036-.995 1.034-1.028 1.034-1.028-.2.067-.36.157-.486.26.268-.112.532-.12.532-.12-1.269.369-.935 1.53-.935 1.53zm.591.935c-1.318-1.919.675-2.203.675-2.203-1.604.617-.675 2.203-.675 2.203zm.35.326c-1.287-2.08.544-2.209.544-2.209-1.48.559-.61 2.097-.544 2.209l.005.006-.005-.006zm.451-1.664c-.974.344-.388 1.61-.388 1.61-.815-1.67.388-1.61.388-1.61zm.024 2.203c-.952-1.398.253-1.741.253-1.741-.906.473-.253 1.741-.253 1.741zm.012-1.114c-.137.404.16 1.28.16 1.28-.482-.817-.16-1.28-.16-1.28zm.021.226s.31-.025.517-.356c0 0-.332.747-.517.356zm-1.712.277c-.604-.62-.304-.905-.304-.905-.025.25.14.533.396.81-.277-.406-.083-.597-.083-.597-.023.224.117.475.337.726-.167-.299-.026-.442-.026-.442-.022.212.122.45.34.685-.236-.337-.083-.494-.083-.494-.066.656 1.595 1.622 1.595 1.622-.017-.007-.033-.017-.051-.026l.051.026c-3.644-1.682-2.797-2.43-2.797-2.43-.036.316.237.678.625 1.025zm.788-.195c-.029.323.317.724.668 1.041-.641-.61-.426-.886-.426-.886-.047.585 1.142 1.445 1.142 1.445-1.804-1.108-1.384-1.6-1.384-1.6zm.52.344c-.035.508.864 1.256.864 1.256-1.126-.87-.864-1.256-.864-1.256zm1.129 1.446c-.883-.877.123-.925.123-.925-.663.332-.123.925-.123.925zm-.116-.984c-.218-.26.07-.414.07-.414-.105.095-.07.414-.07.414zm.012.497s.503.06.298.677c0 0 .01-.426-.298-.677zm1.444 2.88s.481-.105.137 1.684c0 0 .128-1.446-.137-1.683zm-.297-1.042s.469.096.206 1.007c0 0 .113-.721-.206-1.007zm-.827.782.008-.008-.008.008s.5-.71.398-1.08c-.007-.018.154.143-.031.546.123-.228.22-.483.16-.663-.007-.02.17.13.013.494.121-.219.201-.443.137-.613-.012-.031.505.345-.677 1.316zm.625-1.403a.417.417 0 0 1-.014.086l-.004.026V6.44v.004l-.001-.004v.004s-.04-.365-.596-.486c0 0 .207-.005.378.06a.835.835 0 0 0-.341-.19s.183-.008.344.072a.721.721 0 0 0-.311-.226s.586-.033.545.629v.03zm-.672 1.238.013-.022-.013.022s.266-.62.026-1.032c0 0 .132.096.153.337a.931.931 0 0 0-.144-.574s.152.092.208.322a.982.982 0 0 0-.196-.57s.723.38-.047 1.517zm.84-.51s.766 1.067-1.092 2.063l.04-.035c-.015.011-.025.023-.04.035 0 0 .579-.632.42-1.293 0 0 .193.44-.115.94.198-.28.397-.694.274-1.118 0 0 .183.343.006.783.15-.268.243-.586.135-.913 0 0 .19.313.054.733.14-.267.21-.574.095-.886 0 0 .16.233.12.575a1.03 1.03 0 0 0 .002-.718s.13.183.14.466a1.059 1.059 0 0 0-.04-.632zm-1.193 2.193-.001-.021.001.02a.435.435 0 0 1-.006-.041l.003.042a1.353 1.353 0 0 1-.034-.326.701.701 0 0 1 0-.087c-.027-.947.448-.986.448-.986-.176.11-.279.325-.338.55a.493.493 0 0 1 .362-.241.682.682 0 0 0-.334.369.471.471 0 0 1 .287-.144c-.287.116-.368.417-.388.63a1.99 1.99 0 0 0 0 .235zm.275-3.638c-.117.14-.164.332-.17.534.059-.203.18-.286.18-.286-.324.421.034 1.376.034 1.376-.687-1.221-.044-1.624-.044-1.624zm.635 4.314c0-.002.003-.002.006-.003l-.008.003.029-.01-.021.005c.06-.019.34-.183.263-1.42 0 0 .114.7-.005 1.12.095-.231.164-.634.111-1.343 0 0 .15.765.01 1.254.114-.267.194-.71.126-1.456 0 0 .42 1.772-.511 1.85zm-.005 0h.005-.005.002-.002zm.01-.005-.01.005c.005 0 .008-.003.01-.005zm-.037-.09a.861.861 0 0 1-.167-.339 1.05 1.05 0 0 0 .125.528c-.63-.723.206-1.434.206-1.434-.256.514-.089.9-.089.9a.727.727 0 0 1-.099-.319c-.029.31.066.509.066.509a.79.79 0 0 1-.135-.401c-.03.34.093.556.093.556zm-.294-.889c-.39.555.115 1.1.115 1.1-.792-.59-.116-1.1-.116-1.1zm.985.462s.173.96-.766.734c0 0 .779.071.767-.734zm-1.696-2.828a1.095 1.095 0 0 1-.065-.04l.065.04c-.011-.006-.021-.01-.03-.017a.27.27 0 0 0 .03.017c-.002-.001-.006-.003-.008-.006.005.005.008.006.008.006-3.253-1.436-2.422-2.47-2.422-2.47-.042.28.058.557.236.82-.178-.404.009-.645.009-.645-.044.303.084.606.3.887-.258-.455-.057-.73-.057-.73-.052.382.176.762.49 1.093-.43-.543-.195-.882-.195-.882-.036.269.074.535.251.782-.188-.368-.04-.589-.04-.589-.043.348.175.696.456.988-.443-.517-.239-.849-.239-.849-.093.804 1.21 1.595 1.21 1.595zm-.046-.175.002-.006c-.002.002-.002.003-.002.006v-.008c0 .003 0 .005-.002.008v-.011l-.003.01s.002-.035-.003-.094c-.033-.163-.189-.5-.894-.746 0 0 .293.05.555.176a1.997 1.997 0 0 0-.59-.35s.304.057.575.21a2.081 2.081 0 0 0-.607-.421s.22.05.46.175a2.338 2.338 0 0 0-.513-.351s1.076.264 1.07 1.079c.003.017 0 .035 0 .054.003.014 0 .031 0 .047a.429.429 0 0 1-.048.222zm-4.022-3.111c-.207-.341-.095-.62-.095-.62-.06.873 1.538 1.489 1.538 1.489a4.555 4.555 0 0 1-.242-.067c-2.613-.743-2.078-1.93-2.078-1.93a.982.982 0 0 0 .186.624c-.07-.264.014-.448.014-.448-.027.337.175.641.463.9-.27-.387-.133-.708-.133-.708-.018.281.13.538.347.76zm.79-.146c.118.184.23.415.33.699 0 0-.223-.458-.61-.876.122.185.24.43.34.754 0 0-.213-.495-.579-.898.109.17.218.409.308.74 0 0-.354-.938-.914-1.191h.011c.111 0 1.108.04 1.7 1.578 0 0-.212-.4-.586-.806zm-1.431.286c.867.646 2.067 1.167 2.067 1.167-1.003-.382-1.65-.718-2.06-1.005-1.45-.937-.854-1.464-.854-1.464-.075.219.011.456.192.695-.046-.239.1-.363.1-.363-.108.308.157.651.555.97zm2.203 1.551c-.014.002-.026.002-.038.002h.038l-.042.005.042-.001a3.487 3.487 0 0 1-.414.015c-2.046.02-1.941-1.422-1.941-1.422.075.344.244.602.458.798-.211-.325-.187-.657-.187-.657.078.365.272.625.512.81-.23-.301-.207-.635-.207-.635.173.819 1.007 1.023 1.468 1.075.188.016.31.01.31.01zm-.053-.175c-1.066.036-1.42-.666-1.42-.666.456.44 1.42.666 1.42.666zm-3.054-1.2c-.042-.336.05-.603.05-.603-.045.405.053.733.21.992-.14-.403-.016-.783-.016-.783-.057.534.153.915.405 1.174-.298-.428-.145-.945-.145-.945-.097 1.033.84 1.401.84 1.401a3.091 3.091 0 0 1-.34-.106c-.01-.004-.017-.01-.026-.01a2.435 2.435 0 0 1-.092-.039c-1.45-.62-.997-1.983-.997-1.983-.039.35.01.648.111.903zm-.061.482s-.306-.49-.645-.245c0 0 .321-.508.645.245zm-1.73-2.487s-.203-1.47-.98-1.26c0 0 .879-.646.98 1.26zm-.796-.489c.442-.018.187-.578.187-.578.68.788-.187.578-.187.578zm.848-.106s.541-.472.525-.577c0 0 .135.228-.524.577zm.492 1.315c-1.018-.91.119-1.315.119-1.315-.78.666-.12 1.315-.12 1.315zm.067-.928c-.22.541.271 1.242.271 1.242-.83-.945-.27-1.242-.27-1.242zm.713-.088s.439.227-.34 1.33c0 0 .459-.91.34-1.33zm-.577.28c.186.245.422.035.422.035-.287.875-.422-.036-.422-.036zm.728 1.68c-.56-.525-.05-1.102-.05-1.102-.071.154-.09.319-.087.475a.886.886 0 0 1 .108-.247c-.139.387.03.874.03.874s0-.003-.003-.004a.03.03 0 0 1 .002.004zM8.856 1.823s-.31-.578-.595-.602c0 0 .458-.103.595.602zm1.042.256c-.187.704-.311-.09-.311-.09.087.295.311.09.311.09zm-1.19 2.42s.333-.628 1.748.422c0 0-1.216-.755-1.747-.422zm2.707.434c-1.038.049-.997-.832-.997-.832a.968.968 0 0 0 .349.542c-.135-.204-.126-.439-.126-.439.126.518.548.655.828.69.155.015.263.002.263.002l-.05.008c.03 0 .05-.003.05-.003a1.649 1.649 0 0 1-.317.032zm-.674.041s-.397-.385-.62-.385c0 0 .198-.243.62.385zM8.483 4.87s.387-.741 1.824.078c0 0-1.128-.602-1.824-.078zm-.505.811a.677.677 0 0 0-.013.036s.004-.015.013-.036c.57-1.477 2.142-.733 2.142-.733-1.567-.38-2.058.539-2.142.733zm1.003.765c-.919-1.307.706-1.449.706-1.449-1.351.333-.706 1.449-.706 1.449zm-.074-.468zm.57-.288c-.536-.094-.57.233-.57.288-.02-.603.57-.288.57-.288zm-.994.86s-.123-.476-.853-.488c0 0 .841-.18.853.488zm.832-1.59c-1.177.384-1.029 1.063-1.029 1.063-.41-.806 1.029-1.063 1.029-1.063zm-.634.423c-.172.154-.084.486-.084.486-.299-.19.084-.486.084-.486zm-.022-.82s-.62-.282-1.005.014c0 0 .359-.513 1.005-.014zm-1.005.077s-.644 0-.818.447c0 0 .063-.652.818-.447zm.869.026s-1.477.153-1.624.793c0 0-.198-.807 1.624-.793zM7.908 5.92l.007.001-.007-.001c-.754-.259.39-.998.39-.998-.867.766-.45.974-.39.998zm-.391-.1c-.383.884.299 1.025.299 1.025-.893-.037-.3-1.026-.3-1.026zm.05.282c-.074.218.136.55.136.55-.407-.244-.135-.55-.135-.55zm.187 1.692s-.225-.372-.956-.168c0 0 .806-.46.956.168zm-.4-.939h.044a.246.246 0 0 1 .045.002h-.007c-.41.078-.313.55-.313.55-.066-.258-.02-.396.057-.47-.314.173-.215.534-.215.534-.087-.252-.043-.402.045-.491-.344.197-.227.543-.227.543-.077-.178-.077-.308-.034-.405-.227.232-.124.52-.124.52-.33-.725.458-.784.73-.783zM6.765 5.22c-.583.156-.102 1.625-.102 1.625-.302-.876-.28-1.285-.176-1.474-.367.429.125 1.551.125 1.551-.376-.822-.393-1.25-.289-1.473a.674.674 0 0 0-.096.148c-.217.56.315 1.529.315 1.529a4.476 4.476 0 0 1-.402-.867c.056.642.388 1.341.388 1.341-.678-1.364-.58-1.954-.33-2.206a.572.572 0 0 1 .313-.164c.002-.002.005-.002.006-.002a.248.248 0 0 1 .032-.005c.009-.003.018-.003.025-.004h.011a.81.81 0 0 1 .106-.008h.041c.033 0 .054.005.054.005h-.004l.004.002-.02.002zM6.75 6.844s.322-.576-.1-1.371c0 0 .608.563.1 1.37zm-1.13.767c-.678-.614.337-1.165.337-1.165-.815.67-.367 1.136-.337 1.165l.003.001H5.62zm.448.335c-.979-.77-.088-1.385-.088-1.385-.656.745.088 1.385.088 1.385zm.508.41c-1.19-.987-.558-1.691-.558-1.691-.272.96.558 1.69.558 1.69zm.484-.039c-1.19-.448-.98-1.55-.98-1.55 0 1.026.98 1.55.98 1.55zm.607.167c-.013-.155-.36-.372-.36-.372.472.103.36.372.36.372zM6.701 7.6c-.012.321.52.539.52.539-.693-.039-.52-.539-.52-.539zm-1.014.406c-.102-.152-.046-.33-.046-.33.018.45.613.54.613.54-1.103 0-.867-.693-.867-.693.009.223.14.377.3.483zm.306.287c.906.204.731.768.731.768-.011-.436-.731-.768-.731-.768zm.595.14s.533-.205.694.283c0 0-.272-.321-.694-.282zm.604-.46s-.36-.303.1-.255c0 0-.214.112-.1.254zm.13.854c-.035.15.115.518.115.518-.257-.333-.116-.518-.116-.518zM9.644 3.55c.43-.498.773.134.773.134-.386-.427-.773-.134-.773-.134zm-.162.347s-.647-.435.454-.614c0 0-.784.189-.454.614zm.661-.614s-.353-.391-1.06-.009c0 0 .621-.604 1.06.009zm-.68-.311s-.731.214-.604.605c0 0-.377-.4.604-.605zm-.696-.168s.48-.463 1.049.125c0 0-.483-.366-1.05-.125zm-.38.408s-.3-.446.611-.604c0 0-.627.196-.61.604zM9.49 2.6S9 2.163 8.338 2.404c0 0 .68-.516 1.152.196zm-1.513-.019s.008-.747.868-.427c0 0-.68-.028-.868.427zm.043-.737s.447-.56.998.257c0 0-.448-.605-.998-.257zm.155.097s.327-.222.619.108c0 0-.353-.196-.62-.108zm1.091.605s-.472-.117-.714.054c0 0 .113-.338.714-.054zm.388.383s-.396-.163-.714.061c0 0 .233-.374.714-.061zm-1.24-1.335s-.851.197-.747.668c0 0-.345-.517.747-.668zm.148-.037.008.012-.008-.012c-.046-.058-.308-.346-.921-.106 0 0 .56-.435.921.106zm-1.282.188s-.096-.756.765-.542c0 0-.611-.071-.765.542zM8.407 4.77c-1.579.4-1.446 1.06-1.42 1.151-.335-.915 1.42-1.151 1.42-1.151zm-1.42 1.15.004.013-.003-.013zm1.102-.958c-1.282.615-.942 1.149-.846 1.265-.696-.746.846-1.265.846-1.265zm-.846 1.265.023.024s-.009-.007-.023-.024zm.526-.964c-.503.467-.467.916-.467.916-.259-.467.467-.916.467-.916zm-.945 1.612s.496-.202.192-.807c0 0 .534.613-.192.807zm-.114-.167s.042-.575-.125-1.087c0 0 .353.458.125 1.087zm1.007-.246s-.248-.383.204-.227c0 0-.239 0-.204.227zm8.672 27.79s.6-.137.76.679c0 0-.282-.636-.76-.68zm-.04.046s-.48-.443-.9-.227c0 0 .47-.444.9.227zm.633.615s-1.2-.898-1.723-.521c0 0 .37-.739 1.723.52zm-1.266.515.005.007-.005-.007zm.933-.475c-1.139-.026-.962.415-.933.475-.397-.712.933-.475.933-.475zm-1.622-.155c.34-.914 1.801.115 1.801.115-1.435-.787-1.762-.202-1.8-.115 0 .004-.004.006-.005.009l.005-.01zm-.006.404c.002.012 0 .022.002.033 0 0-.002-.011-.002-.033zm1.446-.364c-1.354-.424-1.443.21-1.446.364-.039-1.035 1.446-.364 1.446-.364zm-.433.006c-.676.002-.938.361-.938.361.109-.525.938-.36.938-.36zm-3.271.011s.596-.135.755.681c0 0-.282-.637-.755-.68zm-.941-.18s.466-.444.898.228c0 0-.48-.442-.898-.228zm-.193.322s.37-.74 1.721.522c0 0-1.198-.9-1.721-.522zm.458 1.035c.001.002.003.003.003.006 0 0 0-.003-.003-.006zm.932-.476c-1.138-.023-.96.417-.932.476-.397-.71.932-.476.932-.476zm-1.62-.154a.015.015 0 0 0-.004.011s0-.004.005-.01c.336-.914 1.798.116 1.798.116-1.436-.788-1.76-.203-1.798-.117zm-.007.405c0 .011 0 .023.002.032 0 0-.002-.011-.002-.032zm1.444-.364c-1.35-.423-1.441.21-1.444.364-.04-1.034 1.444-.364 1.444-.364zm-.43.006c-.677.002-.939.36-.939.36.108-.524.94-.36.94-.36zm-3.255-1.765s.61.045.54.873c0 0-.095-.692-.54-.873zm-.853-.45s.57-.29.799.483c0 0-.34-.567-.799-.483zm-.273.251s.559-.6 1.508 1.007c0 0-.902-1.214-1.508-1.007zm.156 1.129c-.186-.8 1.024-.182 1.024-.182-1.089-.361-1.036.117-1.024.182 0 .002.002.003.002.007 0 0 0-.004-.002-.007zm-.487-.807-.008.008.008-.008zm1.693.64c-1.16-1.177-1.631-.71-1.693-.64.576-.777 1.693.64 1.693.64zm-1.812-.253-.007.031s.001-.011.007-.031zm1.487.075c-1.181-.804-1.442-.221-1.487-.075.247-1.005 1.487.075 1.487.075zm-1.415-.05c.249-.473.999-.072.999-.072-.65-.197-.999.071-.999.071zm-.103-1.76s.612.044.54.874c0 0-.095-.692-.54-.874zm-.851-.449s.57-.29.8.483c0 0-.339-.567-.8-.483zm-.273.25s.558-.6 1.509 1.008c0 0-.904-1.214-1.51-1.008zm.154 1.13s0 .003.002.005c0 0-.002-.002-.002-.006-.184-.8 1.026-.183 1.026-.183-1.089-.359-1.036.12-1.026.183zm-.486-.808c.575-.777 1.695.64 1.695.64-1.162-1.177-1.634-.712-1.695-.64 0 .003-.004.005-.008.009l.008-.009zm1.369.462c-1.182-.805-1.442-.221-1.485-.074.245-1.006 1.485.074 1.485.074zm-1.485-.074-.01.029.01-.03zm1.068-.049c-.649-.196-1 .072-1 .072.25-.471 1-.072 1-.072zm-2.651-.658s-.095-.694-.54-.876c0 0 .61.044.54.876zm-1.393-1.324s.57-.29.8.482c0 0-.34-.566-.8-.482zm-.271.25s.557-.599 1.509 1.009c0 0-.905-1.215-1.51-1.009zm1.18.948c-1.09-.362-1.04.117-1.027.182-.185-.8 1.027-.182 1.027-.182zm-1.027.182.001.006-.001-.006zm-.486-.808-.007.009s.002-.005.007-.01zm1.695.64c-1.161-1.177-1.633-.713-1.695-.64.576-.776 1.695.64 1.695.64zm-1.813-.253-.008.03.008-.03zm1.486.074c-1.181-.802-1.441-.22-1.486-.074.248-1.004 1.486.074 1.486.074zm-.416-.121c-.65-.197-.998.07-.998.07.248-.47.998-.07.998-.07zm8.21 1.843c.417-.712.934-.377.934-.377-.462-.123-.934.377-.934.377zm1.879-.22c-.325-.347-.92-.095-.92-.095.625-.486.92.095.92.095zm.078.369c-.371-.536-1.794-.106-1.794-.106 1.684-.718 1.794.105 1.794.105zm-.77.817c.049-.046.358-.4-.724-.772 0 0 1.33.24.725.772l-.006.004c.003-.001.004-.003.005-.004zm.854-.356.001.013-.001-.013zm-1.732-.515s1.71-.462 1.732.515c-.009-.093-.125-.758-1.732-.515zm1.606.9a.247.247 0 0 1-.012.03l.012-.03zm-1.241-.845s1.615-.117 1.24.845c.047-.145.17-.773-1.24-.845zm.404.157s.834.132.765.663c0 0-.13-.428-.765-.663zM5.44 31.654c-.055-.44-.565-.705-.565-.705.642.155.565.705.565.705zm-.034.039c.544.405.22.832.22.832.148-.384-.22-.832-.22-.832zm-.51-.589c1.047 1.26.49 1.596.49 1.596.268-.479-.49-1.596-.49-1.596zm-.014.307s.247 1.23-.325.856c.048.028.4.196.325-.856zm-.325.856-.005-.002.005.002zm.347-1.022s.873 1.36.176 1.664c.063-.032.508-.326-.176-1.664zm.176 1.664-.006.003a.012.012 0 0 0 .006-.003zm-.315.002c.12-.001.609-.079.217-1.332 0 0 .592 1.378-.217 1.332zm-.026-.001h.026-.026zm.022-.067s.266-.24.236-.864c0 0 .167.767-.236.864zM1.94 27.796c.61.26.446.79.446.79.014-.442-.446-.79-.446-.79zm.488 1.68c.207-.353-.083-.858-.083-.858.472.492.083.859.083.859zm-.265.133c.341-.428-.226-1.658-.226-1.658.83 1.42.226 1.658.226 1.658zm-.746-.566c.041.032.36.259.457-.793 0 0 .049 1.257-.457.793a.042.042 0 0 1-.006-.005c.002 0 .003.002.006.005zm.412.72c.07-.023.552-.24.094-1.671 0 0 .64 1.488-.094 1.671a.065.065 0 0 1-.007.002l.007-.002zm.115-1.328s.365 1.458-.424 1.277c.117.019.611.025.424-1.277zm-.424 1.277-.026-.005a.08.08 0 0 1 .026.005zm.005-.07s.301-.188.37-.81c0 0 .044.785-.37.81zm.778-.048c.604.211.431.663.431.663.021-.377-.431-.663-.431-.663zm.457 1.418c.213-.305-.068-.727-.068-.727.462.409.068.727.068.727zm-.463-1.284c.802 1.188.196 1.4.196 1.4.35-.369-.196-1.4-.196-1.4zm-.538.935-.006-.005c.002.002.002.003.006.005.04.028.356.216.472-.681 0 0 .022 1.063-.472.68zm.52-.817s.614 1.252-.122 1.42c.067-.02.556-.209.121-1.42zm-.122 1.42-.008.001.008-.001zm.138-1.128s.337 1.229-.448 1.09c.118.014.612.01.448-1.09zm-.448 1.09-.024-.003.024.003zm.007-.058s.304-.165.385-.697c0 0 .028.667-.385.697zm10.122 3.021s-.686-.143-1.061.153c0 0 .326-.467 1.06-.153zm-1.056.206s-.682.092-.82.48c0 0 0-.539.82-.48zm.92-.104s-1.545.335-1.635.88c0 0-.293-.63 1.636-.88zm-.208.241c-.84.746-.378.856-.312.867-.825-.104.312-.867.312-.867zm-.312.867.007.001-.007-.001zm.41-1.007c-1.63.55-1.421 1.069-1.383 1.139-.449-.695 1.382-1.139 1.382-1.139zm-1.383 1.139a.026.026 0 0 0 .005.009l-.005-.01zm1.067-.936c-1.296.681-.878 1.069-.764 1.15-.813-.51.764-1.15.764-1.15zm-.764 1.15c.008.007.015.01.024.016l-.024-.016zm.457-.86c-.485.451-.401.812-.401.812-.32-.343.4-.812.4-.812zm3.509-1.187s.404-.351.997.12c0 0-.588-.299-.997-.12zm-.007.05s-.64-.084-.854.24c0 0 .124-.498.854-.24zm-.829.537s-.118-.652 1.687-.404c0 0-1.478-.073-1.687.404zm.958.488c-.723-.3.484-.723.484-.723-.934.482-.541.698-.484.723l.006.003-.006-.003zm-.911-.12c-.246-.752 1.517-.706 1.517-.706-1.606.103-1.535.635-1.517.706l.001.011-.001-.01zm.224.274.02.022s-.01-.008-.02-.022zm.957-.873c-1.328.31-1.041.77-.957.873-.62-.67.957-.873.957-.873zm-.897.841c-.207-.394.553-.648.553-.648-.544.296-.553.648-.553.648zm-9.414-2.912s.062-.67-.228-1.01c0 0 .436.28.228 1.01zm-1.011-1.628s.52-.331.91 1.508c0 0-.43-1.462-.91-1.508zm-.302.165c.565-.487 1.113 1.244 1.113 1.244-.624-1.527-1.055-1.286-1.113-1.244l-.008.006.008-.006zm-.16.308c-.003.008-.008.016-.01.026 0 0 .002-.01.01-.026zm1.07.645c-.709-1.193-1.009-.761-1.07-.645.37-.823 1.07.645 1.07.645zm4.808 4.334s-.453.283-.967-.278c0 0 .537.389.967.278zm.015-.048s.618.185.88-.105c0 0-.198.476-.88.105zm-.83-.267s1.45.306 1.727-.134c0 0 .021.665-1.727.134zm.852-.767-.004-.005.004.005c.672.41-.582.638-.582.638.991-.327.635-.603.582-.638zm-.718.72c1.6.152 1.61-.383 1.603-.46.131.785-1.603.46-1.603.46zm1.603-.46-.001-.009.002.01zm-.18-.302c-.006-.01-.012-.016-.016-.025 0 0 .004.009.016.025zm-1.077.708c1.36-.094 1.145-.593 1.077-.708.51.76-1.077.708-1.077.708zm.37-.135c.581-.206.641-.554.641-.554.15.425-.642.554-.642.554zM8.012.157s.458-.438.882.641c0 0-.344-.82-.882-.641zm1.181.866c-.264.153-.287.51-.287.51-.114-.51.287-.51.287-.51zm6.35 4.782c-.018-.006-.036-.013-.054-.017 0 0 .021.004.054.017zm.017.005zm.55.596s-.24-.475-.55-.596c.15.052.504.215.55.596zM9.401 5.8c-.402.072-.378.475-.378.475C8.85 5.682 9.4 5.8 9.4 5.8zm8.824 3.684s1.833 1.3 1.43 1.63c0 0 .17-.22-1.43-1.63zm-.917.88s1.94.86 2.026.463c0 0 .384.728-2.026-.463zm1.71.33s.324.515-1.71-.33c0 0 1.638.61 1.71.33zm-.233-.105s.281.351-1.477-.225c0 0 1.416.416 1.477.225zm-1.026-.298c.349-.125.447-.61.447-.61.468.37-.133.546-.447.61a.52.52 0 0 1-.173.03s.07-.009.173-.03zm-1.622-1.778s.576-1.388-.555-2.073c0 0 1.385.42.555 2.073zm-.848-.577c-.402-.723-1.133-1.779-2.139-2.157 0 0 1.748.317 2.495 2.888 0 0-.015-.04-.048-.113l.049.113s-1.285-2.376-3.54-2.997c0 0 2.009.267 3.183 2.266zm-5.1-2.113s-.023-.97 2.62.331c0 0-2.175-.948-2.62-.331zm5.957 4.729s.804-.331-.22-1.147c.178.146.884.783.175 1.059 0 0 .297-.14.237-.46.003.121-.064.234-.267.312 0 0 .566-.262-.15-.91.132.122.605.608.115.821 0 0 .472-.244-.147-.853 0 0 1.238.838.257 1.178zm-.597-.28s.625-.147.412-.676c0 0 .412.574-.412.676zm-.029-.985c.14 0 .221-.039.266-.092-.157-.232-.479-.108-.479-.108.242-.16.393-.018.452.062-.207-.301-.58-.126-.58-.126.334-.267.528.014.59.13-.235-.492-.676-.219-.676-.219.451-.48.677.205.695.26.086-.101.045-.244.045-.244.214.484-.313.337-.313.337zm.071 1.102c-.412.823.214.943.214.943-.84-.045-.214-.943-.214-.943zm.07 0c-.279.708.144.807.144.807-.567-.036-.145-.807-.145-.807zm.144.705c-.35-.033-.09-.705-.09-.705-.17.618.09.705.09.705zm.084.25s.248-.195-.17-.644c0 0 .541.469.17.645zm0-.644c-.327-.236.1-.456.1-.456l.047-.017c-.337.207-.147.473-.147.473zm-.738 1.536c-.01.004-.016.004-.016.004.006 0 .01-.003.016-.004.061-.024.297-.157.1-.774 0 0 .402.648-.1.774zm-.584.019s.656.03.612-.66c0 0 .27.734-.612.66zm.498-.88s.158.865-.47.72c0 0 .47 0 .47-.72zm.227-.088c-.298-.207-.51.088-.51.088.311-.486.51-.088.51-.088zm-.341.088s.1.44-.284.543c0 0 .27-.264.284-.543zm.398-2.72c-.244-.326-.753-.088-.753-.088.416-.24.636-.063.716.034-.312-.425-.887-.084-.887-.084.503-.368.77-.107.875.047-.372-.622-1.047-.115-1.047-.115.799-.736 1.096.206 1.096.206zM9.854 5.158c-.333.69 1.412 2.676 1.412 2.676-2.235-2.433-1.412-2.676-1.412-2.676zm5.023 2.927c-.691-.797-1.254.12-1.254.12.563-1.106 1.254-.12 1.254-.12zm-1.094.12c.491-.882 1.094-.094 1.094-.094-.603-.636-1.094.093-1.094.093zm.186 0c.408-.63.908-.068.908-.068-.5-.454-.908.067-.908.067zm.137 0c.346-.43.771-.047.771-.047-.425-.309-.771.046-.771.046zm.149.07s-.552.5-.944-.2c0 0 .346.534.944.201zm.034.251c.149.381.794.226.794.226-.806.261-.794-.226-.794-.226zm-.08-.131s-.38.869-1.104 0c0 0 .7.69 1.105 0zm-1-.464c.16.7.7.63.7.63-.643.204-.7-.63-.7-.63zm.953-.346c-.283-.296-.78-.086-.78-.086.327-.155.536-.102.655-.029-.353-.247-.84-.008-.84-.008.54-.3.82-.065.921.06-.397-.555-1.037-.125-1.037-.125.783-.596 1.08.188 1.08.188zM14 7.575s-.552.617-.908.01c0 0 .391.442.908-.01zm-1.241-.46c.377-.158.575-.085.66-.027-.321-.248-.857.015-.857.015.276-.146.477-.169.619-.146-.377-.1-.823.135-.823.135.521-.297.824-.21.98-.1-.455-.374-1.143.083-1.143.083.966-.69 1.277.059 1.277.059-.001-.001-.003-.001-.003-.003a.042.042 0 0 0 .003.005c-.245-.205-.713-.02-.713-.02zm.057.518.01.05s-.006-.02-.01-.05zm.097.097c-.046-.243-.022-.394.03-.485-.156.122-.144.301-.127.388-.128-.465.183-.528.378-.525a.579.579 0 0 1 .139.014l-.007.001.007.002c-.454.045-.442.454-.42.606.003.02.005.036.01.056 0 0-.007-.022-.01-.056zm-1.39-.234s-.009-.054-.004-.132c0 .042 0 .086.005.132zm.188-.164c0 .04 0 .082.005.13 0 0-.01-.053-.005-.13zm.76-.555c-.011 0-.026-.003-.038-.005-.02-.003-.038-.001-.057-.003a.94.94 0 0 0-.066.002c-.366.026-.421.346-.42.53-.008-.238.04-.383.117-.467-.242.112-.291.349-.296.498-.003-.24.062-.389.158-.479a.583.583 0 0 0-.35.51c.01-.529.383-.636.687-.634h.024a.664.664 0 0 1 .245.024c.07.013.117.028.117.028-.013-.003-.024-.003-.037-.004.024.01.039.013.039.013-.008 0-.015 0-.021-.003l.022.01a.908.908 0 0 0-.123-.02zm-.58.524c0 .04.004.082.009.127 0 0-.01-.053-.01-.127zm-.318-.44c-.54.214-.367.808-.367.808-.3-.69.367-.808.367-.808zm.637.855.043.05-.043-.05zm.09-.868c-.438.347-.198.734-.09.868-.541-.607.09-.868.09-.868zm-.566 1.322c-.851-.56-.298-1.107-.298-1.107-.39.547.298 1.107.298 1.107zm.487-.06c-.818.088-.612-.868-.612-.868-.022.857.542.87.612.867zm.365-.214c-.875.308-.783-.547-.783-.547.034.76.783.547.783.547zm-.012-.109c-.633-.263-.264-.688-.264-.688-.23.404.264.688.264.688zm-.069-.665c-.287.357.346.68.346.68-.794-.286-.346-.68-.346-.68zm.23.488c-.425-.322-.033-.451-.033-.451-.242.177.033.45.033.45zm-.666.618s.724.12.976-.498c0 0-.138.688-.976.498zm-.207-.036c.849.548 1.242-.296 1.242-.296-.402.987-1.242.296-1.242.296zm1.013.251s-.53.487-1.084-.167c0 0 .543.499 1.084.167zm-.022.63s.689.427.95-.225c0 0-.228.795-.95.225zm.789-.142c-.503.474-.86-.212-.86-.212.402.543.86.212.86.212zm-.067-.083c-.714.324-.552-.558-.552-.558-.021.773.552.558.552.558zm-.918.82s.471.343.712-.311c0 0-.196.808-.712.311zm-.125-.417c.39.535.699.214.699.214-.367.499-.699-.214-.699-.214zm.138-.415c-.013.593.48.57.48.57-.571.18-.48-.57-.48-.57zm-.138.664s-.356-.143.01-.83c0 0-.216.511-.01.83zm-1.26-1.34s-.437.226-.3.748c0 0-.334-.475.3-.748zm.1 1.021c-.608-.25-.24-.795-.24-.795-.183.545.24.795.24.795zm.231-.997a.589.589 0 0 0-.383.683c-.18-.647.383-.683.383-.683zm-.383.683.002.017-.002-.017zm1.127-.173s-.505.333-.86-.321c0 0 .345.475.86.321zm-.149.154c-.595.416-.814-.355-.814-.355.31.627.814.355.814.355zm-.045.155s-.346.438-.85-.025c0 0 .518.344.85.025zm-.493 1.198s.758.295.94-.474c0 0-.149.9-.94.474zm.758.046s.412-.011.423-.378c0 0 .068.474-.423.378zm-.564-.662s.156.894-.86.575c.137.035.84.184.86-.575zm-.86.575a.412.412 0 0 1-.022-.008c.007.004.015.005.022.008zm.803-.03s.55-.011.688-.582c0 0 .013.675-.688.581zm.091-.144s.564-.26.38-.888c0 0 .344.652-.38.888zm.047-.2s.286-.274.115-.605c0 0 .297.344-.115.605zm-.713.308s.62-.108.483-.82c0 0 .287.737-.482.82zm-.067-.083s.54-.379.3-.819c0 0 .399.426-.3.819zm-.183.024s.447-.464.275-.83c0 0 .32.366-.275.83zm-.208-1.022c-.242.143-.02.714-.02.714-.336-.75.02-.714.02-.714zm-.127 1.318c.08-.087.616-.726.106-1.08 0 0 .692.212-.106 1.08a.2.2 0 0 1-.01.012l.01-.012zm.529-.89s-.057-.308-.343-.32c0 0 .39-.108.343.32zm-.653.107c-.413.45.182.936.182.936-.803-.57-.182-.936-.182-.936zm.09.13c-.112.131-.022.523-.022.523-.25-.345.022-.522.022-.522zm.035.333s.253-.32.114-.57c0 0 .311.227-.114.57zm1.457.38s.172.854-1.055.544c0 0 1.022.19 1.055-.545zm-.194-.012s.16.472-.735.46c0 0 .71-.081.735-.46zm-.253-.109s.184.287-.436.476c0 0 .482-.25.436-.476zm-.688.025c-.677.64-.125 1.245-.125 1.245-.69-.689.125-1.245.125-1.245zm-.07 1.114c-.584-.699.437-1.066.437-1.066-.86.415-.436 1.066-.436 1.066zm.322-.877s-.377.367-.24.64c0 0-.287-.25.24-.64zm-.92-.309s.68.652-.457 1.08c0 0 .896-.428.457-1.08zm-.514 1.022s.552-.429.425-.927c0 0 .355.392-.425.927zm-.012-.167c.367-.415.196-.652.196-.652.31.2-.196.652-.196.652zm-.045.355c-.346-.463.126-.96.126-.96-.344.545-.126.96-.126.96zm1.181.368s.86.107.986-.783c0 0-.056 1.08-.986.783zm.868-.732c-.18.681-.88.578-.88.578.684-.086.853-.499.88-.578l.004-.015-.004.015zm-.362.009s.195.355-.506.415c0 0 .528-.132.506-.415zm-.206-.047s.17.214-.253.307c0 0 .287-.118.253-.307zm-1.607.426s.377.45 1.216.154c0 0-.827.438-1.216-.154zm.218-.07c.299.296.894.14.894.14-.699.284-.894-.14-.894-.14zm.138 0s.562.129.505-.346c0 0 .182.594-.505.345zm-1.33-.19c.332-.498.905-.369.905-.369-.561.012-.906.368-.906.368zm.009.07s.392-.355.814-.285c0 0-.64.142-.814.286zm-.251.201s.677-.45 1.103-.223c0 0-.553-.073-1.103.223zm3.463.072s.495.722-.218 1.006c0 0 .586-.306.218-1.006zm-.068.143s.3.663-.458.793c0 0 .56-.225.458-.793zm-.894.534s.642.14.836-.428c0 0-.102.71-.836.428zm.63-.297c-.483.462-.883-.131-.883-.131.47.462.883.13.883.13zm-.056.651a.853.853 0 0 1-.954-.77c.173.71.954.77.954.77zm.526-.225s.623.208.289.758c.05-.096.196-.463-.289-.758zm.289.758-.013.024.013-.024zm-.322-.663s.504.26.16.652c0 0 .252-.343-.16-.652zm-.07.07c.425.226.093.475.093.475.206-.261-.093-.475-.093-.475zm-1.925-.642c.076 1.452 1.726 1.63 1.726 1.63-1.775 0-1.726-1.63-1.726-1.63zm.322 0c.048.764 1.355 1.35 1.355 1.35-1.48-.408-1.355-1.35-1.355-1.35zm1.568.714s.334.438-.402.427c0 0 .564-.072.402-.427zm-.905.07s.526.298.813-.022c0 0-.275.522-.813.022zm1.365.546s.32.818-.642.831c0 0 .815-.072.642-.831zm-.069.072s.023.854-.758.473c0 0 .723.263.758-.473zm-.195-.143s.218.628-.528.545c0 0 .655-.011.528-.545zm-.172-.094s.229.308-.092.427c0 0 .173-.225.092-.427zm-.299.817a.6.6 0 0 0 .047.889c-.608-.415-.014-.928-.047-.89zm-.092.308s.08.557.62.545c0 0-.62.142-.62-.545zm.7.214c-.205.486-.551-.012-.551-.012.334.355.552.012.552.012zm-.596-.12s.47.192.55-.2c0 0-.045.533-.55.2zm.356-.094c-.356.178-.401-.152-.401-.152.114.212.401.152.401.152zm.042.638c.063-.018.488-.174.37-.9 0 0 .262.764-.37.9l-.007.002s.006 0 .007-.002zm-.353.418s.426 0 .597-.391c0 0-.137.51-.597.39zm-.229-.143s.447.06.632-.165c.023-.027-.195.355-.632.165zm.818-.61s.106-.33.05-.486c0 0 .11.271-.05.486zm-.397.493c-.47.188-.5-.342-.5-.342.08.448.5.342.5.342zm-.543-.076c.013.48.46.554.46.554-.539-.043-.46-.554-.46-.554zm3.384-1.63.05-.319s-.014.113-.05.318c-1.431 9.036-7.845 12.318-7.845 12.318 6.103-3.983 7.581-10.775 7.845-12.318zm.19.473c.033-.198.067-.396.098-.601 0 0-.025.218-.098.601-1.512 8.721-7.694 11.86-7.694 11.86 5.756-3.73 7.33-9.92 7.694-11.86zm.08.761c.041-.214.078-.431.111-.654 0 0-.028.24-.11.654-1.517 8.164-7.58 11.238-7.58 11.238 5.597-3.47 7.191-9.294 7.58-11.238zm.154.226c-1.386 8.164-7.57 11.16-7.57 11.16 5.871-3.593 7.308-9.73 7.57-11.16l.05-.303s-.014.108-.05.303zm.02.682.056-.33s-.017.119-.057.33c-1.407 7.883-7.589 10.731-7.589 10.731 5.86-3.445 7.313-9.286 7.59-10.73zM7.562 26.328c6.038-3.473 7.467-9.409 7.708-10.654-1.388 7.835-7.708 10.654-7.708 10.654zm7.708-10.654.039-.234s-.012.084-.039.234zm.22.187c.013-.074.028-.149.04-.225 0 0-.012.081-.04.225zM7.474 26.606c6.278-3.486 7.77-9.506 8.015-10.745-1.435 7.842-8.015 10.745-8.015 10.745zm8.275-10.657.044-.23s-.014.08-.044.23zM7.475 26.802c6.484-3.526 8.021-9.6 8.275-10.853-1.483 7.937-8.275 10.853-8.275 10.853zm-.07.211c6.647-3.498 8.258-9.467 8.545-10.822-1.558 7.938-8.544 10.822-8.544 10.822zm8.545-10.822c.02-.093.036-.187.053-.281 0 0-.014.1-.053.281zM7.406 27.204c6.728-3.448 8.36-9.326 8.651-10.662-1.578 7.82-8.651 10.662-8.651 10.662zm8.651-10.662.054-.276s-.016.098-.054.276zm.184.27c.019-.09.037-.182.054-.274 0 0-.016.097-.054.274zM7.457 27.37c6.832-3.413 8.488-9.233 8.784-10.557C14.64 24.556 7.457 27.37 7.457 27.37zm8.267-13.53s-.05-.786-.614-1.045c0 0 .81.259.614 1.045zm-.487-.84-.026-.022.026.022zm-.026-.022zm.363 1.202s-.073-.892-.337-1.18c.147.142.508.561.337 1.18zm-.382.565s.297-.873-.066-1.66c0 0 .512.872.066 1.66zm-.68-2.86c-.214.703.432.959.432.959-.728-.05-.432-.959-.432-.959zm.316.447c-.1.223.264.342.264.342-.547-.086-.264-.342-.264-.342zm.646 1.985c-.299.925.199 1.266.199 1.266-.68-.325-.199-1.266-.199-1.266zm.215-.137c-.25.719.017.992.017.992-.448-.189-.017-.992-.017-.992zm.034 1.095s.38-.24.05-.821c0 0 .528.547-.05.821zm.064.12s.714-.206.598.667c0 0 0-.702-.598-.667zm.018.138s.63.068.397.856c0 0 .067-.652-.397-.856zm.612.668c-.133.734.547.873.547.873-.878-.036-.547-.873-.547-.873zm1.16 1.18s-.1-.496-.844-.668c0 0 .927.103.844.668zm-1.49-2.294c.197-.959-.118-1.215-.118-1.215.497.24.117 1.215.117 1.215zm.197.206s.217-.77.083-1.062c0 0 .281.29-.082 1.062zm.218.389s.2-.96.101-1.113c0 0 .283.239-.1 1.113zm.124.855s.97-.87.425-1.35c0 0 .77.386-.425 1.35zm-.106-.131s.575-.84.32-1.42c0 0 .435.64-.32 1.42zm-.61-1.94s.04-.426-.075-.614c0 0 .24.316.075.614zm-5.33 7.41c-3.13-1.405-2.733-2.098-2.733-2.098.12.818 2.734 2.097 2.734 2.097zm-.032.249c-3.134-1.405-2.736-2.098-2.736-2.098.119.819 2.736 2.098 2.736 2.098zm-.19.159c-2.976-1.344-2.599-2.009-2.599-2.009.114.783 2.6 2.009 2.6 2.009zm-.258.144c-2.702-1.252-2.36-1.868-2.36-1.868.105.728 2.36 1.868 2.36 1.868zm-.173.23c-2.524-1.238-2.206-1.85-2.206-1.85.098.722 2.206 1.85 2.206 1.85zm4.983-1.91c.455-.533 1.531-3.74 1.531-3.74-.944 3.55-1.53 3.74-1.53 3.74zM3.136 22.806a.312.312 0 0 1-.07-.008.412.412 0 0 0 .336-.41.415.415 0 0 0-.335-.413c.022-.003.045-.007.069-.007.226 0 .406.187.406.42 0 .23-.18.418-.406.418zm-.01-.707a.29.29 0 0 0-.233.288c0 .145.1.263.233.288-.016.003-.032.003-.049.003a.285.285 0 0 1-.28-.29.286.286 0 0 1 .329-.289zm-.15.288c0-.104.082-.186.181-.186.012 0 .022.002.033.003a.184.184 0 0 0-.152.183c0 .092.065.169.152.183a.145.145 0 0 1-.033.004c-.1 0-.18-.084-.18-.187zm.187-.127a.082.082 0 0 1 .021-.003c.07 0 .126.059.126.13 0 .072-.055.13-.126.13l-.02-.002a.129.129 0 0 0 .103-.128.127.127 0 0 0-.104-.127zm9.703 8.294a.424.424 0 0 1-.296.508.406.406 0 0 1-.502-.376.401.401 0 0 0 .47.236.415.415 0 0 0 .302-.436c.011.022.018.044.026.068zm-.128.022a.277.277 0 0 0-.324-.166.293.293 0 0 0-.215.306c-.005-.016-.012-.033-.015-.05a.294.294 0 0 1 .204-.355.285.285 0 0 1 .35.265zm-.426.175a.13.13 0 0 1-.01-.029.19.19 0 0 1 .131-.227.181.181 0 0 1 .218.136c.003.011.003.022.005.032a.18.18 0 0 0-.208-.106.186.186 0 0 0-.136.194zm.192.034a.13.13 0 0 0 .095-.134l.007.02a.132.132 0 0 1-.092.159.127.127 0 0 1-.153-.095l-.001-.021a.121.121 0 0 0 .144.072zm-.072-2.626a.326.326 0 0 1-.068.02.425.425 0 0 0 .16-.513.402.402 0 0 0-.463-.247c.02-.012.038-.025.06-.035a.402.402 0 0 1 .53.226.425.425 0 0 1-.22.549zm-.47-.252a.296.296 0 0 1 .153-.381.201.201 0 0 1 .048-.015.295.295 0 0 0-.111.357.28.28 0 0 0 .322.174c-.014.008-.028.017-.043.024a.283.283 0 0 1-.37-.16zm.168-.072a.19.19 0 0 1 .098-.245.124.124 0 0 1 .03-.009.193.193 0 0 0-.071.23c.034.085.122.13.206.11a.18.18 0 0 1-.263-.085zm.123-.192c.006-.003.012-.008.02-.011a.126.126 0 0 1 .165.07.132.132 0 0 1-.068.17l-.02.007a.132.132 0 0 0 .047-.158.125.125 0 0 0-.144-.078zm.814-14.129c.021-.012.04-.025.063-.034a.398.398 0 0 1 .528.227.425.425 0 0 1-.218.547c-.023.01-.044.015-.068.021a.425.425 0 0 0 .158-.514.401.401 0 0 0-.463-.247zm-.098.49a.296.296 0 0 1 .199-.398.296.296 0 0 0-.11.358.28.28 0 0 0 .323.172.278.278 0 0 1-.412-.133zm.169-.073a.188.188 0 0 1 .126-.254.187.187 0 0 0-.07.227.174.174 0 0 0 .207.11.148.148 0 0 1-.028.017.18.18 0 0 1-.235-.1zm.125-.193a.167.167 0 0 1 .017-.01.127.127 0 0 1 .166.07c.025.066-.003.143-.068.17a.116.116 0 0 1-.022.006.128.128 0 0 0 .048-.16.12.12 0 0 0-.141-.076zm-.714 10.954a.431.431 0 0 1-.01.593.397.397 0 0 1-.573-.011.218.218 0 0 1-.042-.058c.155.12.374.11.518-.035a.43.43 0 0 0 .053-.535.24.24 0 0 1 .054.046zm-.535.449a.298.298 0 0 1 .004-.413.28.28 0 0 1 .402.007l.03.04a.28.28 0 0 0-.364.027.3.3 0 0 0-.036.374.254.254 0 0 1-.036-.035zm.126-.011a.196.196 0 0 1 .006-.266.177.177 0 0 1 .256.006c.007.008.015.015.02.025a.174.174 0 0 0-.232.016.191.191 0 0 0-.026.238l-.024-.02zm.24-.203a.134.134 0 0 1-.002.185.123.123 0 0 1-.18-.004l-.011-.017a.122.122 0 0 0 .162-.013.132.132 0 0 0 .015-.163.065.065 0 0 1 .017.012zm.168-8.408a.397.397 0 0 1 .62-.008.428.428 0 0 1-.101.631.426.426 0 0 0-.006-.538.393.393 0 0 0-.514-.085zm.054.495a.297.297 0 0 1 .07-.441.3.3 0 0 0 .003.376.276.276 0 0 0 .358.06.694.694 0 0 1-.032.036.277.277 0 0 1-.4-.03zm.138-.123a.19.19 0 0 1 .02-.263l.023-.018a.196.196 0 0 0 .003.24.179.179 0 0 0 .23.038.176.176 0 0 1-.276.002zm.06-.221a.057.057 0 0 1 .015-.016.121.121 0 0 1 .177.013.136.136 0 0 1-.012.184l-.02.01a.127.127 0 0 0-.002-.165.12.12 0 0 0-.158-.026zm-.67 2.404a.406.406 0 0 1 .298.065l-.05.09a.403.403 0 0 0-.248-.155zm-.271.411c0-.16.125-.29.281-.29.017 0 .034 0 .048.005a.286.286 0 0 0-.232.285c0 .114.06.209.15.259l-.016.03a.293.293 0 0 1-.231-.289zm.291.174a.189.189 0 0 1-.11-.174.182.182 0 0 1 .21-.183.186.186 0 0 0-.081.325l-.018.032zm.14-.264a.122.122 0 0 0-.064-.037l.021-.002a.12.12 0 0 1 .057.015l-.013.024zM3.079 23.78c.102-.775 2.712-.512 2.712-.512-2.491-.052-2.712.512-2.712.512zm4.117-3.66c.059-.096.12-.191.187-.287l.001-.004c.125-.184.258-.374.407-.565-.007.009-.015.022-.024.031l.017-.019a.024.024 0 0 0-.006.01c.006-.012.015-.022.022-.032l-.06.082.07-.092a6.682 6.682 0 0 0 .01-.01c-.006.012-.015.022-.023.033a6.792 6.792 0 0 0-.163.268c.063-.106.13-.211.202-.32-.254.395-1.211 2.04-.694 3.674 0 0-.474-.813-.04-2.19-.255.75-.397 1.686-.09 2.617 0 0-.3-.497-.252-1.376a3.983 3.983 0 0 0 .158 1.782s-.47-.762-.209-2.082c-.18.756-.218 1.612.08 2.468 0 0-.373-.584-.319-1.617a4.372 4.372 0 0 0 .207 2.002s-.36-.553-.357-1.54a4.584 4.584 0 0 0 .246 1.967s-.308-.466-.378-1.31a4.968 4.968 0 0 0 .282 1.78s-1.321-2.004.726-5.27zm.63-.895c.009-.01.015-.02.023-.03l-.03.04c.034-.049.056-.083.069-.098l-.078.107a3.504 3.504 0 0 1-.01.01c.002-.003.005-.005.005-.008a.24.24 0 0 0 .006-.006c-.006.008-.014.015-.02.024.066-.091.106-.14.106-.14-.022.03-.04.06-.06.091.03-.043.048-.073.057-.084-.025.032-.044.063-.068.095zm.068-.095a1.007 1.007 0 0 0-.047.078c.03-.056.05-.085.05-.085a1.69 1.69 0 0 1-.044.078c.02-.038.035-.06.04-.071zm-.04.07c-.192.336-.906 1.728-.521 3.111 0 0-.307-.601-.085-1.633-.136.572-.19 1.242.005 1.91 0 0-.699-1.3.594-3.38a3.985 3.985 0 0 0 .006-.007zm-.426 2.854s-.507-1.1.433-2.86c-.159.308-.752 1.588-.433 2.86zm.469-2.93c-.012.024-.023.047-.036.07.022-.045.036-.07.036-.07-.022.049-.04.097-.059.145.036-.092.059-.146.059-.146zm-.357 2.759s-.371-1.005.298-2.614c-.152.389-.523 1.505-.298 2.614zm-.8-1.219c-1.223 1.776-.849 2.545-.849 2.545-.58-.834.848-2.545.848-2.545zm8.94 6.466c.352 1.074.731 2.448 1.131 4.209 0 0-.487-1.934-1.17-3.893.294.978.604 2.186.928 3.677 0 0-.472-1.957-1.129-3.9.28.963.58 2.16.889 3.652 0 0-1.65-7.126-2.997-7.461l-.059-.008a.397.397 0 0 0-.075 0h.001-.001s0-.002.003-.002h-.003s.059-.046.165-.046h.024c.493-.008 1.903.703 3.665 8.016 0 0-.58-2.169-1.373-4.244zm2.576 2.393s-1.1 0-3.372-5.155c0 0 1.927 3.946 3.372 5.155zm.551-.07s-1.28 0-3.923-5.085c0 0 2.446 3.502 4.281 4.575 0 0-.51 0-1.55-1.009.462.492.93.923 1.364 1.198 0 0-.803-.002-2.446-2.216.711.995 1.546 2.02 2.274 2.538zm-5.757-5.901-.007-.002-.006-.001h.002a.091.091 0 0 1 .052-.012h.012l.005-.001c.29 0 1.443.5 3.004 7.623 0 0-.472-1.963-1.103-3.894.311 1.073.648 2.452 1.01 4.227 0 0-.694-3.11-1.515-5.437.37 1.165.795 2.865 1.263 5.342 0 0-.736-3.553-1.558-5.877.37 1.156.812 2.982 1.305 5.854 0 0-.798-4.245-1.63-6.482.36 1.066.815 2.96 1.33 6.315 0 0-1.27-7.51-2.164-7.655zm5.669 6.794c-1.24-.32-2.732-3.294-2.732-3.294 1.526 2.658 2.732 3.294 2.732 3.294zm-.284.164c-1.03-.31-2.252-3.015-2.425-3.41 1.222 2.837 2.186 3.515 2.186 3.515-1.003-.343-2.209-3.563-2.209-3.563 1.369 2.79 2.448 3.458 2.448 3.458zm-.456.282c-.843-.337-1.85-3.312-1.977-3.698 1.003 3.107 1.797 3.85 1.797 3.85-.822-.375-1.812-3.892-1.812-3.892 1.114 3.018 1.992 3.74 1.992 3.74zm-.534.07c-.66-.366-1.458-3.81-1.458-3.81.814 3.076 1.459 3.81 1.459 3.81zm-4.198-7.69c.9-.711 1.559 1.073 1.559 1.073-.795-1.421-1.559-1.073-1.559-1.073zm.668 21.718c-1.012-.23-1.62.545-1.62.545.83-1.216 1.62-.545 1.62-.545zm.061.258c-1.026-.212-1.64.495-1.64.495.84-1.11 1.64-.495 1.64-.495zm.04.197c-.925-.144-1.479.342-1.479.342.758-.762 1.48-.342 1.48-.342zm-1.417.613c.799-.9 1.56-.404 1.56-.404-.976-.172-1.56.404-1.56.404zm1.783-.185c-1.166-.183-1.864.437-1.864.437.955-.97 1.864-.437 1.864-.437zm-4.904-2.915c-.669.085-1.216.817-1.216.817.77-1.151 1.216-.817 1.216-.817zm.141.169c-.667.082-1.216.817-1.216.817.771-1.153 1.216-.817 1.216-.817zm.081.188c-.613.08-1.115.775-1.115.775.707-1.092 1.115-.775 1.115-.775zm.122.207c-.657.074-1.195.714-1.195.714.756-1.006 1.195-.714 1.195-.714zm.102.201c-.613.06-1.116.583-1.116.583.708-.821 1.116-.583 1.116-.583zm.12.148c-.613.06-1.115.581-1.115.581.707-.82 1.116-.581 1.116-.581zm.163.148c-.613.059-1.115.582-1.115.582.706-.822 1.115-.582 1.115-.582zm.163.146c-.614.059-1.117.58-1.117.58.707-.82 1.117-.58 1.117-.58zm.284.066c-.713.067-1.298.654-1.298.654.822-.924 1.297-.654 1.297-.654zm-2.19.062c-.274-.321-1.118-.85-1.118-.85.865.266 1.119.85 1.119.85zm-.115.132c-.255-.307-1.034-.816-1.034-.816.797.254 1.034.816 1.034.816zm-.065.142c-.242-.294-.981-.781-.981-.781.757.243.981.78.981.78zm-.117.1c-.215-.253-.873-.672-.873-.672.675.21.873.671.873.671zm-.117.11c-.186-.228-.756-.605-.756-.605.583.188.756.605.756.605zM1.44 29.544c.084-.135.01-.366.01-.366.363.154-.01.366-.01.366zm.406-1.87S1.72 29.245.92 28.88c0 0 .704.203.926-1.207zm-.852 1.11s.43-.248.746-.998c0 0-.19.922-.746.998zm3.484 3.658s-1.324-.504-1.474-.111c0 0-.14-.556 1.474.111zm.627.565s-.033.385-.52.273c0 0 .355.025.52-.273zm1.413-.044c-.974.437-.684.864-.684.864-.406-.564.684-.864.684-.864zm-.751.264c.163-.554-.123-.562-.123-.562.372-.138.123.562.123.562zm.735-.135c-.768.453-.362.956-.362.956-.564-.622.362-.956.362-.956zm.903.777c.023.615.661.71.661.71-.81 0-.661-.71-.661-.71zm.007-.17c.093-.41-.165-.426-.165-.426.373-.105.165.425.165.425zm1.175.701s1.11.486-.173.94c0 0 1.106-.41.173-.94zm.222.428c-.14.554-1.016.29-1.016.29.876.102 1.016-.29 1.016-.29zm3.821-.369c-.554-.393-1.032.3-1.032.3.586-.882 1.032-.3 1.032-.3zm.239.282s.695-.204 1.133.855c0 0-.463-.88-1.133-.855zm1.24.308-.007.008.006-.008c.212-.345.83.231.83.231-.622-.397-.797-.27-.83-.231zm-4.356-.462s-.025-.64 1.084-.274c0 0-.918-.266-1.084.274zm-.33.394s.503-.375-.654-.564c0 0 1.298.12.653.564zm2.976-.795s-1.117-.624-1.521.078c0 0 .205-.82 1.521-.078zm-9.03-3.368s.184-.299.76.573c0 0-.514-.682-.76-.573zm3.3 2.53s-.216.94-.496.607c0 0 .248.111.495-.606zm10.545 1.79c-1.439-.141-1.347.324-1.347.324-.213-.613 1.347-.324 1.347-.324zm-1.926-.99c-.556.307-.34 1.038-.34 1.038-.435-.677.34-1.039.34-1.039zM1.913 31.345c-.662.258-.5-.175-.5-.175-.03.328.5.175.5.175zm-.456-.273s.17.296.552-.215c0 0-.412.64-.552.215zm.391-.152s-.215.326-.42.014c0 0 .213.19.42-.014zm-.295-.402c-.275.155-.062.363-.032.39-.369-.309.032-.39.032-.39zm-.032.39.002.003-.002-.003zm.039-.3s-.148.212.375.235c0 0-.61.046-.375-.236zm.058-.047s.398.07.495-.479c0 0-.067.66-.495.48zm1.156 1.522s.044-.191-.565.014c0 0 .66-.334.565-.014zm1.583-1.247c.484-.076.477.464.477.464-.118-.487-.477-.464-.477-.464zm-.068 1.903c.115-.367-.666-.463-.945-.486 1.288.093.945.486.945.486zm-.945-.486-.096-.007.096.007zm1.223.199s.384.027.008.618c0 0 .283-.482-.008-.618zm9.47-22.644c.181.109.415.022.578.18 0 0 .155-.325-.183-.532 0 0-.158-.105-.395-.095 0 0-.215-.03-.253-.086 0 0 .071.425.253.533zm.735-.061c.132-.889-.844-.557-.844-.557.788-.03.844.557.844.557zm-1.317-.373c.388-.164.428-.506.428-.506.088-.026.232-.157.232-.157l.102.037c.153.232.474.205.474.205l.163.102c-.03.35.176.444.176.444s-.016-.187.128-.236c.142-.05.587.43.677.502.088.075.016.153.016.153-.016.024-.01.046-.028.069-.1-.089-.292-.294-.682.064 0 0 .376-.16.604.006-.03.036-.038.05-.064.085l-.018-.008c-.355-.175-.628.157-.628.157.138.032.412.143.4.209a1.07 1.07 0 0 0-.093.15 1.313 1.313 0 0 0-.096.287c-.019.11-.053.075-.178.075s-.137.043-.16.09c-.023.05-.09.109-.09.109s-.023-.169-.082-.494c-.06-.325-.5-.055-.801.05-.304.103-.493-.075-.594-.27-.1-.196-.306-.575-.306-.575.321-.052.42-.548.42-.548zm1.096 1.357s-.153 2.008-.696 1.834c.096 0 .367-.17.696-1.834zm-.734 1.826c.014.005.026.005.038.008a.075.075 0 0 1-.038-.008zm-.898-2.28c.322 1.327 1.376.689 1.376.689-1.214.923-1.376-.689-1.376-.689zm1.304.988c-1.367 1.07-1.547-.797-1.547-.797.36 1.537 1.547.797 1.547.797zm-.093.352c-1.495 1.163-1.693-.866-1.693-.866.395 1.67 1.693.866 1.693.866zm-.098.386c-1.702 1.422-1.927-1.056-1.927-1.056.45 2.04 1.928 1.056 1.928 1.056z" fill="#fff"/><path d="M128.333 48.293V47.5l3.302-2.912c.71-.624 1.204-1.144 1.482-1.56.277-.416.416-.85.416-1.3 0-.52-.178-.94-.533-1.261-.356-.32-.789-.481-1.3-.481a2.33 2.33 0 0 0-1.313.377c-.373.251-.75.646-1.131 1.183l-.754-.546c.442-.659.91-1.144 1.404-1.456.494-.32 1.118-.481 1.872-.481.814 0 1.486.247 2.015.741.537.485.806 1.105.806 1.859a2.84 2.84 0 0 1-.507 1.664c-.338.485-.936 1.11-1.794 1.872l-2.431 2.158h4.823v.936h-6.357zm-5.079.157c-.971 0-1.907-.374-2.808-1.119l.598-.793c.736.65 1.482.975 2.236.975.806 0 1.456-.36 1.95-1.079.502-.728.754-1.66.754-2.795v-.117c-.607.97-1.465 1.456-2.574 1.456-.936 0-1.699-.264-2.288-.793-.59-.537-.884-1.222-.884-2.054 0-.875.307-1.608.923-2.197.615-.598 1.399-.897 2.353-.897 1.074 0 1.928.36 2.561 1.08.641.718.962 1.854.962 3.405 0 1.447-.351 2.63-1.053 3.55-.702.918-1.612 1.377-2.73 1.377zm.273-4.356c.667 0 1.209-.208 1.625-.624.424-.416.637-.901.637-1.456 0-.59-.217-1.079-.65-1.469-.434-.399-.988-.598-1.664-.598-.659 0-1.188.212-1.586.637-.399.416-.598.923-.598 1.521 0 .58.208 1.057.624 1.43.416.373.953.56 1.612.56zm-5.758 3.614c-.65.477-1.464.715-2.444.715-.979 0-1.794-.243-2.444-.728-.65-.485-.975-1.11-.975-1.872 0-.52.169-.97.507-1.352.338-.381.793-.676 1.365-.884-1.04-.477-1.56-1.183-1.56-2.119 0-.685.304-1.257.91-1.716.616-.46 1.348-.689 2.197-.689.85 0 1.578.23 2.184.689.616.46.923 1.04.923 1.742 0 .919-.52 1.616-1.56 2.093 1.248.468 1.872 1.218 1.872 2.249 0 .763-.325 1.387-.975 1.872zm-3.926-4.953c.399.312.893.468 1.482.468.59 0 1.084-.156 1.482-.468.399-.312.598-.72.598-1.222 0-.45-.199-.823-.598-1.118-.398-.303-.892-.455-1.482-.455-.598 0-1.096.152-1.495.455-.39.295-.585.676-.585 1.144 0 .485.2.884.598 1.196zm-.26 4.277c.434.33 1.014.494 1.742.494s1.305-.165 1.729-.494c.434-.33.65-.741.65-1.235 0-.503-.229-.914-.689-1.235-.459-.33-1.022-.494-1.69-.494-.676 0-1.243.165-1.703.494-.45.33-.676.75-.676 1.261 0 .477.213.88.637 1.209zm-4.685 1.261v-8.099l-1.716.533-.247-.832 2.223-.767h.754v9.165h-1.014zm-8.41 0v-1.365h1.196v1.365h-1.196zm-2.89.117c-.58 0-1.044-.151-1.39-.455-.339-.312-.508-.793-.508-1.443v-4.056h-.936v-.884h.936v-2.028h1.001v2.028h2.132v.884h-2.132v3.926c0 .745.377 1.118 1.131 1.118.33 0 .655-.078.975-.234v.858c-.364.19-.767.286-1.209.286zm-6.373.013a4.53 4.53 0 0 1-1.482-.26 4.51 4.51 0 0 1-1.3-.728l.507-.715c.762.572 1.538.858 2.326.858.408 0 .742-.1 1.002-.299a.95.95 0 0 0 .39-.793c0-.303-.144-.537-.43-.702-.277-.165-.693-.325-1.248-.48a9.068 9.068 0 0 1-.805-.26 5.828 5.828 0 0 1-.677-.326 1.475 1.475 0 0 1-.558-.546 1.649 1.649 0 0 1-.183-.793c0-.572.213-1.036.638-1.39.433-.356.983-.534 1.65-.534.867 0 1.673.247 2.418.741l-.454.754c-.668-.433-1.33-.65-1.99-.65-.39 0-.706.095-.948.286a.863.863 0 0 0-.352.715c0 .121.035.234.105.338.069.104.147.19.233.26.087.07.222.143.404.221.19.078.342.134.454.17.113.034.29.09.534.168.32.095.584.186.792.273.209.087.43.204.663.351.234.147.408.334.52.56.122.216.183.471.183.766 0 .624-.226 1.118-.677 1.482-.45.355-1.022.533-1.715.533zm-10.763-.13v-9.1h6.578v.936h-5.552v3.107h4.966v.936H81.49v3.185h5.615v.936h-6.642z" fill="#fff"/><path fill-rule="evenodd" clip-rule="evenodd" d="M122.767 7.541c-1.43.418-2.365 1.112-2.806 2.08-.336.704-.503 1.939-.503 3.705v14.219h-2.626l-8.863-16.728v11.06c0 1.691.176 2.897.529 3.62.459.949 1.377 1.632 2.753 2.05l-7.889.002c1.377-.418 2.295-1.102 2.753-2.052.354-.722.53-1.928.53-3.62V9.342l-2.25-1.795 8.339-.002-2.277 1.796 7.703 14.387V13.184c0-1.69-.185-2.896-.555-3.618-.459-.93-1.377-1.605-2.754-2.023l7.916-.002zm12.917 10.14c0-2.659-.278-4.7-.821-6.126-.816-2.144-2.259-3.219-4.341-3.218-2.047 0-3.443 1.055-4.183 3.164-.459 1.31-.688 3.315-.688 6.012 0 2.622.277 4.635.821 6.04.814 2.108 2.259 3.163 4.341 3.162 3.247 0 4.871-3.012 4.871-9.033zm3.389 0c0 3.058-.692 5.492-2.039 7.323-1.476 2.007-3.583 3.021-6.353 3.022-2.842 0-4.983-1.017-6.433-3.047-1.303-1.825-1.959-4.312-1.959-7.465 0-3.134.661-5.61 1.959-7.437 1.454-2.048 3.583-3.079 6.406-3.08 2.842 0 4.995 1.044 6.46 3.133 1.305 1.861 1.959 4.378 1.959 7.55zm20.586-12.57c-.565.475-1.068.94-1.509 1.396-1.377 1.444-3.062 4.674-5.057 9.69l-3.759 9.489 2.33 1.823-7.995.002 2.25-1.824-6.009-16.383-2.276-1.794 7.756-.002-2.255 1.796 5.392 15.014 3.402-8.577c.352-.874.591-1.501.714-1.88.247-.723.433-1.369.556-1.939.176-.854.265-1.415.265-1.68 0-1.045-.415-1.957-1.244-2.736 1.147 0 2.418-.243 3.812-.728 1.394-.484 2.576-1.088 3.547-1.81l.08.143zm11.128 13.337-2.714-7.778-2.409 6.778c.79.93 1.716 2.203 2.771 3.817a20.17 20.17 0 0 1 2.352-2.817zm7.848 9.055-7.306.002 1.946-1.81-1.972-5.656-1.509 1.739c-.6.703-1.05 1.33-1.35 1.88-1.218-2.165-2.303-3.741-3.256-4.728-.918 2.66-1.377 4.502-1.377 5.528 0 .93.565 1.947 1.694 3.048l-7.253.002c1.606-.874 2.877-2.185 3.812-3.933.582-1.102 1.227-2.897 1.932-5.386-.582-.456-1.314-.75-2.197-.883.6-.969.997-1.795 1.191-2.479.371.38.918.95 1.642 1.71l2.514-7.239-1.535-1.795 6.671-.002-1.535 1.796 2.431 7.042c.883-.613 1.597-1.25 2.149-1.914.264 1.196.644 2.184 1.138 2.963a8.876 8.876 0 0 0-.843-.029c-.67 0-1.284.153-1.849.452l2.692 7.868 2.17 1.824zm-23.839-3.765c.991 0 1.794.844 1.794 1.885 0 1.04-.803 1.885-1.794 1.885s-1.794-.843-1.794-1.884.803-1.886 1.794-1.886zm-94.52-5.21-2.713-7.778-2.409 6.778c.79.93 1.716 2.203 2.77 3.817.742-1.064 1.527-2 2.352-2.817zm-11.568 9.06c-.86.005-1.92.195-3.174.57-1.327.419-2.313.884-2.959 1.398 0-2.565-.366-4.83-1.097-6.806-.408-1.12-1.398-3.129-2.98-6.035l-3.095 3.178v5.875l2.22 1.823-7.448.002 2.142-1.825V9.385L30.175 7.59l7.447-.002-2.219 1.796v8.434l6.02-6.185c.714-.741 1.071-1.425 1.071-2.052 0-.817-.671-1.462-2.015-1.937v-.057l8.06-.002v.057c-.374.152-.73.323-1.071.513-.884.476-2.168 1.55-3.852 3.221a38950.21 38950.21 0 0 1-3.468 3.591c1.938 3.837 3.145 6.145 3.621 6.923 1.322 2.126 2.84 3.91 4.553 5.354 1.335-.861 2.412-2.058 3.232-3.59.582-1.1 1.226-2.896 1.932-5.385-.582-.456-1.315-.75-2.197-.883.6-.969.997-1.795 1.191-2.479.371.38.918.95 1.642 1.71l2.514-7.239-1.535-1.794 6.67-.002-1.534 1.795 2.43 7.042c.883-.613 1.598-1.249 2.15-1.914.264 1.196.644 2.184 1.138 2.963a8.833 8.833 0 0 0-.843-.028c-.67 0-1.284.152-1.849.451l2.692 7.869 2.17 1.823-7.306.002 1.946-1.81-1.973-5.656-1.509 1.739c-.6.703-1.05 1.33-1.35 1.88-1.217-2.165-2.303-3.741-3.256-4.728-.917 2.659-1.376 4.502-1.376 5.528 0 .93.565 1.947 1.694 3.048l-6.252.002h-.035zm133.323-3.856c-.99 0-1.793.844-1.793 1.885s.803 1.885 1.793 1.885c.991 0 1.794-.845 1.794-1.886s-.803-1.885-1.794-1.884zm-86.818-5.237L92.5 10.717l-2.41 6.777c.79.93 1.717 2.203 2.771 3.817a20.16 20.16 0 0 1 2.352-2.816zm-12.459 9.06-.02-.031c1.58-.874 2.832-2.175 3.757-3.903.582-1.102 1.226-2.897 1.932-5.386-.583-.456-1.315-.75-2.198-.882.6-.97.998-1.796 1.192-2.48.37.38.918.95 1.641 1.71l2.515-7.238-1.535-1.795 6.67-.002-1.535 1.796 2.431 7.042c.883-.613 1.598-1.25 2.149-1.914.265 1.196.644 2.184 1.138 2.962a8.843 8.843 0 0 0-.842-.028c-.671 0-1.284.152-1.849.452l2.691 7.868 2.171 1.823-7.306.002 1.945-1.81-1.972-5.655-1.509 1.738c-.6.703-1.05 1.33-1.35 1.881-1.217-2.165-2.303-3.742-3.256-4.729-.918 2.66-1.377 4.503-1.377 5.528 0 .931.565 1.947 1.695 3.049l-7.178.002-.02-.03c-.747-1.122-1.486-2.85-2.22-5.184-.63 1.71-1.466 2.83-2.507 3.363-.712.38-1.89.57-3.534.57-.85 0-1.52-.18-2.013-.54l9.79-18.182-13.572.004a64.879 64.879 0 0 1 1.973 4.786c.343-1.33.918-2.27 1.726-2.821.672-.456 1.569-.684 2.692-.685a9.37 9.37 0 0 1 3.206.54l-9.74 18.182 14.219-.003zm96.567-22.136a2.658 2.658 0 0 1 1.311-.357c.446 0 .882.12 1.308.357.427.237.759.578.998 1.02.238.441.357.901.357 1.38 0 .476-.117.932-.351 1.368a2.54 2.54 0 0 1-.986 1.02 2.626 2.626 0 0 1-1.326.366 2.62 2.62 0 0 1-1.325-.366 2.549 2.549 0 0 1-.989-1.02 2.834 2.834 0 0 1-.354-1.367c0-.48.119-.94.359-1.382.24-.44.573-.782.998-1.02zm.464 2.226V6.572h.63c.272 0 .457.02.558.062a.503.503 0 0 1 .32.467c0 .164-.06.296-.176.395-.117.098-.338.149-.658.149h-.674zm-.555-1.554v3.553h.555V8.135h.325c.195 0 .344.04.445.122.148.111.34.387.58.827l.305.56h.678l-.419-.695c-.201-.33-.37-.564-.509-.705a.913.913 0 0 0-.292-.188c.297-.024.535-.132.714-.324a.966.966 0 0 0 .109-1.2.868.868 0 0 0-.433-.344c-.18-.065-.472-.097-.877-.097h-1.181zm-.169-1.15a2.99 2.99 0 0 0-1.197 1.222 3.396 3.396 0 0 0-.006 3.297c.282.526.676.934 1.184 1.223a3.142 3.142 0 0 0 1.59.437c.554 0 1.083-.145 1.59-.436.506-.29.901-.698 1.181-1.224a3.416 3.416 0 0 0-.005-3.297 2.985 2.985 0 0 0-1.195-1.222 3.198 3.198 0 0 0-1.571-.426c-.536 0-1.061.142-1.571.426z" fill="#fff"/></svg><svg fill="none" viewBox="0 0 33 34" id="ok" xmlns="http://www.w3.org/2000/svg"><circle cx="16.5" cy="17.481" r="16" stroke="#fff"/><g clip-path="url(#ja)" fill="#fff"><path d="M23.422 17.945c-.58-1.134-1.994-1.564-3.378-.476-.013.01-1.384 1.062-3.541 1.062s-3.528-1.053-3.541-1.062c-1.378-1.089-2.803-.663-3.38.479l-.005.01c-.858 1.754.559 2.669 1.698 3.404.705.453 1.605.795 2.687 1.021l-3.071 3.078c-1.854 1.85 1.051 4.77 2.925 2.94l2.696-2.71a539.13 539.13 0 0 1 2.703 2.72c1.85 1.816 4.774-1.053 2.93-2.946-2.199-2.197-2.672-2.672-3.088-3.081 2.296-.492 5.49-2.102 4.365-4.439zm-5.774 3.215c-.496-.238-1.156.668-.613 1.232l.006.006.003.003.005.005 4.072 4.068c.516.53-.393 1.406-.892.92-.891-.907-2.305-2.323-3.21-3.23a.718.718 0 0 0-1.018 0l-3.2 3.214c-.506.495-1.41-.39-.896-.902l4.067-4.075a.025.025 0 0 0 .005-.006c.505-.496-.005-1.416-.6-1.24-1.415-.166-2.562-.512-3.325-1.003-1.476-.954-1.403-1.121-1.189-1.56.621-1.188 1.721 1.376 5.638 1.376 2.682 0 4.365-1.318 4.431-1.37.437-.343.95-.503 1.202-.014.214.444.293.61-1.186 1.571-1.01.643-2.438.903-3.3 1.005zM16.5 15.562a3.402 3.402 0 0 0 3.395-3.4c0-1.883-1.523-3.414-3.396-3.414-1.871 0-3.394 1.532-3.394 3.414a3.4 3.4 0 0 0 3.394 3.4zm0-5.377a1.97 1.97 0 0 1 1.957 1.977 1.963 1.963 0 0 1-1.958 1.962 1.963 1.963 0 0 1-1.958-1.963 1.97 1.97 0 0 1 1.958-1.976z"/><path d="M16.5 18.328a6.175 6.175 0 0 0 6.168-6.167c-.001-3.407-2.768-6.18-6.169-6.18s-6.169 2.773-6.169 6.18c0 3.4 2.767 6.167 6.17 6.167zm0-10.91a4.735 4.735 0 0 1 0 9.471 4.735 4.735 0 0 1 0-9.47z"/></g><defs><clipPath id="ja"><path fill="#fff" transform="translate(5 5.981)" d="M0 0h23v23H0z"/></clipPath></defs></svg><svg fill="none" viewBox="0 0 26 26" id="phone" xmlns="http://www.w3.org/2000/svg"><path d="M23.54 18.35v3.125a2.082 2.082 0 0 1-2.271 2.083 20.614 20.614 0 0 1-8.99-3.198 20.312 20.312 0 0 1-6.25-6.25 20.614 20.614 0 0 1-3.198-9.031 2.083 2.083 0 0 1 2.073-2.271H8.03A2.083 2.083 0 0 1 10.113 4.6c.131 1 .376 1.982.729 2.927a2.084 2.084 0 0 1-.47 2.198L9.05 11.047a16.666 16.666 0 0 0 6.25 6.25l1.323-1.322a2.084 2.084 0 0 1 2.198-.47c.945.353 1.927.598 2.927.73a2.083 2.083 0 0 1 1.792 2.115z" stroke="#fff" stroke-linecap="round" stroke-linejoin="round"/></svg><svg fill="none" viewBox="0 0 26 26" id="pin" xmlns="http://www.w3.org/2000/svg"><path d="M21.456 11.141c0 6.25-8.333 12.5-8.333 12.5s-8.333-6.25-8.333-12.5a8.333 8.333 0 0 1 16.666 0z" stroke="#fff" stroke-linecap="round" stroke-linejoin="round"/><path d="M13.123 14.266a3.125 3.125 0 1 0 0-6.25 3.125 3.125 0 0 0 0 6.25z" stroke="#fff" stroke-linecap="round" stroke-linejoin="round"/></svg><svg fill="none" viewBox="0 0 26 26" id="search" xmlns="http://www.w3.org/2000/svg"><path d="M11.958 20.516a8.333 8.333 0 1 0 0-16.667 8.333 8.333 0 0 0 0 16.667zM22.375 22.6l-4.48-4.48" stroke="#fff" stroke-linecap="round" stroke-linejoin="round"/></svg><svg fill="none" viewBox="0 0 25 26" id="user" xmlns="http://www.w3.org/2000/svg"><path d="M19.792 22.6v-2.084a4.167 4.167 0 0 0-4.167-4.166h-6.25a4.167 4.167 0 0 0-4.167 4.166V22.6M12.5 12.183a4.167 4.167 0 1 0 0-8.333 4.167 4.167 0 0 0 0 8.333z" stroke="#fff" stroke-linecap="round" stroke-linejoin="round"/></svg><svg fill="none" viewBox="0 0 33 35" id="vk" xmlns="http://www.w3.org/2000/svg"><circle cx="16.5" cy="17.481" r="16" stroke="#fff"/><path d="M25.562 25.443h-2.875a1.432 1.432 0 0 1-1.132-.551l-2.803-3.576a.479.479 0 0 0-.857.293v1.438c0 1.324-1.288 2.396-2.875 2.396a3.242 3.242 0 0 1-1.755-.497C9.24 22.37 6.508 19.117 4.136 14.074a1.438 1.438 0 0 1 1.3-2.049h2.875a1.438 1.438 0 0 1 1.324.869l.323.755a12.325 12.325 0 0 0 1.947 3.126.132.132 0 0 0 .102.042.126.126 0 0 0 .138-.125v-1.875a1.437 1.437 0 0 1 .479-2.792h3.833c.794 0 1.438.644 1.438 1.438v3.354a.48.48 0 0 0 .887.252l2.677-4.355c.26-.43.726-.691 1.228-.689h2.875a1.437 1.437 0 0 1 1.192 2.24l-3.019 4.188a.48.48 0 0 0 0 .563l2.995 4.15a1.438 1.438 0 0 1-1.168 2.277zm-7.188-5.271c.443-.001.86.202 1.132.55L22.31 24.3a.48.48 0 0 0 .378.185h2.875a.479.479 0 0 0 .39-.76l-2.996-4.151a1.437 1.437 0 0 1 0-1.683l3.013-4.175a.48.48 0 0 0-.407-.73h-2.875a.479.479 0 0 0-.407.226l-2.678 4.355a1.438 1.438 0 0 1-2.665-.749v-3.354a.48.48 0 0 0-.48-.48h-3.833a.48.48 0 1 0 0 .96h.48v2.749a1.096 1.096 0 0 1-1.924.706 13.286 13.286 0 0 1-2.096-3.366l-.33-.755a.48.48 0 0 0-.443-.293H5.436a.48.48 0 0 0-.431.683c2.318 4.93 4.864 7.966 8.78 10.476.372.227.8.346 1.235.341 1.054 0 1.917-.647 1.917-1.437V21.61c0-.794.643-1.437 1.437-1.437z" fill="#fff"/></svg><svg fill="none" viewBox="0 0 33 34" id="youtube" xmlns="http://www.w3.org/2000/svg"><g clip-path="url(#pa)"><path d="M24.476 10.318H8.524a2.21 2.21 0 0 0-2.208 2.208v9.911a2.21 2.21 0 0 0 2.208 2.208h15.952a2.21 2.21 0 0 0 2.208-2.208v-9.911a2.21 2.21 0 0 0-2.208-2.208zm1.176 12.12a1.177 1.177 0 0 1-1.176 1.175H8.524a1.178 1.178 0 0 1-1.176-1.176v-9.911a1.177 1.177 0 0 1 1.176-1.176h15.952a1.178 1.178 0 0 1 1.176 1.176v9.911zm-4.573-5.82-5.547-3.202a.997.997 0 0 0-1.494.863v6.405a.993.993 0 0 0 1.494.863l5.547-3.203a.996.996 0 0 0 0-1.725zm-6.01 4.006v-6.285l5.442 3.142-5.442 3.142zM16.5.98C7.402.981 0 8.383 0 17.481c0 9.099 7.402 16.5 16.5 16.5 9.098 0 16.5-7.401 16.5-16.5 0-9.098-7.402-16.5-16.5-16.5zm0 31.97c-8.53 0-15.469-6.94-15.469-15.47 0-8.529 6.94-15.468 15.469-15.468 8.53 0 15.469 6.939 15.469 15.468 0 8.53-6.94 15.47-15.469 15.47z" fill="#fff"/></g><defs><clipPath id="pa"><path fill="#fff" transform="translate(0 .981)" d="M0 0h33v33H0z"/></clipPath></defs></svg></svg>