<svg width="33" height="34" fill="none" xmlns="http://www.w3.org/2000/svg"><g clip-path="url(#clip0_0_1098)"><path d="M24.476 10.318H8.524a2.21 2.21 0 00-2.208 2.208v9.911a2.21 2.21 0 002.208 2.208h15.952a2.21 2.21 0 002.208-2.208v-9.911a2.21 2.21 0 00-2.208-2.208zm1.176 12.12a1.177 1.177 0 01-1.176 1.175H8.524a1.178 1.178 0 01-1.176-1.176v-9.911a1.177 1.177 0 011.176-1.176h15.952a1.178 1.178 0 011.176 1.176v9.911zm-4.573-5.82l-5.547-3.202a.997.997 0 00-1.494.863v6.405a.993.993 0 001.494.863l5.547-3.203a.996.996 0 000-1.725zm-6.01 4.006v-6.285l5.442 3.142-5.442 3.142zM16.5.98C7.402.981 0 8.383 0 17.481c0 9.099 7.402 16.5 16.5 16.5 9.098 0 16.5-7.401 16.5-16.5 0-9.098-7.402-16.5-16.5-16.5zm0 31.97c-8.53 0-15.469-6.94-15.469-15.47 0-8.529 6.94-15.468 15.469-15.468 8.53 0 15.469 6.939 15.469 15.468 0 8.53-6.94 15.47-15.469 15.47z" fill="#fff"/></g><defs><clipPath id="clip0_0_1098"><path fill="#fff" transform="translate(0 .981)" d="M0 0h33v33H0z"/></clipPath></defs></svg>